<mxfile host="app.diagrams.net" modified="2021-04-27T23:17:58.764Z" agent="5.0 (Macintosh; Intel Mac OS X 10_15_4) AppleWebKit/537.36 (KHTML, like Gecko) Chrome/89.0.4389.128 Safari/537.36" etag="mWE_KN1zs_YjJCsYUuDM" version="14.6.1" type="github" pages="2">
  <diagram id="7AyuWmP8S-Esl5n3qQoy" name="Page-1">
    <mxGraphModel dx="1298" dy="691" grid="1" gridSize="10" guides="1" tooltips="1" connect="1" arrows="1" fold="1" page="1" pageScale="1" pageWidth="827" pageHeight="1169" math="0" shadow="0">
      <root>
        <mxCell id="0" />
        <mxCell id="1" parent="0" />
        <mxCell id="KDu9IRebR6RD1mSpAzbL-5" value="" style="rounded=0;whiteSpace=wrap;html=1;" vertex="1" parent="1">
          <mxGeometry x="420" y="170" width="275.25" height="100" as="geometry" />
        </mxCell>
        <mxCell id="KDu9IRebR6RD1mSpAzbL-23" style="edgeStyle=orthogonalEdgeStyle;rounded=0;orthogonalLoop=1;jettySize=auto;html=1;fontSize=10;" edge="1" parent="1" source="KDu9IRebR6RD1mSpAzbL-1">
          <mxGeometry relative="1" as="geometry">
            <mxPoint x="620" y="222" as="targetPoint" />
            <Array as="points">
              <mxPoint x="580" y="222" />
              <mxPoint x="580" y="222" />
            </Array>
          </mxGeometry>
        </mxCell>
        <mxCell id="KDu9IRebR6RD1mSpAzbL-1" value="" style="verticalLabelPosition=bottom;html=1;verticalAlign=top;align=center;strokeColor=none;fillColor=#00BEF2;shape=mxgraph.azure.sql_database_sql_azure;" vertex="1" parent="1">
          <mxGeometry x="540" y="204" width="37.5" height="36" as="geometry" />
        </mxCell>
        <mxCell id="KDu9IRebR6RD1mSpAzbL-22" style="edgeStyle=orthogonalEdgeStyle;rounded=0;orthogonalLoop=1;jettySize=auto;html=1;fontSize=10;" edge="1" parent="1" source="KDu9IRebR6RD1mSpAzbL-2">
          <mxGeometry relative="1" as="geometry">
            <mxPoint x="530" y="218" as="targetPoint" />
          </mxGeometry>
        </mxCell>
        <mxCell id="KDu9IRebR6RD1mSpAzbL-2" value="" style="aspect=fixed;html=1;points=[];align=center;image;fontSize=12;image=img/lib/azure2/databases/Data_Factory.svg;" vertex="1" parent="1">
          <mxGeometry x="460" y="204" width="28" height="28" as="geometry" />
        </mxCell>
        <mxCell id="KDu9IRebR6RD1mSpAzbL-4" value="" style="shape=image;verticalLabelPosition=bottom;labelBackgroundColor=#ffffff;verticalAlign=top;aspect=fixed;imageAspect=0;image=data:image/png,iVBORw0KGgoAAAANSUhEUgAAAWgAAACMCAMAAABmmcPHAAABTVBMVEXyyBEjHyDyyQ8jHiH0yBHxyRIjHx0hHyIjHx8VDhMiHiT1zRagiishFQYQAA4jHiL2zSN4ZSXGqUSNdyrpxTSchjMfHx4aFBi2njQlHSPVty/YvDEaGBweGRhZTRkSCQ0aEwpmVhoNABTzzSu9o0HxyzMlGwWbhz3BoSwWExLIqTEAAAD3xhAmHh1xXSBlViseEAs4KQ4XGB/qzDUUAAjTtTkhIBojHScAAAvw0SozJQ5IOB4aFyASDA7ivTOAbiUqFw9UQBFFMg0WAA8ZER08KRNiTR4mEg6nkTB+cCkxGwtFPRUgCwDZtinmwiPXtSpWQwmLfTwgHS7JsTevlD16ZzCUdiaNcDgvIRV9ZhsPBh66pVc+KgdpXT45MQ2+pCmtix42MCNrYBzUvmF8dEIIDwjt0k6PfyfcwUdzYS9NQTEZCh8jExWkhyZWQB4u+AI5AAAVgklEQVR4nO1c/XvaRrZG0kgjaWxJGDEgwJaNjBMTQQGB+Chgg6lLEm/bLO222fXGu9u9m+zdbP//H++ZEXbs1M5HA/XT3nmfPEmQQIxenTnnvOfMkEoJCAgICAgICAgICAgICAgICAgICAgICAgICAgICAgICAgICAgICAgICAgICAgICPymIQPuewy/b6gyksPQiQqFccVB8JIRjuA/9z2w3xuQrBLn1dGg3T6eZDuRg+AAgzDxFQOlZCd//HqIddoy/ObRlhsgmRBVFd5kxVDVql/CJcsalUypVupt1ufgRAiSmeO+78H9joBkd2ri0el8KzvZHeWoBJw3drKdgAiaVwpE9n3deB6RlBMU5ns/nORKpl0yGpNM1U3IDiE0wr+qLOLjJ4FkctLgFUEhkpETuPl005rZdtebWV+k8+CwgWZwLzwTYf8V+KVw6sPtnYoMCZ0KpCLSj6qZqW+0KG21jM2djU6FEBkeQ0oWNv0pQMFeafs0YK5BZqbL2HYqnezpl1arhZXcrD35UzXqywShMBQW/cvBiC6dBikEDPP8mZl2SibBGJzISY6Cwx5azXR+HBAkXMcnQHbAoncCGV25BXkpV0jffZiZto0SpjjXfrI3LwQOt2qVEy4L8fhRuCL67WQO2CQqOJGN00avhcFjl19PslXXIcxTJ9FRGPhH4E6iOZNMJAbjef24PNuOY2q0p0d54Br8NZfq9zDe3yzuJFrlSYYsM1Ih63vcbBvDFsaH7Sf1ebHvQDYoBM3H4B0WzRwEOwx/I9WJOtnJl34O0+1hucHqT31y22cE7sDdRF/3wNyLOJWv53sHvVIMqYg/epqpcifynuuzXCZ1rR4os0tBUr7au/hoQOxfhn8+tqQwzIaXnEV83Gw6r+wb32XRb70T/pB+EbI+yERsXMq1B5mx8z7K2IB53piAOXaVP7dV3cAvw7URMbBEily/FZWlYSsNQh9BtAxGTiDDdquZnyyjpGmx8UXVec+nWL0bkStAcIVD8v0HUgjzfHIlM4wFomtRh51cTr2V4cOJZuDCMUQkerVxemaV8HBQeJ9Fqynyh+o1dKKAvN/jrBsIfXVxbVAFVkC7VoH/ih/9Wr4vorlYYepRlp1gvD8xaK7ef/dg4NGQTM8C9BJYT06zRee+UxZENh4lI0qGtvv0ZeeNG1S3HrGj9f4K592HEK2yPsxVJwCI5tFRJu5pCbeLBL2rQwCnSCanSLpt1zS7Zpqetz06eOny6HOPdk02DAVrWMGK4nldSaOjRsa9nGlky9IkWko7KzSHDyE6carkul9NiqdV3yznCStI3X19MP6MoUgK3JJEY6optqfj3qSgrjjYfBxkINrrAtG2BtBNRadK+5vxckCMaExz6fcFoI/6xvcTzXrjYcj5fnOMMS2PN7GfJei9ROcUMObDkxOjPJt1Me1iPDsv3msazohWvBpunPR835phLFFdmX0TEX72noiGEKw6QeBcpzMh2t3ERlZ959oETvShonV3n2UZ6s0RpopGW/UgvMckLyFaO3yQB3ybeTrSsKb98WRO+D3eE9EpWR1nJtN051psWBJ9gGdZ5wOIlrSuX+zDXRAn2h/ECqX0UfU+s2lONDatBQmZ7K18u4n1Gi1NAj6iX5XoJI3ksom8ahrbpnG2xVLPJam8UupuUuN9RKdUINrWFL9AWNIqy0HxiUdxLfddIIeQrfJlJAnhrCwoJ90FLiRU1tVJwKOxzASbzC/K/bvKJWZS3ZLZKZmPD6Uu38KUEk9JeeBVrz3WhGipXF0K1SBrmErNHLjJh4FoBed+nWDIckgW8eB4sJeDAG1600i+QSr6AKJTCdES9Qt8HZQaqv3siYQV70WUpIshYmtImJiR35g4/BuGiZCQE8ohQFwRzZlNGhXJ02FnOWNMgYT8CuGlFmGPCI4h9WdE21q5mrwk6FUD27XWwfgton8FCY4QSbRTioyPTVyjMNGqqRUQLcvFhqbZ3YarMsnI+pFO4BY7BVANDrmkKeUQx+EvuUEjxwn6fd5y4GkmnHOCVDIhgOMgKnY6BbcPKhQluYyM2McdNn6n4roswFwf5VtEq6HbNLW49cM9EC0HbqcTsYGTwmsae3aN+vmbjH4E0fqSaCYVUaWpg38cfa0iLn0qF0c//bC529gcTLKdfmLU6sPvHn//fbpIUonnCP70/ffP0nlnSfQ4/ezZs+/HLBuCfD56mH6xOdr98ou9byuXRKudNHziu6+J00l/8cPgufNOouFWDsCW/jit/OpEo3722LKac7hxUmzgGHc9OmI58zWV8UssGkwQVV5QU8eNr8FHIxRsPfVbpodN07SHo1G9yC9G8r3S7LCcdRKi5VePZoetP59WuBMBtQFnZ1N4BdcjnUmvBVfQlNpr67xKlkW5/V5rNutd9OejFja3d/o3k6O3iEbqYlQz7VnGWR/RwV4rdxrIy7YsL2YAl2Hw4FENU/tRHsJysUElBduSD0TfcHScaJZ6vms8jGhFx+1C4kFhokcHFPRLY8wKTtHjR9u6UtNAOsIxrTsbLBzmTt1BK9ZKewFiDhjJ8zKlmB64XCfJTj2n42GG8SD35w3P1Goe7trU7JYa+YAHV7LvayD3tvJ+l1IFiH4Tx6+IluhJFfEoiqLTnBYrZ50kvVsH0cjJ/Ln83EHLKJ4kGmB6xc2aYmMcn1cQ+FRq29i0/Tz42GuW/+FESxIQTZJUQJY7lokxHlTAXVf2RrSrS+bMaJ8YJbum49qTDmhQ1N9rxbbSjPiTRUF9qGGP+tVkeNG5Dr5oC54AceZtU4pxrj0YHLZMRTHPqsxp8wVYCh795dyGRE0p7UDedn3SJhYtnSwIVwnu89cmjq2Nfrg+i5bdbFJ5IJxnh7AgrZILSzEVSZfaf5DJioheZgFycGSwRPof/TDVz5Qx1aXD5tE8n8889T2Termpy4iaG7GptxcwKhhjNFBimFTgp3jtuNOm8KDGEEfV6pdmrMe7jxdjt5M58ySzNKmwVIUTLW3+9ZDCM2j6EzClnxHt6e2/QAzubGVfDCm1rUy0vLt1EM3WcDgqWhbmovzLjQJhM/LCwoqmKebJ1witgGjuOlCyFGqr4emUFUkQWbSpqeh+uuhAvuBED3ZNs4bBM4NhFc4UUzM2ePlaXbQlRVJ08HEw9UL2EOjsH/0UCqNJCcfds/0+gRTNmY/sGrb24eMqJ1rXdOynO67b+RvLA992HYpWO/vy7KzdBpUQN87zlUvvshbXkegznvuTztQ4bLVfQuhFF2Vb0nSbtgspRjQGopVPs+gim6UkiOab1PSk0rkLL3aGumIa6Yh11eGPszEyIY8cuPA1wcTr6sO9gPWcnOzM9v6uSfbADeFUPz2kWntOYBbme9hTTuZg6EypRP94XaP0tM/mJxAtSVQ52QggR2TtBlV9m2id4i7Gkilh8Bt//bFyVSZfC9EhW6PE1RVxpyDhqPToW4JSD8uSxEbKBF1xF4KXbpq/nGgb64ff5i/y+flR88SkmhQ/egi31fFtW9o+j1Su6uAylVPw09TaZ2I9M8N6a8BKl6gymdVe/zPnKX4VCEVRk0oQS8FIoqcQSbvfRNwlqcipWnYstV+xN+37YLF6Lh0k/b/UzdQo8dE2xbFpe56JJW23PWEmjfjUXoePZssX+SgRybepp0AAnIAUYEQD1dgvgMBgRGufQHTOlCTP8H3fsgy4qzi2/QcBfOOGQWuSMSdXhUFn/38kDx8+BqFBqj7VsMU1cnFTqTV/3FV047+s+t3xqQ2uWEVhse11sTVXExWJQrfhebhdJeGS6O3dV+qtY1tKcJozAIeHJTOOu8NefczasWq4DqLBXKr5KgiTUCZZI7Y909QOKqp8wYmWVkO0YYMRYxpDCAOByRx2FngGaV+isd4oXDWbIcE5AKZKOxW4eDSgwGwWQpicH4Fp/mtKaa4esDhpYTMHcRGFeUPStcaPlUolqjD864XXhScnL4nWS5B53zqoJdG7zzY2NrIPjiY+jEQzZ6d8We1aLJp0vmmXy0+roHWdB7NY0yWsH/TlpUWviOhD01Q0djVc08zudvnpRcBaB5WfqK5Jn7vhZT4AT31aqunKAO4X9dM5U2vtwc0G6Rlt54N0CdtfuKCt00PJPKmCW3ayBiTL3udvEJu4Nnt5adH6YfZG9vwW0bpnLVjH2On3O+k2lhSznA1YSWUNPhq50xJEutwTcMVAtA5x2rQPwFctLZquiGi4C2NmGUa5Zx3v5V2Qb+BH3S9ivTbciRIdw4kGI5d0pRGBtZL8CY3NY5eEUdOLN8do7pvgSuSwco4luxnBR5yjITZpF5eGpZJpDj27ZNIl0TIjGvf271hCsvTR1iLJOCHn/JNBtRjiMK8LrJZoUP9gExbWgMRyhsjOAwMIlSTlAAxqadFSEgyx4n0S0ZImNZ7NN+bz/Xwn4iKN1TzdQRybQ97evbyAszeUPMlyWT2r2MYaqxijxYlXAvE6bpj2KEvCwqEWD58zsUyODu1ubCq2AvmDYto2pDOKZiREWyBIrId3LHpNiGYhINlVCXLiBTY13cpDnqmug+h0DrQ1NkufBeA6wEfbkGsA0ZeuQ1kR0SyPJg5MU/XSIUOa4TZxbJf2+rzSzN+qOnslBczXZaqpcgqSHDQKOIgaK6kEk6G9De/O97QYCAEGyVFLU+LaJsPx5iXOXkKGjoBoT7cgt7mbaIXVo5MvTqnB46Gp08Msm2rrILoORNuS2fqsslaiEwmeSkr5yWFZrTRNrbb9OXcdyytWJqWuxnQ/kzZZg5q5z4Jgp6S1F3JIMv/RtwcR2IamnIH3gceSmVFJO/uxeIXxuFAYf0VYegcW/cFEs2JwFgKrdPjcWRfRQ5bF6a3PApms26J5yUq+3AmjqsFpTqvFx6wWurwAGT/RbS4AQ7h8B3yHvhnB12uQa6dIvqxp1iI6rym5PVYGU1Ms/zDbCyYGkio0WwqV9FmWRMsfRrSskgwQjXNHayM6F2ua9DOi0cot2i8g3iFBy9I+/B/ujUqxke9frvBgqXzNxEbGgQQNhMkU63Zvse+z9h1I7+hA6Robr3zNtjbAO8Dwqz54//KG82YA3N+zIvrHEa32mVbSIZ0kqyeaddOAaE2HlI4RDa5Dw7ayHtchsfRlmVok94Zk8tCnWMlNIItnHWDINII6yD/JXzAXA4M7Kumm8eBxTrMehmD1wTdDqfTvv4y0brvDuiIqcY8h/W095RKe973Ysjm+HedDiK7p1iIpkauov9WQ7DjuVdmH10L0UGeJBvhoxIgGaciIVldMNFwUiL6xU5E1V9wX27TrtTN9OeQL34P5CUi04SSS+eInOd+jePuznzy8OQ7ZZMjOtPjFP3cleAeELyAIHoyk241MRU2FfNl8Su7/AfF4dkn07Xv2GNF2F58sSLLoKli8ULxurHwesQbBr0G0vR6ipZ8RDTyFzrxNQRu2jyIHPCuJ5sc6xdTK85wE/ioOIPf8+w+8nMzqBAtLoZv/u41nGTbB2aGq35VwrZ35FyuJENUJOnvPnSuipXcSrUhaeyuKItcdL47OtiHbi9vgxljq+Xsims191tgAUaIY08zDztbGzokHrsRIB+GyxtSvDxXWFZ5tEO7go6aJtW0qtau8as7l439MrMezabYKOcdiftooH/WvWzR5B9GK2R28ePH5580D6xC+GGsn6T7vf6zHR/8aREuJ61CvW7TKKvHF6TbFOqWHZas8yym0azZOXdYh4P6czC3bwyZudxjtoATTLVOjsdd0uUtm3bfi9DU2QasYo80fznxjSFtvLNp8D9GepDMxub2NMdVqpt6uR8zJJ0TbKyRaZt23oaLFWre0Lh/Nyq8ZA+iB9O7mwiTGQCiPJz0M9ylB6oNtsG5rz5Uvd9Yh1Nk1ISUaTivJag513qN6jIfpPlvfwVoviBTODdOONbiE53VNjGegGVnDiwkWaXRx13ZIIFr3ajUFUKt5ilZTWmfZiP3CAFsiAkRrjOgV8YySNqcC3ObWZdFgxU6mN8y1LEb0LYtHopeb/hBEmWJ73rA82IiuraQMo6czOsyVjy7XZnWs4bA0e5Qnb3abqMW0n7NZE9LuekNjd6fKVyaR/UetYau3paJbxwZqCC41HLYYSq3/6bXPM8X+5UJ0das3bM3KKyQ65UCaDoIlbv07WBPRgL/Vv6vX61/duvWGkODVxumgUS6fnDX35q5zI14683oaPlpddpjC4Ahe/7tevFo7wEJkv5OZHrRPylZjsJNZREkBWq3C59L1zuWKnLfvnTzkg6rzd6Uz8wXbZbaUPSlSgKPf1f+7ot8s4fthLk66WJJMVjtYE9Ep2XH6juOotzg8buNhKnALi0VnzH5l6Hq/SUUhW8Ua9JMvBcmCnMCBPywVvLwab4FFxU6VLVUK2G9C8cwZqYHD3yrfSjRLDQM2qgS8w6Neba2Rlx9e0VYbmddSMn4Jv/bTMGPX4qO56SG+oij8ubtkkpz1VxLBwbXDDRuCI2EYLqcCC1TsNd+19Ibo5eLGq/CY7I9Ey7ZR6vZ4hpJFlClerk5iL8snL9sxKm+2r25zMFurX8mfTk/nEVus9mBEcezZGihDcnEr0UwmqHx5IY9YIMyA6PcsvlWTPUZcZt+yD1pe7vNDyZ606/4l+aEF+bLPxd/K+bv+eV6nWEpvXrTiZ3mdSlXv3JzHl6epyTJVvsY12QJ3gxk59e4lWB8HYADmEF+PS/4L8bvWNWkzuEuCE5lbFSeFbWI5xu8nWoCDm6bMFrmqpPOlibux1j5y7qx1sNhTYEvKCSN64bOOtSD6QyAn85E5LBRsWLSFT6bF1F0+GqZXUO819ubFioOIO8mZjVcIvctHCyyBrlb2s45d/pvB9KjImjmJj9bfdh2psOJTM+dv7szz8+lQN1hbWvyq1YcBvdluRQK3wha4ErBoXQMZQH3IWYsNLCkaxkA0eI66NTMpbRmj2R/N7WYRCYv+ZeAJkSovLGraUozbrowKDaxLGpZGQLSqRtWjZvk/NTipzM4Xt69PEfgA8E4piqavMVXs4V6QkoFoCYhWRnm+TlN2okXmvGE0mi8jdSXS6f8jkp0MkC0vNg9bLeMcPMelRTOiE0eBQDgXOsXIufcfKfjNIimrsHomKTz/aZIZM4F0adFMGTLXol7F0JT4odhPQrJzLNkty4mmmqdR07rgW1jQ8gdFks2A9z3W3xGQO23Rmqd3j4s3I5+gebWQSb431CjuZftvnxFErxTIyZ+3ywcb0dsnBM+rBUKq2+ncqMkLrAPJfgPxk4ICAgICAgICAgICAgICAgICAgICAgICAgICAgICAgICAgICAgICAgICAgICAgICAr8p/B8z46DoWKaQ+gAAAABJRU5ErkJggg==;" vertex="1" parent="1">
          <mxGeometry x="720" y="212.67000000000002" width="60" height="23.33" as="geometry" />
        </mxCell>
        <mxCell id="KDu9IRebR6RD1mSpAzbL-6" value="" style="rounded=0;whiteSpace=wrap;html=1;" vertex="1" parent="1">
          <mxGeometry x="30" y="100" width="350" height="450" as="geometry" />
        </mxCell>
        <mxCell id="KDu9IRebR6RD1mSpAzbL-29" style="edgeStyle=orthogonalEdgeStyle;rounded=0;orthogonalLoop=1;jettySize=auto;html=1;fontSize=10;strokeColor=#0000FF;" edge="1" parent="1" source="KDu9IRebR6RD1mSpAzbL-7" target="KDu9IRebR6RD1mSpAzbL-8">
          <mxGeometry relative="1" as="geometry" />
        </mxCell>
        <mxCell id="KDu9IRebR6RD1mSpAzbL-7" value="" style="shape=image;verticalLabelPosition=bottom;labelBackgroundColor=#ffffff;verticalAlign=top;aspect=fixed;imageAspect=0;image=data:image/png,iVBORw0KGgoAAAANSUhEUgAAAHEAAADfCAYAAADBaDxOAAAgAElEQVR4Ae19d3hVxfY23/M93z+/P27vv1vUq9LTi4WOiAV7Q1QEFYEUSDspdBS9ol5REQGVIh3pNSEhvZDe6TX0kt6TU97veWefOdk5OQSQI8k57Mkz2WVmT1nvXmvWWjNndg9oweEp0MPhe6B1ABqITvASWEBs1lfgXPUunC7fgjMVWuyONCir3IZzlXthMDa3e/UsIF6uScOeU49jfc4QrM8ZqsXuSIO8IdiQNwSNrZeuB2Iq1uUMRk3jMeiN9VrshjQ4VxmNNVmD0dAZiGuzB6Ox9Uo7lLWL7kOBSzWpNwdifcv57tNqrSXtKHCxOlEDsR1FHPBCA9EBQbNusgaiNUUc8FoD0QFBs26ynUA0AVBH62pu/VpvbERZ5S5UNpTe+sN32RO3DWJ14xEkHp2AuKOvYd+Rl5B1Jhx1zWc6JSM9C3VNpzt4GNQP1TWfx/rsocgv+1B9Wzu3QYHbBrGscjc2lwzD/qNv4MApHTYXDUfsoTHQG5vM1XXk0Ms1SViXMwRXqjOtmiTzQhiuWwpGovj8lyout8quXQoK2AVEeguu1uYKYscdGoutBSPRaqhDdeMxpJx8H9FHnsG+w6/iWm0OaptOY0fRM9hUPAy7jzyJ4nMECbhcnYG4I2Ow9/AonLi6Ds36cmwvfBqpJyYj7vCbiD70Ii7VJGuw2aDAbYN4tnKvMDSTjo9Hztlp2Jg7HIcuLhFVMS3nbCQKzn2EmMMvYkfRKAHigVMRWJ83BFlng3ChKh41jaewtfBx7D82GsWX5iH79AxUNx7H9sJR2Fz4GLLPzMSu0lHYVfycisNt9OYuvXXbIJZV7sXa7CHYUfwk9pS+gN0HRyH+6Ftoar2GxtYLyDk7HTuLR2Fr8QhszBkOvbEBFfUFWJszGBV1JYLs5Dy69irrD4lrg6kFdc3nBEfnnpkr7pWeX4R12UPRpLn/OryqdgBxj+BEznYwXK7JEqKyrGIPcs7Mxk/5w3GyfCNST/phQ84wtBpqcak6EevyhuBqbYF45tjV1aIMcqQSTKhvuSBALD6/QNw6dPFbAWJj62VzHu0gKWAHEHdhff4QZJ+ZhlPXNiLrTCg25A1DRX0RMk4GY3PhCJyt3IP9R97AuuwhaDHU4FpdHjYWDEX+hekiX2V9KX7KH4bUU5NwunI98svm4VpdPrYWPIGCs5+Itpac/0oAbT3dIjtyNx9vG8SrdTlCAdlSNAKbCoZj76Hncbp8m6Dptbpccc1xMvHYu9hb+go4yWw0tSL9RBhiTj+JgrOfirwnrm7AtqKR2FQ4HEXnvhCzJtEHX7WMr0cvr8C2wqfRpL92N+Nls++3DSJL5RhGk8JgaoLRqG9XkcHYarEHlZlnmhFKEPlNrfJS5GszTSCuTSalPKNJr1wLp4LlEe0EgF1A1CjZtRTQQOxa+tuldg1Eu5CxawvRQOxa+tuldg1Eu5CxawvRQOxa+tuldg1Eu5CxawvRQOxa+tuldg1Eu5CxawvRQOxa+tuldg1Eu5CxawvRQOxa+tuldg1Eu5CxawvRQOxa+tuldg1Eu5CxawvRQOxa+tuldg1Eu5CxawvRQOxa+tuldg1Eu5CxawvRQOxa+tuldg1Eu5CxawvRQOxa+tuldg1Eu5CxawvRQOxa+tuldg1Eu5CxawvRQOxa+tuldruBaFmcbzKaf9lr3T5LDusEx7w2mQCTASaYYLhOj+9Ux+wGIqHTQtdQwG4gWvMZQW3jyfZXN+oqy+IbfqO/G5XD9BuVcSvp7BHzszcW7qPkET/6MSgbiNxMo+ycx24gtvuxElFgT+VNBZVbaLosQIJv68g8NxNsPftz7lF06sH/fFrULvql3DdRvFoSbqZd9stjdxDb+sEe8mdrfGedJyivDsdDW33iz/BsJtjKbLd7dgORgoZBr7CguYHyjbdbe7ttQaL35MYuCHYD0WRqEc1vMAGrYgoQtjgF01cWYNrKPET9mIuoH7MQ+eMBRP2YKc6VYyYiV7ZFmTZtZRamrcyGcuS57cgy5TNt5+rymX7jaLt81t8Wo37MRsQqlnUAEavzELk6B9NW5SByZS6CF+1DUuGJrmBCQXO7gQjzL4QbTcD7C6LxwFvb4DY1A64BqXDxT4WriElwDUiAa2CCcpTngYlwDUyE2xSmJcI1gPmSO4+BSXCb0vYMz2W5LgHKuXJkeclwDTRHWS6v5bmto8wvjilwDUxVyhBtToHrlBT0D0hGr3e2YuI3cThdUdMFglRhe/uBaJYkLSYT/JckwCUwAT7TiuEbkQufiHz46IrgoyuEd3g+vMPzzMe2c5FHpBXAJ+JmY75SdngBfMJ5XqCUq2O5tiLz2YhW9Xkzj+WeLLcQ3mGF8A3Pga8uG95h+eg3MRaTFqfgUqPyk3Wjo4tTjn4MzTAiYGmyeEu9I4vhE54Dn4hceIcXwltXAB9dgTh6k9C6fIWoYUXwDiuGN4EOl+mF8NHlwluXBx/mC8sz5+dzSh6RN6xAEJTlirLD+BxfGuU5UY8ZUJYnylQBLPKGs30sX3kZeK68VCyzED68FpHt5Xk2XCbHYdLXqbhY06AYMgYThIZqpsOdPNiNE+WQThD9lyTDZXICfCLNHCKIVgSfCBLE/JaHKxxKjiGhfMNLIThAcAq5ljFHEMxXlwPfsFwzFxEcchyBJLgKeIK4BC6sCL7hefCNzFYBYW4HyyCQkazbDJQuV3CX4GJdsVI2pUckwSoU5Slcznx58I0ogcvkRIz9LBany2sEVkaToausC1G/3UCUA0IzTJj8XSJc/GLha+YO+fb6RigizjeC4JCQBYLYvpGZ8I3IBo8+ETnwjcoSR2/mYVpUthCPiogj8cnd2fAWACjijhwvRLfknMhcUBIIsAXQhfDSlSp1RmQJzhP1U1KwHvGiEew8IS4pPQR4Oor+QnhHFMM7shD9/ZPw+vx4nLpWLQhoMBrNANLsoIkhZdKd48VfAEQjJn+XBJeABPiGF8FXlwff8CwBkjcJrMuHZ0gmPIKz4RGcC8/QTHhxjBGAZSlcYgZRIWw2PMPS4RGSDY+gPHgGZcIrNFOIaT6jcFwOvMJYXhY8QjLhGZYGz9AMuAfnwD0oA54hWfCKKIF3xGGINggRnw+fyByL2FXqUsZYjnuKODZzcEQufKMKBIAvfhSDE1cVAI3EjSKI/0Sk90bKJEcE0cyK5MSAJUno758Mn8gS5c0mh4VnwzUwE/394vCwLh5PzE7BEzPTMSg8GZ5Tk9HfLw0uganwiqAYzBEvgI/uILxDMjFkejye/jAZT81JxqgPEjF8VjK8Qw4oIpFiMzwbA6JSMHJOMp6ck4An58bjqbkJeGp2Ip6YlYiHQ/ejv18i3IOYlxyWrYhVjrlUYCjSed8sYsl5PuEU/wXwDc8W0cU/Hi98sAellysFOmJ/HQEccbM44e4ccqqa7MeJZinSBCMCCaJfijIGRubDPTgT7n578M7CdHwVXYI9JVdQfKkJRReakXikBquTz2Dh7sOY+dNhjPwwEz66NPiG58MzuBAPTY3BmsyTOFLZgqKrDThS0Yy4Y5V4LCJOlEsOcfVLwvtL03GwvAmHrzSi9GojSq804eCVRpRcbsbeosv4dFshnpkdA1e/fYKLH9IRnByLFiu1Y46D3uFS7FLEZ8HVbz9enLsPpRerBOmEY8NIX6nijeK14lVVUfYOntodxEazYtN/chI4BnrpcuA1dT8+3VaAa83m3aMsIofXbWNIjdGE9xYXCnuMXOHin4bxC5JRp5dvOo8K4Wb8mAsXvyT4Rhai73uxCFsh90JleTIyb9sOV0cuVWLs57Fw8d8vlCaOzVRWvKQ2GkaliSAWwScyS4hqjoFPz4lFyblyAYtBetyEGKV9zzGxVZmQuvOSVLTJfiCKeUSgCSb4LUlBf0HgIgFI6PIs4UVljXoxkChkboARLSoQS86XY1BkLDzCOMYVwj0gHkvjjyvvtJgsMMGkVyiVcPgqHgmJhWdYHvpN3I+g5SmQn7syCMdDG3hypoIFna6qw8ufxAvjXWifVGh0+UKZof0nFBqOlZF5QrxTPGeXKRzIVov3zwwgXxVlNpG7LLfVpzT4zv23G4iSuQhKwOIUwSUcbzymxmJblnlPcKMJTXoTfko/iqg1aYhYk40Z6w7gs60HsLPoPOZsyYfn1Dj4ROXCPSgLj0/bh4PldWYQza+5mXEr9QaM+yIR7sHZ6Dd5P4JXpEJx/HGvOQOqGxtRVlGPc+W1aGhVtEa9UZEEO/POwz1gn5ASVGB8acTTjOH4GqVouS5+KRg2bT/ST1aI+hUzwuwhNjdFHMTLy5kMBnOC0uI79t9uIJppixaYELgkES7+ifAIycGQGRlIP11r6eDJy5V41H8t7n9jM/pPikP/SfvhOjkWD4Ul4KHwRHiHZsE7lNyVgmmr8kEPEF8Qg8GIqtZmNLS0wGTQC3KtSDghXG/9/GIRvCxVEbQmZXxan3ECwyKiMVi3B6E/pOByTT1MZmlx/FoDnpmXBo+QA/CNoPZsNlMiqe3mwS0gDY9FxSLnnNzHXMFDPG8uw4IQcZPRcvPOntgdRI4OAUsT4OKfBK+wEnhOScG2fOU7UwSjrrkFi3fk4Nk50XCfQvdcpuAmt+AD8IrMxUNRNCNy8FBQDGKK5afkDKhp0mP26hTknrwAmAl56FIdRs5KQu93dyBkRYpQLkg+0nRp4kn0nhCH/v5p6Dt+M6Lz2r4QUKE3YcL3uXAJjBcmDcduaXu6BaZg5IwkpB+vRsL+WHy5YAEWL16MY0ePKciYTKioqMCBzMw2vjOD2NDQiNWrV+PLL7/EwoULxXM8ZywqKrIge/jwYZw8edJyfbsndgNRmSoFWoXvlCZGklAQ3AJSMGdjoTJiCG1OUUzOVNZhw4HTmL2hEC99sBOPhMYIQKneuwWk4635cShvZV5l5Dl8sQ4PB2zD93GHLKMoaTdnbRbuf2sjglZmiAlbKj68/0PCCfSZsE+A6OG3CwkH2z5Ydq3FhPGLiuAakCI4kebFQ5H5cJuajqHT4hFTchWff/4pQoOm4qeffsLqNWvw5htvIC4uTtA7Ly8PEyZM6OBma25uxr59+8QzkZGRGDx4sDhnGSdOnLBg9d577yE6OtpyfbsndgNRao16k0mMif39U4RyQMN+QEg0NmSeMiseJLEUvgrJrzU0Iq70Mt5flAfv4DT0ez8B3+45LHIp/hBgWfxB9H13GyYvTkK9Sn4lH7uKfu//hIBl6UJHlO2IzT+H8Z8nY+LXWViecAw11HDFmGhC6cVaPDY9Ax5TFZcfnQZuUzIxQLcfew9W4ETZabz80gtobDKPxwASExOxe/duQW9yVVBQUAcQ1WBkZGQgPDxcfUucE8zRo0ejslKxNztk+Bk37Aiiop1R+wxYQgd4Enyj6NLKgfvUHDwcHIMZ67OQeOQyzjfqbepyNQYjPtlegqHBW5B9SlHpqVlWthgwYWkqer8XjWEzE5ErtEVFhl1uMuK5eXsweVGMWQM2gmZAg96EivoWNDSbXxiKYKOi+nyfcARuAXHwDi2ET0QR3IPS8XDQbmwyK2Anjh/D8OHDkJ2XY5OkhYWFNwSRXDt16tQOz2/duhX/+c9/Oty/nRt2A9Fott+oiPh9z7EuTvg8FYP6ENyC8hRXXGgcxixIxbQV6dicfhLXGprFIKbXK8S+XFWD1dHpqG1phdGgiN6Ss1fxaOB69B63Gw++uQ7rkw8rfabZAeDTjfGY8uUW84vRKuy2Nl7nWdtVysmrGD4jGu5TU4RG6h6cgYfD9mJV8lFljDOPt+s3rMOAQYMwNTgYsfv2obmxTcm5HRDnzZuHmJiY28Gsw7N2A1GKsWaCuJQOcI6JxeJN9wnNhk9IKvr7JaDfxHj0m8S4Hz3f3gD/L7ajuqlVAMClHUZDIxpb6mAwGWEiSxlpLjRjXUIhFm49gO93Z+PY5SoFFiIIoOjkWXy6Jga1wpTQA1YfSGaemuZW7MorwzMfxsM9KBU+4cVwnZIBd//tWJF81PwKsj5zoQDOnT2LZT8swxtvvIERI0bgwIEDSn03IU5tceKlS5fg7++Pa9fsu4+5HUFUOt9IY39pKlwmJsMnvBQeodl4dk4MtuSewZzVaRi3IA1Dp6VgYFQKnvkgDgs3JaOmkRNY3PPbQFtCeGU4FhrJaVRueF8VqLo0m4BWs/ukpq4e2YePK/YgOclkxMFz17AqqRRr045gedIRjP8qC57+0fAMTsFD04rhGVYCd78YfLM9S1GFaMpwRsJkQkurHq0tZu+Sud61a1bj+eefR319PQ4ePHhDcbp//36RR9VsocxMmTJFfcsu5/YD0fwC02PjT48NQYw4BJeAFESsPGAWaEZcbmxBwZkq5J2qQFkFIVdefgtOdGsZTTAYTaCEbeOL9mKRVy16ch3HVxP0JiP09OaYOWnF/iPoOXYz+k6MFv5S14AMeAbToZ0LT10W3ANi8OX2fOE0E5SkK9TsDTp2/ASCg0PQ2irdB0BFxVW8+uqrqKqqwqFDhxAaGtopALm5uR0Um//+979CW+30wZ+RaDcQpceGsxj+S+Ph4rcfXrpisV5mU95Zc9MEv6nGKAkR7wNNra1o1esFRxA+8h/HzbnrCrA+/SISjzVgZ1EVvtxRik/XpeFibb1iFRqItglGimDz67Iq9TzcpmbBU8cVA9RCOXdZCE9dHlwn7cT8jQfQaqAyZnaGkoMNinnS1NQEP38/fPDBHOTk5AibMDAwEB999JHQSIuLi/HCCy8gOztbpDMPzQ5yqQxZWVkICAiQl2hsbBSKzqlT8gMulqTbPrE7iDT2/b+jb3IfvCPoA83AB9sPo+RCLejgrjUZwJkO+jkpROthxIVGA3Zmnca6uCJUN9Pno6giV1pa8eqHe9FnQhy8g5IxMDwVj+rS4Oa3H56TNiHphNklZl7hqpSpPLsy4yI8gtIVR3cYvTKFcA/JgmvAbny8KQctBJ7uATEbQTryBVBm6HnV3NyEpUsXIzxch5kzZ2Lbtm0wUr6DXFmBWbNmCU6jGcE4ffp0nDt3TqTzH8937dpluY6Pj0dUVBQMZmXNkmCHE7uBKOWeMPaXJoHzb76RnOrhZG0iRs5NFr7OdxfEQrcsEx9vLMTMlamYsCAar8xPhU9ANF7/PAcfbzuMT37KxydbiqFbW4KBEYnwCjsAL5oqITnwDC2Ad2g2vIITMe6rHMzfVISPNhbjo02F+GhDLj5an4f5W4vx7qI8eIZkCA3UO7QAnmFFcJkcjbmbcsCZFhEMNEfuzCTSypUrhTfHDph1KMJuIErBSO7y40Ipv2T4hiljEDmSfkp6Ytz8U+AWmA63KWnwmJoKtwAuO0wTzmiP0Cxx7j41Fe5Tk+A2lcoRHdP0aXJ1AO1Oush4nQnPkDS4T+FSwnS4TU0TZbn7J8M9IBWewQfE+Mc1PR6huXDxj8Os9fmoE5ygiFAOnxxPzZB2II6j3LAbiGb/vhCRfks5FZUGXx2XZ3DGXFl24R1eAu8wLpMoEDMVPpGcPSgSi50UgJR1M16qpY2crKUyosywE0QutOLSCq6/4bKObHiFFSgxvBieulJRvuLYLoZXeAH6++1DxKoDqBdKLkWoIrKVH8fwv2MH+4FopoT0nYo1NlHZYm0NFzUpK8wKQeC8Izjhyhn8PPNSRS6RUGbauTTRJ0xZoihWtYmVbeQ+8+o0zjqYF1p5czETvUJctkjvS2QBvCO4sIlLMIrEwqh+E3chZEUGqpsVjxKXFRr5wxj+tpDzjvTnSq3MQbH8RUAMoInhnwzfaYroU1aikYuURcNiPQuXI3KNaBjXpirrTeU1Z9vFOhixEo0r2+S6T3KhuQyxRpQKi3kJI68j6MjOhS8nlUML0G9SIqb+kIHyJsXmMxoV0WlQjBJFCxbKimPzot1AlG9zCwwIXJqO/v6Z8I4oVdaUygXAFK/hnEVnzFVmEIS4pMjkYiWCLrlOEZvKEgquujbP+4l8XDXHxUwUq2bxSg4V62by4SWUmH3wW5yGyw1mAAUHcsJY0UKFDiuXWlhxoF6vx+zZszF58mThYZk4cSKWL19u0U5l9r179yIkJETk4axFbGysTBLHtWvXitkOemlo5NPlRvtRHVpaWrBs2TL4+fkJk2TJkiWoq2tzvKvzXu/cfiAKa90kxsRJi5LRe0IGPMLoscmHZ2gePEIL4S6uC+ARzJgHj5A8eOjy4RGWC08uOQzNUo5hVEaKxTMeoXnK8yEF4ugZmg3PkBylDOaj8R5GrTVX3Hefmic4cPzCVJyv5upsQG+gP5U2oPLXZhuqnQltJKqpqcHrr7+O/Px8YSpw/o/TR+vWrbNk4nzh22+/LWxFmhME58UXXxS2pMxE04OmCdPPnj2L9evX48knn2xXDm1POg5Onz6N8+fP44MPPkBERESHF0aWaetoPxBF6Sahvoct3Q+fSTswMGw/HtXtx4DweAwIj8WA8DhxPjA0HoNC4zEwLMGSNlAXg4G6fRioi8MAXSwGimdUz+kSRNogXTQGMW+Yku/R8H1Kft0+DAhLgG9ADN7/KgXHKhqV/gpuow5qUGb2Of7RxSb+mIWitL04JYjkwupqZX0pc23fvl1wC88JGI19em/U4cqVK3j88cdRUqJ8ZnfOnDmg0a8OnIoaNWqUmF+k3fnSSy+1myCmU4DOg1v5SYDdQKTiR3+nwaRH6ZlLSCw6jeTSM0goPYv40nNILi0T10mlZ5FSWobU0jIklZ5DYuk5yHsppWeRbIl8Rj6n5GVaUmkZEkUelleGxBI+r+RLKD2PhOKzuFSteE7MExKiXcIaJFbCniCEFLO2f91LEN9//33Qu0LRRg6hwb9p0yaBxxdffAG60GwFTjNRJDIQxPT09A7ZKKppNzLQE0Rxe/nyz//Mrt1AbHuf27/VHXpwx260tcPSNssJG2FOb8tmaRndbs8++yzGjh0LjocUrRzT5ETu559/LsSk5QHVCZdn0JvDMHfuXJsg/vDDD/jwww9FHnI75x3JkQSUM/4ck28l2A3EW6m0u+clJ06aNAmcOqKbjCKO4JD7KOY+++wzUGmxFb7//nt8/PHHIul6nPjNN9+IMtTPX716FQT3qaeeQnBwMPgi3WzQQLRBKQkiCSsD75EzyY1r1qy57iwGOXbz5s3iseuBSO6mX5Vj4pEjR9Da2jbtRW31ueeeQ1JSkqz6hkcNRBskoojjOKUmLtfVUKxyjKRC88orr1jW3MgiNm7ciJEjR1oUHopTqeQwD0H78ccf8dZbb4kZD16PGzcONFVkqK2txZgxY4TWK+/d6KiBaINCDQ0NYkzkuEXRRxuR5sSePXssubnkkGMYRSzTv/76azF+cq5RBtqFzPPVV1+JJYxUaMipZ860LZ/k6jhyOEU0y+DLM3/+/K7RTmXDneXIpRjkLNp2NOKtjXT2k/OHTJORSxbV4dixY0KjZRksKzMzU51sOSeozLNhwwZhm1oSbvJE48SbJFR3zuZQIJpa2mbOuzNR73TbHAZEY2sL9Odz0ZSz/E7TqNvX5xAgNuVEozF5M8iJNYtHoTH5q25P2DvZwG4PYlNJCire9UJzkWI3NcTPR2WYK5qylt1JOnXruro1iM0H03FtjBsq/AbA1Ko4tPUXClA1xxOV09zQlPlDtybunWpctwWxuTQN5e944toTD6Lmh8g2ehhaUbv8JVRGuKJqpgeaMr9vS7tLz7oliM2l6Sh/xwvlL/RE+Su90Zi+rR08jckLBCdWzXJH1Ux3NB74rl363XbR7UBsLk5BxTueKH+pF8pf642K97ygv3K6HS76S0WomueFqrnuEEDOuLuB7FYgNpekomK8J8pf7IXyN/uIY9W819qmjSSUhlbULHtF4cYPPdqAzFgqc9xVx24DouBAAkgOJIBv9EH5C71Qt+kLm4A0pn6lgPiBB6oYZ7uj6i7lyG4BYnNpqiJCJQcSwNd7o3xMXzQfyrAJov5CIao+9EbVHHcFRHKkBci7iyO7HMTm4iRUjPNoE6EEkJz4ci9UBg2FsV7ZybADkka9oqVOd1NAvIs5sktBFCJ0nHt7AAmiEKU9UbOo89/yNaZ83V6kEkg5Rs70QOOB2+NIzu0dPXoUpaWlIpaXKz9Bly8UF0bxt4pMZz7r2XiuAmAe6/vyec4nXrx4EdazHzL9Zo9dBqICoNUYKAEc01uMjQ0Jazrth/5SCarmqUSq5EYpWoX58fOB5KInTv5yuQQjfzHMlWgMnBzmuhiuF5XpXFzFJYoy8CVwc3ODTqeTt9od+XO4e++9t8N61XaZbuKiS0BURKh7eyVGAsgjTYt33KE/f7TzLhiaUbvcrKVKAOVRciSVnYxvOy/nOqmffPIJUlNTLamcwOXkMGf8uUyDyyzUP1XjHOTTTz9tWZ7Bn3U/88wzAmyuK7UOnFDmmhq5K4d1+s1e33EQm4sSlTFQrYWqAZSmxaznLT/zbm4xIa9Yj4qqjkvTLFrqXLOWKkGURzoECGTaopuliSUfZ9vT0tIs15y8JWdy5p9LOLiYynrtKSeP+Yticip/x8g8nKnnhkTqwBUAnOnnEg7uqHE74Y6C2FyYgIq3O+FACeYLPVG77iNLv66UG9FzSD3ue7QeE0MbsfqnZhw+rkdTiwnG+mJUf+GDKoJI7pPgqY9Sa02/NY7k6mwu0eCipp07dyIsLMzCNRwfbYHIhU7cqKigoAAUp1xDQ7HJvOqFV1wRxzK5JEMurLJ0+BZP7hiIN+RACSBNi9F9wPwynLtoxG99GtDjngb0uK8BPf7dgP9xbcCwlxsw87M6bI4MxLFIT1R94onqT73EseojK1B/BkdySf0777wjliCS6FwfKn9vQVFpC0S2metqEhISBDdyUZT8ZfGKFStEl6jM8GcB5FYuRHYIEJtyo1FBLfRllSEvQbM+vtwLFf6PwlDVtlzw6AkD/sejAT16NqBH38Gm9/MAAA75SURBVAb06N2AHg+aASWoPWvxvy4H8dzAtfj4lWDEBIzA4RneuKbmRssY6YbG1IUw6W+8rpPiVL0uhmDwd/gUhVxfYwtEaqLvvvuu0FjJiVSGKHr5+34qPgxcSyPXplJ56vYg6q+dw+WxHrj2bE9UvN23zRtjDZ68fqEXqhdMaOdqyy1qxf/pX6+A2KcBPRgJpgS0VwN6PKBwKLn0//a8iBEPb8fq8a+inEBKMcvjTHdURrmh5eg+QdDO/n366acWzpP5qIlSEaHYJIgESB2Sk5PFtl8EkyKXIMpFyPx9B5+luKVZwuAQIJr0Lbiy/iscHnE/zj77IK4SrLfMBr0ETh5pWrzYC/Ux7Sd8U7P0CmDkRHIhQZOxdwN+3/sEfD3jMG7EN/jsNX9snzQKeWEPo2yWJyrV3DhXAbB2axCMDe1tPjUQ8pzcIjfl4z3uJEWzQv5GgxxHkSgDAeQvo7iHDQPBoyIkN2Tg2NqrVy/xczj5DMdcroS7nXDHxsSLG5cif8A9KBl2H04+9wAuvWYWrWpAX+uN8rdd0HqquF2ftke3inGQ4vT/9bmIXv1y8ILHSswaoMPGkc8g63kvXAh0QfXnXqj+zAvV8z1R9bFnGwcSSAIY6Yr67WGAoW1/mnYVWV0sWLAAL7/8suA4ch21zh07dohc1FA53hFIpnG85I9uuDGfDBw3eZ9gMhDwxx57TOzEKPN8++237RYPy/u3crxjILJRlzYtQf7A+5A/8B4UjbgPR566H2df7IkrVGbGml1t058GDG3L2vncgcw6BD7yBRb7PofkZ3xQNqavkp/PML7RBxXv9G3zoaq5TwIY5Yb6HTrLJn03QyT+sIXjIL0ujGqu4/P0tFDjZBoBs/VzNNqRtu7L+um1YbydcEdBZEOvbPkeBYPuQ8Gge1Aw/F4UDLsXJY/fhxPPPoALTz+ImlXKr4XadcqkR+vpJFT/9zWUj1a8OeUUvXK2g+J4TB9URropHChB5BgoOXBHmHmrzHYlO8XFHQeRVLu8+TsBZOFghSMLh9+L/KH3onDIvbjy8eNoyl4KQ0XbUnc1pZtyYlA5/TnF20NtlwASzNG9URHQvz2IFgBvjQPV9TnCeZeASMJc2drGkRSt5MjSp+5HeZQbqma4ofqzR1C3ORAtR2JgamqvAZpamlAfswIVgQNR/nxPlL/aW0xdVYzvqxj989QcqLN8v8IRAPk5bewyEBUgf7CIVnLi8dd6tnHSLHfLOpqab59GQ+Ln0F8x73Nq7qmh6grqNv1XLGksf04Bk6vgaFLQjKjfqbtpJebnEK+7PNOlIAogOUYO/DfyH70H5/z6Kd4W6zFtupsC6Me+qF33HppLtsFY37ZnqP7SKdQsCUP56P5C0SGQdTvDnZ4D5UvU5SCyIRwjC4fchyshLqj6j6dt/yd9o7PN3Elx+/UINMTOA9ehytBypABVH49G3dbQW9JC5fOOeuwWIJJ4VfuWo3K6edGT9LBIjlQfzRonx02KzKoPvVD74xtoylsDY93Fdp4eRwXlVtvdbUBkw5vyVqNqluIas7jK1ADaOjdroJWhLnftbzS6FYgCyNxVqJrtKXycNwUkQZzmhvpd08QPbm71LXaG/N0ORAuQkiNtcR/vSUOeWuie6Zav1jgDKLfah24JogLk6utzZDsAZ5g/A3urXXee/N0WRAFk3hrbQFKECg6c4TxI3EZPujWIAshcK46cIwGcedfYgTfCt9uDKIA0c2Sl2eiv30MO7Lho6kadddZ0hwBRAEmtdYYn6ndHaRxo9TY6DIhsd2tZluUXw1b9uKsvHQrEuxqpTjqvgdgJcRwlSQPRUZDqpJ0aiJ0Qx1GSNBAdBalO2qmB2AlxHCVJA9FRkOqknRqInRDHUZI0EB0FqU7aqYHYCXEcJUkD0VGQ6qSdGoidEMdRkjQQHQWpTtqpgdgJcRwlSQPRUZDqpJ0aiJ0Qx1GSNBAdBalO2qmB2AlxHCXJriDyt+ncOovfAIyJiekQ+a0lfo2MP5PmJ3i4EYGtfPIey+FmBtxpgp+/Uwf+xNpWXXyG95luK5SVlYnfyFu3kR/d4iYL/Hm3owW7gkiQ/vnPf+Ivf/kL/vrXv3aIf/rTn/DQQw8JAnPftD/+8Y8d8lg/9/e//x19+/YV+6gVF7dtyMDNfu65554OdbHuv/3tb+B3DG0FbsX15z//uUO9vMedLdSfj+Vv6bnnTFBQkNhAgWVywwUGboHCLb24rw0/4sXIbwHz28EycD837sDBNH43WO6qIdPtdbQriPzGID+i3Fk8fvy4+FInNyzoLJ86jZ+v49ZachcKdp6bIPDbg+p88pzbV17v864kssxnfWR5EiTWQdAIEu/zK23croQ7JnIjBe7pxs34+DIxjZGgyW0v+VHpN998U+y2wTTuEcfN+rgjh72DXUHk9h/cMoQfTebROrIT3JmQOxTyDeeXrrkvjHU+W9fMx28TMo1AEChuSfL88893eF7eIyHVgfvFcFdD7jVjXQefIdHlJkFyjzb1p/Qo0vmNYILIPnALlAsXLqirEOfcdYMbDnHvNnXgi0gJdKufm1WXYevcriByh0Hu6cJ9y6QIoRhh5HcBx48fj6ioKPEWcz8YbjtJUCmuZD7u2MQ9RHlfRu4Fw3SmkRPIzRxTmc9WXczH/Nafy+NepNx3LSQkxFIf85HbWA7rIdcxcOuSadOmiTRb4yTvcbcoblZLwBnlRzNZL/uq3kZTTfzOtkRR57vZc7uCqK6UbyqJzU+SU5xYKybqvBR9Mi+5zLqT3COG6SyHR/VuhSyH22/JdOZhJMjc+UkSknuxESDZHpmPR7UIVbeLW34R9Ndee02AHh8fbymP+7aNGDFCfHVUvmzTp08XOytyj1SOlzJQ9FJpYmQ77R1+MRD5hetf//rX+O1vf4vf/e53193Tk8rD6NGjRd7f/OY38PDw6NBR7onGslgOo7XSQq7/1a9+hT/84Q+WyLKoqEiRys/AMp3Py3w8//3vf3/djzxLYvMl4mfXKf7JxeQ6jv/kRI6r3MeNkeMhX0COk1RyZOCLSTHKZ9lXybEy/XaPvxiIfOP5Rsp4PUWDIFJxSUlJEdFaBLKD5Bam09ygacDv3qsDRRrTqTywvsTEREu9cgM97q/G55mPZo5sF4/cutI6cNyiOaImOMHjeM/nec4xVP1pWVkG20PulXXL+wSenH09zpf5bvX4i4FIgvLt/e6770Rkx2wFijvuPLh48WLBYUuXLhW79HIfUBm5/5ksh2+1deCbz+eZh3uKbtq0CcuWLRP3+Gl1vhj8/DnL5n0qVbyWZVJJsg4Ej5vUqj/aTGA5jlOBkyBSZFsHvpiUHjNmtP/pHdvOveA6G1qsy7qZ618MRO5v/cgjj+DRRx8VUU0MdcNILCoWzDtgwIDrRqbzzbe1lzY/hS7rogZL8Tp06FBR77PPPguOVcOHDxd5nnjiCUHgwYMHi3TWuWXLFnWTLOfkaGqg/Dg0XwAqYKyLLx7HOWq5lDi2As0hbnjLZ/gycwigEsUXo1trp+rOsJMURxRjjJ2JEI45zEsxeb1IscVxx1agEsXn+aZTNLIuElGWyftsA6+pBFHJkfd4n9fXCxTlq1atEp9Wp3khAzmRJkNn/WJeeo8oHVgGz9lWe4dfjBP5efLevXujX79+wuNibTPJjpAY3JGXSkj//v2vG1kW9w4lENaBZkvPnj1FXfyEAce5RYsWiXssk21g7NOnj3DzkfPUbeOXtR05/GIgcpzj/p/UUhm54autQNFCzZHjB0UV81LsUAwx0uajvSbTqARZB4LC5+lSYz6q8fx+BZ/jPUaWS7FKzuIYKfOzjWpXm3XZjnD9i4FIPyf3tubnAhgptmwFKgEUU1RGmJ8bpZM71YFmAtMYqZRYcyPFGp8nmNu3b7e43Lh/N+/TyOdRGvIcx1gW87NttsZZdf3d/fwXA5HG7n333Yd///vfIpK4tgKVBCoP/FIL89NBTkNdHejtUZe1fHn7L3yTc/k863rwwQctjmYqEbx///33izSOSwzUTGV5TFu7dq26Ooc7/8VApI3EN5wKCaN0DNuiEBUbqurMZ20DMj+VEVkW81l7bKgsyOdZhlQ2eJ9cx2cpRqVqT3tNnV/et9U2R7hnVxA5ttDxSz8kuYe+SBlpN9FGCg8PF3N2FGNUwZmfJobMR/OAbizel1GmM41jJAGh3cl8rEudznFUjr80XxYuXCh8rKxPBk4J0ehmeayXbZPl0APjaMGuIHIMoi1H19Lrr7/eIdKLQcKRQzi2cRbCVj7re2PGjBE+StpldHVxfOX4Nnbs2A51UTTLj3JRVNNe5XNyA3YCRKXLuo285kumnrVwFDDtCiLBoeZHIvJoHcmpRUVFwpXFKRyCbp3H1jXz0WxQj5W0Q5mXHw2Rz/CcdbMdMtC2JNdSgZKBLkDruvksFSg6th0t2BVEemWoWEhlgkqDOv7rX//CoEGDxMw+XWr/+Mc/hMKhzqM+l0oRbT+KZykmSWS62mgbcnZfPsPzBx54QNiCEgga/ytXrmy3kz69J1yBQOVG/ayrq6tDmht2BZEEo1eCa2R4tI5yzQy5g7YcQbfOo75mOTQ5KOKsvTVyjY26LnmudrZLF5maE6nUyLU4sj4+y7GSSpSjBbuC6Gidd5b2aiA6AZIaiBqITkABJ+iCxokaiE5AASfogsaJGohOQAEn6ILGiRqITkABJ+iCxokaiE5AASfogsaJGohOQAEn6ILGiRqITkABJ+iCxokaiE5AASfogsaJGohOQAEn6ILGiRqITkABJ+iCxokaiE5AASfogsaJGohOQAEn6ILGiRqITkABJ+iCxokaiE5AASfogsaJGohOQAEn6ILGiRqITkABJ+iCxokaiE5AASfogsaJGohOQAEn6ILGiRqITkABJ+iCxokaiE5AASfogsaJGohOQAEn6ILGiRqITkABJ+iCxokaiE5AASfows1xYtZgtBqu/ykeJ6CDQ3fham0u1mQPRkPrpXb96CGvLtekYM+px5FwdBySj03SYjekQeyRV7GpeBgaWtt/QtACYk3jMWSU+SP+6FjEHX5Ti92QBknHxyHjZDBaDdWS98TRAmK7u9qFQ1Hg/wNLDyuP2/ateQAAAABJRU5ErkJggg==;" vertex="1" parent="1">
          <mxGeometry x="50" y="131.5" width="113" height="223" as="geometry" />
        </mxCell>
        <mxCell id="KDu9IRebR6RD1mSpAzbL-34" style="edgeStyle=orthogonalEdgeStyle;rounded=0;orthogonalLoop=1;jettySize=auto;html=1;entryX=0.5;entryY=0;entryDx=0;entryDy=0;entryPerimeter=0;fontSize=10;strokeColor=#0000FF;" edge="1" parent="1" source="KDu9IRebR6RD1mSpAzbL-8" target="KDu9IRebR6RD1mSpAzbL-26">
          <mxGeometry relative="1" as="geometry" />
        </mxCell>
        <mxCell id="KDu9IRebR6RD1mSpAzbL-8" value="" style="shape=image;verticalLabelPosition=bottom;labelBackgroundColor=#ffffff;verticalAlign=top;aspect=fixed;imageAspect=0;image=data:image/jpeg,/9j/4AAQSkZJRgABAQAAAQABAAD/2wCEAAkGBxEHBhUSBxQTExMVGBoXGRgYFxceGBkeGBgWGxoYFxUgHSggGBolGxcbIzEhJSkrLi8uGB8zODMsNygtLisBCgoKDg0OGxAQGzclHyUvLS8tLS0tLS0tLS0tLSstLS0tLS0vLS0tLS0tLS0tLS0tLS0tLS0tLS0tLS0tLS0tLf/AABEIAOAA4AMBEQACEQEDEQH/xAAbAAEAAwEBAQEAAAAAAAAAAAAABAUGBwMCAf/EAEIQAAIBAgQCBAkHCwUAAAAAAAABAgMRBAUSIQYxQVFhcQcTFSKBkaGx0RQyNVJzwcIWMzZTcpKTssPh8CQ0QoKi/8QAGgEBAAIDAQAAAAAAAAAAAAAAAAQFAQIDBv/EAC4RAQACAgEDAwIFAwUAAAAAAAABAgMEEQUSIRQxQRMiMjNRYXEVgfAjNELB4f/aAAwDAQACEQMRAD8A+zyz2wAAAAAAAAAAAAAAAAAAAAAAAAAAAAAAAAAAAAAAAAAAAAAAAAAAAAAAAAAAAAAAAAAAAAAAAAAAAAAAAAAAAAAAAAAAAAAAAAAAAAAAAAAAAAAAAAAAAAAAAAAAAAAAAAAAAAAAAAAAAAAAAAAAAAAAAAAAAAAAAAAAAAAAAAAAAAAAAAAAAAAAAAAAAAAAAAAAAAAAAAAAAAAAAAAAAAAAAAAAAAAAAAAAAAAAAAAAAAAAAAAAAAAAAAAAAAAAAAAAAAAAAAAAAAAAAAAAAAAAAAAAAAAAAAAAAAAAAAAAAAAAAAAAAAAAAAAAAAAAAAAAAAAAAAAAAAAAAAAAAAAAAAAAAAAAAAAAAAAAAGYAxP7n8Ajz7HEx7gkAyGeOQMcwx7A5n9CeYByeQAJZ4DM+GPcMRP6s8foBgBwDhn3DJ4gBwGvJx8hlgMzHhnxwDmGOAcE+Ax7HPIOWeOQH7AYAys8hySedYlxpPTGPzpNXtflt0skYNa2afHhD29yuvH6y13kDL8tiljpR1P689/VtYsY18OOPvlTeq2cs80jwrOJMgwuFwHjsDUUV0K+pS7Ivmmcc+DFFe6spWpt5rZOy0K7hDK6ebY+UMYm0oalZtb6kujvI2jhi9piyT1PYviiJqi8SYKGXZvKnh01FW5u/NXe5rtUiluIdtHLbJj7rKwjTCX+7U8NcKeUKKq49tQfzYrnLtb6EWWrpcxzZTbnU5pPbRoXkuXQn4tqlq6nPzveTJxYfaVf6jZ/F54UfEfCPySi6uWtuK3cHu0utPp7mRc+lERzVO1eozae3JKi4cwkMdm8KddXjK9/UyHrU7r9srDeyzjxd1VpxrlNLKp0vkacdeu+7fLRb3skbuGuOI4ROmbN8tpi6r4dwkMdnEKeIV4ybuvQyPrU77xEpe5knHjtaq041yijlUqPyJW1a77t8tFveyTvYK0iOEPpmzfLae578H5DQzbAznjVJuM9KtJrbTF+9m2pr1yU5lr1Hby4ckRSfHCzXD+WSlaFSN/tlf1XO/psH6onrdr/IVOe8HywVF1MBJ1Irdxfzkux9P+cyPm0e2Oa+UzW6p3W7b+FLkviJY1RzNNwltqUmtLfJvrRFwVrNu26dtzkindj92w8g5X+sj/GXxLKMGtKlnd3P8g8g5Zb85H+MviIwa8c+WJ29nn/xiI0oyzHQt4upp9Gq3PuKuKR9Tj4X/fb6XdHu3WK4Zy/BxTxbcE9leo9y1nVxVj7pUOPc2r2+2eXlDhnAY+LWAqO66Yzu/UzX0uG/4ZZtu7OOeckMjnWVzyjG+LrO+14yta6+7qK/YwfTldaezGevLwy7Byx+OhSpc5O1+pdL9Rphp3zw32M30sU2bDP+E6OGyuVTL1LVHzt23suZZZdSsU5hS62/knJ23lhyon38PQ2+OAHPIPhiXSOEoLCcMa4LdqU32tX+Bd61OMXMPM795ts8S51WryxFZzrtylJ3bZT5MlrX8vQ48NKUjh8dGxrbu4bxWlbcw1Xg6+l6n2f4olj078dlV1fzSsoPGv6R1O6P8qOG5+N36b/t1LSp+OrKPK7Sv3tL/O4j44ibREp2WeKTLp/FeJeW8PyeG817QVui7S29Bd7Fpx4vDy+nSMueIs5ba5RTN4nl6i1KzxWI8Ol8EYyWNyW1e7cJaLvpVk17GXutf6lPLzXUcf0s3EMpw5SVDi9RhyjUnFejUivwxxnhZ7VpvqcrXwlfPw/dU/pnfqX/ABRuj+9v7KTg/wDSKl3v3Miaf50LDqP5Ervwk/Pod1T+mS+o+0K/o3vb+yX4Ofoqp9p+CBvoRP0pc+q/mx/H/bBVleq+9+8qr2tEyvscR2RzHw3ng+xksTg6lOs21TcdN+qWra/fF+sttHJOTH5UHU8NceSJj5Y7O8OsJm9WFPkpO1up729tvQVmen+pxyudS1r68WlpsHwPHE4WM/HSWqKlbQtrq9ufaTqaFZrz3Ky3VZrM17ETPeEo5Vl0qsarla22lLm7c7mmbU7K8xLprdStkv2zRncD/vaf7cf5kQcXMXjlZ5+Ppy6DxvltXMsLTWDjqak21ddXaXG5jtescPPdPzY8VrTZS8M8OYnDZxCpiY+LjC7but7q1tiPq62Sl+ZTN7dw5MfbSPL88IleNTMKcYPeMXq7LtW93tNeo2ifEM9JpbiXt4PMB5869TkvMj75P1WXpZv07FxzazTquXmIxx/MpvDGe+U81rwq/Nn50F2LzWvStLt3nXXzzltaso23qxhx0vE+fljc6wHkzM50uaT83ufL2begrM+PssvNXN9XFE/KEcUkEsx78S3XAeZxqYR4ata8d49qfNej7y31M0TXsl5/qeGa5PqQrMz4LrUK/wDoLVIN7b2a7Gccmjbn7UjW6nTt4yPLG8I1sHljq1JR1R3lBdC69XS+z2mltG1KczLpi6nTJmilYSPB19LVPs/xRN+nfimXLq/jHXn9UniXhrE5hnEqmGjFxaVryS5LqN9nUve3NXLT3seLH2WUWZcO4nLMN4zEqKimldST3b29pFvq3xffKdj3sWeeyPlu6FWnxPkLV7alaSXOMl/ctKzXYx8Qo7xbVzcsm+CcUq9k6bj9a/4eZB9Bk9lrHVsfb+7W0Y0uF8jtJ3UbvtlJ9C72WFYjBiVNpvs5eXO8szB4XN4V6m9p6pf9r3f3lPiycZeZehz4ZnW7Ib/ijJvL2DhLCyWqN3Fvk1K11fo5ItdnD9asTVQ6mx6a8xMKvhbhergsf47MGlpvpinfd7Xb+446uralu6yTu79clOykK3j7HxxWZRp09/Fp3fbK116LL1nDfyRaeErpWGa1m0/K48HX0VU+1/BAk6H5U8fqidWn/Wj+FH+R2LqVd1BJt76/giLbRyTKXXqmKteGpwGFpcJ5RJ15Xb3b5OTttGKJ1KVwY1bkvk28scQ529eZZg9CvOpJ2Xa23z6l9xUTE5beHoYtXXxRWy9jwzmCWzf8V/El+lzceJQPX63zV+VOFsfUjao7rqdS/suazq5uPMleo68T9sKPCwdPMYRnzVSKfokrkXHWYyREp+W8WxTZ0LjLNauU4WnLBtJyk07q/RcuNvPOKsTDz+jrUz3mtnpluaflDlMvks3SqpWdt3F9D7UbY831qfb7tM2H0+X7o5hznG4arRx0qeJT8ZezTd22+W/TfYpr47xk4+XosWbHGLvj2dGqV6PDOTU4Yq7XzdlfU2ryduouZtXDXiXnYx5NrLNqqylxPgKFTVRouMl0qnFP1o4028NUi+hscfc+ePsF8owlPE0d1HZ9sZWafof8xpuYu6vfDbpmf6V5pPywxURPL0PHHsGfdifPkT0u8drGYm1Z8MWilo4svcNxbi6Eba1L9pK/rJXrckeIQL9MwzKDmWcV80VsZO6W+lK0b9dulnPLsZcniXbDp48PmkPPLcxq5ZWcsG7Nqz2vtz+40x5LYm+fWx5eO5Y/lbjPrr91fAketyo/9Mwo2YZ/iMxw+jFyTjdPkly7TnfZyXjts6YtLDjv3VRMDjqmArasHJwfZyfeuk54stsc/a7ZsGPL+Nd/lrilGz8X36f7kv19+ED+lYp8wpswzGrmVXVjJuTXLqXciLkzZLz5TcOtjxR9qKc+EjmZ8LTKs/xGVw04aXm/Vkrr0dR3w7WTGhZ9HFl8zHlKxfF+LxNLTqjBPpirP1m9t29olxx9MxVnlQkW0zbysa1iscQsMtzqvllJxwctKbu9k97JfcdsWe2OOIR82pjzTzZMfFmMa/Of+V8DpO7ln2co6Zgj3VOKxdTGVNWKnKb7Xy7l0eg4Xy5L+JSsWDHi80h95fjp5dW14Wyla12r27hjyTjnwxnw1zR9yzXFuMXKov3V8DtbdyxPhEr03BPuPi3GfrF+6vgZ9bkn3P6bgj2U3jX4/X/y1avTe/vI0Xmbcp306xXt+E3M85r5nBLGS1KLutkjpbYnJ9tnHX1KYbd1UfAY6pl+I14SWmVrdm/WjWmW2LzRtmw0zR22SMRnNbE4uNWs05w5PSvabzntM9/y501KUrNPh85nm1bNHH5ZLVpvbZLnb4GuTNOX3bYtTHi/LQTlHbCTxPCy8u1/kHiXJOnbTZpcu8kTs3mvb8IcaeKL93yrSOlgAAAAAAAAAAAAAAAAAAAAAAAAAAAAAAAAAAAAAAAAAAAAAAAAAAAAAAAAAAAAAAAAAAAAAAAAAAAAAAAAAAAAAAAAAAAAAAAAAAAAAAAAAAAAAAAAAAAAAAAAAAAAAAAAAAAAAAAAAAAAAAAAAAAAAAAAAAAAAAAAAAAAAAAAAAAAAAAAAAAAAAAAAAAAAAAAAAAAAAAAAAAAAAAAAAAAAAAAAAAAAAAAAAAAAAAAAAAAAAAAAAAAAAAAAAAAAAAAAAAAAAAAAAAAAAAAAAAAAAAAAAAAAAAAAAAAAAAAAAAAAAAAAAAAAAAAAAAAAAAAAAAAAAAAAAAAAAAAAAAAAAAAAAAAAAAAAAAAAAAAAAAAAAAAAAAAAAAAAAAAAAAAAAAAAAAP/9k=;" vertex="1" parent="1">
          <mxGeometry x="240" y="216" width="54" height="54" as="geometry" />
        </mxCell>
        <mxCell id="KDu9IRebR6RD1mSpAzbL-9" value="" style="shape=image;verticalLabelPosition=bottom;labelBackgroundColor=#ffffff;verticalAlign=top;aspect=fixed;imageAspect=0;image=data:image/png,iVBORw0KGgoAAAANSUhEUgAAAQsAAAC9CAMAAACTb6i8AAAAsVBMVEX///8sZ5H7+/v5+fnZ2dn29vbh4eHc3Nzu7u7Y2Njz8/MpZZDt7e3f39/m5ubq6uors8/H1uEbYY2dtcnO2+U2b5fi9Pjn7vPx9fjS0tKi3Omt4Ovs+Pv2/P2WsMVVhKaHpbyT1eQIWolgw9lLfKBuydza5Ouzx9bg6O7Jycl8nri+0N1Adpyovs9kjaxfi6tzmLPQ7fSA0OG8vLzV7/XA5/BCutO4yNZhxdp4y96rq6tBU77ZAAAbkElEQVR4nO1dCXfawK72vmI7OBDstixtCRC20DYhzfv/P+xJs8oLhN7SewOtTk8DnrHxfNZomZFkw/hH/+gf/aN/9I/+IFmWZdu2ZR1sZfTfvaf/CVm2G0VBp9MJItduDhibA6CotfWqCIYaZGniAyVeFrlWvTkKMi9B8rJOo/mqyAIkEj8svSzL/ND3gtpo7SjznDBMs6QM/SStN18TwVATx8+iyOJfPC+wq+1p4sHcAdCiKEp96HqtE8WKMt9PXX0g8tOIjtXNvI7+bnUcJ40qYF0NMSiiyqE0oYxhRV5SGXoA0F0lGJbbgMJIw4yIBCvwHbfS7npOFl3fLAGxmTg1KIwsTAkWduantYF3Qj+7PgFqB16Z6q+Lgh30PPLY3cwJ8K+10PMicPzOtYFhRanj6QkwW/GjFAvLTTkWxuJFn9hxasrm4slyOw6Ri4tJwQ+3Y2HMN/pML0yvS2TADAkz9W2w7fEPgUPniJ05Hf7J2s3VUde/LpEBMyTUYrHYTcSntKzIzo6fiG/d9UwdjvzkimYJqFMn1MJiuR6IT6BTqX0RJKrXiICRXdMswRnSUd/m+a38mPqdqq3ly68Lc1fI425Y6XbRhDPEUw+22x9LtnDDpGaD+4H8PPkyUsez0LsW8xPlgJohg/EXpSSiGvNDR4XZYh2vVAOYn9chPpEttA4Z5X3J/JbnZ3a1pxdKxrAmueIfIwi965AYFdPixcwV7zdGiDJWahKj1893qqHquFwsVdhiMM7XPdngNQaIjCF9luEuz9Usia6DMcDj0mwxyePlUHxuY3zKGC95rGdJE7cLJGQLpU9nZhxLi7KFLThjyN7FOo4r8+niVYkdaLYYLvNY2VnA9kHjSYPECJU3i70XsgFVyR++1T9NlcG9mGa+lA3IFs3+dpAo6Lp93d2InIuXGBU1+RibuXTH7cRv8zLoJFmMY7OvJW1NAV8egTBU5tMqN/UUOeRkgLMqDXFrEpta1HYqa2AXSCg5lZLcAhY7MTTbd9ofsxV4ailwDicoxoic5LInCXU9YfqbsXTLovLAyKxIC5iFCQJmIltg8lyy9ERDUg7MWsam2e+Kb+lBjrcDbWJM4RTzrVl1IURtTnC2zHgqdKTtOIfccCtKlLRd5sAY0pVz/aSphC+HwLjwJV/fwrjirRIXB8dluWkp8duwc4Qvd+EmBrhlnvhogYLUk79zhN9tPa96MEX0vAoueZLAI1aLMzMcVi4NcK88/IiBmRwxf3BemcoQdy/ZQaOLdrcoBnOpID3n8HIuCIxSaNVii1iM5YJHesFrfVbgS41a7BALqROi0D/8hHFbSZw1XLKzJILVpeLLIrvjS76YMW5fi2+d8hi3gyKWwnPEuElOkuoWwmWRqzZ/jHnMuF18AyyODArcOV+0bthpW9EQXK5/BqKzYimQQR31LeyO44jWF5Oxk5halnexZjiIzlJgYTELUnngwVFLAa0SuX/WR3lhirU+q923vQQChSAtrQEbkpr42VH/m2DRY1jEwvS0/PBSFQmMSRpN3ZxhITwz2zmqHAFD6ZEwkQv8xHsfWP+5BAIvS2Kx4ViI5+uG/jHPgsRtMWNLm+GRf6mKxO2E0gKf5JTX3fCol0U8OoGFdOnci1UkblYKLJj9CGMSJvgbxjR6Z+LEAZO5aqXvYq1wS2MxGFexOP546YkMi1gqkvpm9MUQeiPCr+Ai8HQs6nyhBE15VNC8X0IRWDUTiLw4igU4JMJe5fJCKWPLu1DvDM0LceMr06zqkTdkpwJRYiGNtM6BFeP3TlagsHiJOV8I++KNQBtqX/Q5FnLHvfPmtupvJ+H8kTlIscgrdqeV/prdacaPounoJgnLV3JdTFn6zwbE8p1+4/wjV9ZYzAUWxB85DQspaJSDexALy3KjqJMxOpCz9MbtYkZTh5x/TjwIFtzsPNlP1VgwP/UULAAJlq/khKHj+0nazFl6625dzGjyfTjf8RMvPW9WUwsWJ65fdELps7P1CzQ85YkHsLDcjgfjSDhfeKHve53oV56sHcEFnNBDxuh4IVwgPWccegsWa7El0Cn9w9EUJDDWGgmh+wYWYJ15iWYFZJIEU09OHowFJ3iZKy5guW6U+skZo1+a8kKtd7rhEX1gB2rt117Gb8sLkHRu4CW1fIwocTBD6zTeALZKvNrDCRIPOOPN7FDLOCWBtAULtQ4ORvahVRk7SstQtBWP8RE9IvRGFEUZjTYX5HpOGkBbhJpFkRgc+2PLVFjMbSHBuIICmHLNC1SJ/brocgySpn2h90fs9NC+D+4tq5VBYYJroUuwEImuWZp6nlOGzXWNqCx9z/PSNMsCTXjfSFHEvkTsU+aVfuPRWH7pePwCneAAZezneZdjKbUVuzOuLmyxWdIGBmZiOSr4tyemlra1pDIGkRBkqeeD1gDVUT6kLZfyH8owZB0cX1ICN47iFUaQ8G8pXuWhDJoXyB4eQnEBv50c/vPwP/yDCweHRFTTH4Exqa5Z2JZKBhPXJ5lYam5NRLPwR1A4epjgihISH3Jaz95CstOMsUCGGEjy/BIQQpZhX+FTmCSO0wIFMHYaMBZKHXIBQj6mc3Au8wBXJzyYUot+quDc3lrKQBWkaGVtqWQgBOltTSQW2nhHRwbmd+rjDzfElr1YDJo3Y1GKUuAFD2YoExkZcIZLrlIsFsXx86tEuwRp4njtuYLoegvWXYh5r/eJDZZXV1PhFial6Sh6YyjFRfwisUCnDqW+0xIEaPB11fXmN1QhoN9/7L3dr53QSjw09WvrWqgQFrpDhqlkldh4sCx8LQSHwrqorWvBdROn0z5exCI2u61tJxFyYr4dvN3xAAVOOxhkvXMpDYz4kfxOLRcCVIiTEH0wMuVJdL3TxuTOhgIUxNbb482B1hMIsYhJHs8vU+AnnRYBanfUOvitxAJA15xhO1SzogohqYrWSJ1D18EjlFOHoBBY3B5qfpuYhOr/x5PEQCOvbdGO7I+s1LjMWOsSTNLuaMM58Klmu1VngBoRtnsKijjKfO+gQHgHWBhp2+YersmIowMz1iNbakkdhSqvDhOxSNryiKBH9s2yiMQ8IhWLXm82kFesYmEVi1mvpxWDNSTcaw2HVuUyM+zIsZACZziY4dXV0NQpaLTyu2Y9FsVQXyprS/wh+6lKO7KhjfS8UNmnuMhJoJhT8KQmZlhU2KI3elz3zf50u1k0sRCN6+2tOP92uZzM5clz+PIit6Rut+s+dNwMKBbFy3IKhlF/vFxxOBdwymZmDFab0WSJfew577EeL+dKDrptk4TusxcEDNPUws32HTZL0MgidnR3raHQugexCEjawXDUj5lTD/+vNzUsCtI45bb/Yw4kf3uZQ+utJX6NxTbE5pg5QHyOzLZmLs43t0ya9vI4j6e7KRzKMVNstotzvqaAp6pobb9tsb6SrD8hoyNmBugSVKwwQ4hyWBAo8p22z5wyBWdcTpFimatucHc4Lo1FscvJD3JjDXdp4kcxZZjGYFpt3o/VVfTWVHdNnl7OVEsvj1UfwHQxJT1ilSSEj7dFYID2U0cpZ8RjpUwsVusAPTLN+jCO5gRhiJdeqnSTlK7y2fRXFAshb1RjV2Ihr4dqPp4OFPBxnlNzpphWjsZoc/QoOhsx7/P8S853SGUWadYWUQEyQCdZUiVp5o9q4LbjB+gz6AWIIUVtR+2eCHwQab8ZMz4D+rvllgmXeF1oLHp93riVjQgBw2Jax4KHyZjT3VJZxz2F5XS5HKstGo0FsOFmgXMw7i/n3fmOD0quzjhtC06gValJvYwV2+ZaZID7HgQ6s8IwNgT9x6oJmJXlQyI+s7uNp6uhUWzYbX2ZayxGfE+6W7BGk+czcSwWVSzE9vVuZlmLiSnnCN/1jCcLeTTuFwqL3FxP1/PVGmjKZHExwcNfVGReGxbVPHbK+/FaiYzI99M01Dlps76WAuNF9YJB+SDdc77OE/PLbPC++ktLYjHgi0CiEceCbn8rFkxjiZljc/sYsFj1TWUKFWx17ctKYBH3b2dFUdh2UQwKMS2YI66xaLO2MDb+gXCGXKcyiQzD8DxwotW6lPJd8A7rxrDl/yil79unYW0DRoovZmQo/BnjDGrFgk1Iucg0y4UeYXzV74JFYttWj4E5Elj0V9VbAtNktDZPwKLjP5REqPa0gtBZ7S48bC1jb9VEiuOm/ef8KNX6UOUinCQWL0xHavWJfRdVecH0yHgwZIGnfQGQteZYsKQGkDa73XK53DFxAIzV4wF4xKkvurfL7bTPb/kNLGCOlAk9vtL6S1u63o8fOlVRQ9En5VFWC9lVYoHbBXFcc0klFrcVU5otw0PXJhbTAWPVeCwfxY6fKCYgEOgRsS+xHXIsdJ49SJIc28UNH8UC2aJudxCPS6VPRQ+l7DRUIoUbDBKhqfTaHx4UFnjXtUkksRgxd1NiwbyheNWOBTu4lT8l/JFirI0TyceSLxQWvanQt8LmOI5Fc6meigw98SLV64X8trbxB1v5jO2zY/FYwWJUwQLYgvEGsoe5qmExGOecd8BK3yK7H8PCskkNB0VaZOTjRqN+HlSFWMu838IXcXPZRmKxqcyR+bE5wsLvH+UcWfL1C47QeqJp1DVqWPB1iHi63PSGvbf0CPVHCOlZkjdk41xbILpiDi6jN7HgsnNePV/LTmRdKW8Yl5gz47HF1mKyE5UMJ6FqbHZ0XFQXNitYiGj/zQDZ920soiRsWZ8upooxdsXBJi2hWIQTwYLqVF0KoWjRqcuaTt2xhy74bSvMCuYnybRZplNRU4yIfYJ6Ey5eVLFgezfyNt+0L/RaTnW1eiMfvp7Rgla6RdubaOqonu7DD3FNbhlKgbHZjqfTiba12PBF45yBu5WCkUupwVqMmkftbzm3MZ7FAb4Iccn7TuDi05q8YOvZUm3fVmVncx9Mx7rOltR+1NaUTrhUoxZEliw37KmKMdvlD18cn3Btjw2LJbPBN4ovLNGId9fjsegbKTeYAVdwL2RkidwlcwQsas0ZO+Vd8dRjc4NHV2OmV+t8wb1e/AVrvqZYuC02uB3ITNPFek2NNaUs4mllksykWKX2zMyk1qJb/khUA+egye2Iuddtvhk0LvvKNxOuR395OxGTcWWoONzx6Ja7cTnbvOVSLX68vd0xZlW+mcSC73vHU/j5rWBnyRdO2vBTbbUOXjzmdG1ZaQv2CKocYNZEIvdhlKedPjz42hYQBpH4O6c+u2oUyhGvaOmD3Pdk2VsLvlDBVCf+5VJiwCEUB6Hroq5H5uLKqstORq23+OwkHnyZ51MyTTZSlVQniTQ94nF93VMxiv+gtz4LtdPAhoDTqkfWcoi1FItlP7owgs+UP59eZU1GWrvdqb5AnE9nRh0Lg/482VWxnZZkOrIODoOPl6QeX1/+yJicVcijxKHvci9aRXp5ZUncuIkp19jyPrNSB2u0i9jAB5NcNaqttMFSnIGLNLISHoKhuk7VZO6NxQOHrnwrrYdyQ2u4wVKyBPLGTj5ru61OHOhU6aNiZjqRh5Z8PrrYh6GXSogSkZuPCh2v9EMdHmD1JmzttT8eiSm4egTnXXTuLqd9tnY7IktjPXFwupvrGy7m2zVbw33ckPUSdXT7wrmyhysDa+0O2r3luC/WfrvKSrZa137JOvguroxbL3MTgSFnTjyRlxpIzHKdiuhVi78Ws+6qS/aDbWYJ0MZZ3YjBg736NuGg1131FsPa0UVvtdJdLbYwULlcMet1u73KfnTQVkuR2p2ryhj1xjs1L+USpT42UWaoyuP2s9RP33Xsb3ucNlkH56JMOeF6s5kYEkIWKVvC0iJWxaKUXhC0BCS9H7LS9rwOS2djsxAbLSktKYPjphBR+lOt1eviS5gHH9GSdu+OogPx3bgXposNgqjWCuL2CBbCHibLPmpfIAXVbeMe9O+nCwyHQ/FnOCTHhuoDOV7vVb8QOeKVBwLR3ExFHbBpocxHudmssmSQxFaAmBBk60wBxuJycDPFD48Fy7aSZVdCAe7u779/MoxP90CvYigf4PPPZ/jw/Pp6f//15+vnZ97yDXvdf+C9Pt7fP5MLPbG2z/JX/PJAtCatEIXyMjalQhL6M6aLMRuKRU+bOsrNlkk4wBmeD1q84gRj2X31ROBLrTp/kIRhEui59XRz8xWwuLtBemKHhl/xM474442g/f0nBhL78pMD85n3kcT77gWcVnKokg2WM9ZyDnwENfaF2onTNBMGD8yIYkX2ljXvdHxu3YrYtdDLUkkZWmGlOJD5ZemkhJwyDDHer0xkhMcdxYKP7dueYLFHgq/3OMif8B3+3bVgMfzO2gScLIX2gDDD7H7d9NJXVptI3p3Qp2fJWbETDhXnilwZrLomF2YFdFIvYRGFPPDQ55F1PMRQRByqxsRLs04n85yHh6AFCz5JPrJRCSzun56evuE4YT4M9zf7D8A0zy1YfPp6s/+o2pAvDqXQVvdJcb9WrL4XTD2MqmaQNDDimDAFCdeg1YMskuMg8hyiSCc9AHU6ui1gkbnATWETi/1P/sSHrzdffyosvmOnIXwHSfAN+35mHxtYPO1pGwZsHSzeUi31izY+D74ozNzcvtQ6z8j2uuQKU0NhYRQPBZrHQDMS0c38AIt15iHKrvyKv2rZ2hLWWHz9wJ/q3f7m8/cqFoxBhiguvhvPIDBasPgo2rhgQZF2pBJQJa7CWGy5xCgeZYAHoeGkjgU4mLpXa3XXxtuNqp9rba1YgJzApwoDev5cw+KZSUxA6CPjoE9NLBh6AKMQJiw//WAktFuJtzGs0ehAT6OylSoMC+KugLT4XauCeAUEi08wOYY4qv1dHYvPKEtQJIBo3AuhUMECdc83Y3ivBAaGaR8pBeRVwegdGdCkuiTwSLc/ssMz8VRqx2L4gamB/c29UcPi0x4FAYgE5Ih7gUEFC96GykQJjGM5U241KO0o0YAcGjGNMSvO71czPYDFE+Nz/E9jcX/39PQMw99/w2+oaD4IfVPBAibRV37CT3EkOFb/BvOfTgZjYxITi3CFlYXJ7yc9HcCCscRHZI7PNVuLPW4hUL/xM6pYCA3ybS+ECROeR9iXg3GaOzXQG2cx3QfKwOX5/VT2A/LCeAVR8R1txwYW34dMJHz/+PH5wx6ZpIrFJ+Cc78+s7eabONYa30luAaZJeFC8VmjV8NONc3HFYSyeb/afv+ID1ljsX19fv394MqQ5dqMMVIrF3b7ahpQeqR1msASA1Akb+8ytXcctK14AxVkS4Q5hgTpxj5qAyk7pfT4TLF6NKhb1NiTvjUI2YOWAj9C2o9ggsTFAt07S8kw19A9hASYndzfqOhUJjv38jASd9vz7B+nSqzaQKV+FhfEWFjwJ4ME73oeRrA+hKs8ZbnloTeBX6RAWzBF9HbZiMVTOBujPG47Xnvnpr3fotH1kbZ+EMDFOwYKlWp6ChQg70446YnGmVFHEQvAm8Uc+MR1BZQHF4o4jYChUPiuH/ml4w6wwJIXKKViQlKujpDZ59L5z5mRnehegfFUWDPHr/hWx2O/RKx8+P39Enfhhv8cRPe/30nQyvn3d34uP0PoB///K6efd034v14E+win840lYJIdzHQhJLEjUQdAaPPqfkK3KUg/v7phBcHd3R9o/8aOy0ah+5q3wv6AhadMf01PmiHobkVHMVqv6toUkZWH0ZXj/G6UAfoVI5cg/Rm/oVCRdvWAw35p5bu7aM5lk/iZwxnTO8TojFqSi6J+i9O2yxAoLe8d3L/NGJCsjFYOBO568xzmxSOvvZDw3nVLsX/NF0RuxZ98Su0biz2NzIqXn+bAw3I7fkuJ8TjpFuFF5YXD5mK8avUh8pw48OCMWwBh/tLI2aO0T3llY0SNz4XI05OdcL17o/ezgjK9VAG/A97IaHGAIZq3Hsl/74agDFz/BcQKxpUtMiDjReuwadVNJund6xhffYf534rACBoScsizDlmNl6bVRkrqRlzQOp5hif4oPiemnehW4a6IAbWRP6jxWsgEf+eeswgeuUQcr4ziafD6sxrGUV0Nw6hSGYZLgXkOVfqHMDm6iad2+mG8mfeJ08INqvTPX8QlRbfn7t4lXzqCEdTCilmNuvSMnsfHQrIpxcvkm1GdeJYxkm5tVtaoS2FUSg8Hyjs5dkNDiWwbVaintx6oHVTkUsddQo9OrFVnV1H1ct6nsIRqzqZYW6qRO+A5fJvvb1chYSQcaRmJN6eIVlRaqQM6VvnFZ5JNQs+82pwLDIlvrEiPLP9faxXsj9l5ykjqwmNKYA5L+qavVlRdbBvst4u+r17mpS/IyTB0BS2Jgs0t/Y9MRwgJnIAHk8FY06JPE0erq2RdasPMkws2SslQp6VNtRwxIjld8WvXsSyfcLNEFgiY6q4xEHKiUoDcqwF48YQEUFQM709kRehFHV+O43ILgJxLYXLLYlFFMlAu20lCocNerx6LyXuWuwmJOt5Vl6sxZ3bL3SPSFkdqZ2egoLeWwY+Gk68ai8sZIRaTUgyqrkV7siyVOJsoYiihfCE17JFryaggdkwZjUHkhTC2Mor1eU0sQLsHWJQHVI2JRy/Ku1hshZEep73sJlr8krxRWppZ6J9yR96BdDWFAhhc+lOXDD1nct6cDGvsy67W1tt3VEQMDkPjxfzJBfaFXtabCMM+OvhPuegjd99LxfBXiR/YDZBWcS37R3S8QFmetxvGqRE3y7q83XytxFVStQ8ZIBf2qvcVLfjHmLxD4JPX4V7Wu1Vee2VWvXihys8bmf1fm48nSW9HfITpxitSt64VMwZRrXe7vR8NfAoFHIlOxda6MiGZUW6mtBQ+vj9A74+MsdlJSdqW4EFan1VoI8/qIYJGLtXC5g6g2nK224glXSBoLY5vHWJ5iIU0ttTdyJI3tqohg0Vvn/TmpYyLrO7EXl/9lWBiLZT+eaGekL4Wp93eIC6pH4Ev38UtzW/l4gs4VUc2+WJBSzFKjHk3cuioiL2FHUkX6dCmE4ExJI++fyEvYkVQsoyyid7nvxPx1sgOHYqFqg6hKrde/ZaaoEgasCzSqJa1KIv+Vk6VKh2+Wsh65SQtigEb9G5wRJAwDFqHym0dZDI28tua8Aa7vm9DYkmHARW8jXtStq06lVxycVCd8sxPJXuCFWHVVJQzI+Uu0iMFSvwgWuCEgXweC1FYb9XrJChKSojnrx/F6pUaPxsXfIjkNXohMr3je5tNbUuGh8/cYF4zoO0uHu1taEdgNnXO+1fb9E2Z160jPSssfSA1454Sv/CtbsgIt9nLA//79/C+JvwqyeTwNvQOv3rxmcitOCSc7C0/K2bo2whWdal1SfPXVXwkFLzjVEfXA2Ktd/RBf//g3QsGCw5PUAz8MM/M8z8F3zJ+pvsPFkaw+6Sd+6LCcxr8VCYNXn2RvFmelFk/NabxWUtUWfyWn8R/9o3/0j/7R1dL/A4XTTGFDEzpNAAAAAElFTkSuQmCC;" vertex="1" parent="1">
          <mxGeometry x="270" y="252.57000000000005" width="67" height="47.43" as="geometry" />
        </mxCell>
        <mxCell id="KDu9IRebR6RD1mSpAzbL-17" style="edgeStyle=orthogonalEdgeStyle;rounded=0;orthogonalLoop=1;jettySize=auto;html=1;entryX=0.5;entryY=1;entryDx=0;entryDy=0;entryPerimeter=0;" edge="1" parent="1" source="KDu9IRebR6RD1mSpAzbL-11" target="KDu9IRebR6RD1mSpAzbL-1">
          <mxGeometry relative="1" as="geometry">
            <mxPoint x="627" y="230" as="targetPoint" />
          </mxGeometry>
        </mxCell>
        <mxCell id="KDu9IRebR6RD1mSpAzbL-11" value="" style="verticalLabelPosition=bottom;html=1;verticalAlign=top;align=center;strokeColor=#0066CC;fillColor=#00BEF2;shape=mxgraph.azure.computer;pointerEvents=1;" vertex="1" parent="1">
          <mxGeometry x="270" y="471" width="50" height="45" as="geometry" />
        </mxCell>
        <mxCell id="KDu9IRebR6RD1mSpAzbL-12" value="" style="rounded=0;whiteSpace=wrap;html=1;strokeColor=#00FF00;" vertex="1" parent="1">
          <mxGeometry x="50" y="380" width="110" height="150" as="geometry" />
        </mxCell>
        <mxCell id="KDu9IRebR6RD1mSpAzbL-18" style="edgeStyle=orthogonalEdgeStyle;rounded=0;orthogonalLoop=1;jettySize=auto;html=1;fontSize=10;startArrow=none;" edge="1" parent="1" source="KDu9IRebR6RD1mSpAzbL-26" target="KDu9IRebR6RD1mSpAzbL-2">
          <mxGeometry relative="1" as="geometry" />
        </mxCell>
        <mxCell id="KDu9IRebR6RD1mSpAzbL-28" style="edgeStyle=orthogonalEdgeStyle;rounded=0;orthogonalLoop=1;jettySize=auto;html=1;entryX=-0.02;entryY=0.311;entryDx=0;entryDy=0;entryPerimeter=0;fontSize=10;strokeColor=#0000FF;" edge="1" parent="1" source="KDu9IRebR6RD1mSpAzbL-13" target="KDu9IRebR6RD1mSpAzbL-26">
          <mxGeometry relative="1" as="geometry" />
        </mxCell>
        <mxCell id="KDu9IRebR6RD1mSpAzbL-13" value="Nostradamus" style="rounded=0;whiteSpace=wrap;html=1;fontSize=10;" vertex="1" parent="1">
          <mxGeometry x="65" y="400" width="80" height="30" as="geometry" />
        </mxCell>
        <mxCell id="KDu9IRebR6RD1mSpAzbL-25" style="edgeStyle=orthogonalEdgeStyle;rounded=0;orthogonalLoop=1;jettySize=auto;html=1;entryX=0;entryY=0.5;entryDx=0;entryDy=0;entryPerimeter=0;fontSize=10;strokeColor=#0000FF;" edge="1" parent="1" source="KDu9IRebR6RD1mSpAzbL-14" target="KDu9IRebR6RD1mSpAzbL-26">
          <mxGeometry relative="1" as="geometry" />
        </mxCell>
        <mxCell id="KDu9IRebR6RD1mSpAzbL-14" value="&lt;font style=&quot;font-size: 10px&quot;&gt;Manual Extractions&lt;/font&gt;" style="rounded=0;whiteSpace=wrap;html=1;" vertex="1" parent="1">
          <mxGeometry x="65" y="437.5" width="80" height="30" as="geometry" />
        </mxCell>
        <mxCell id="KDu9IRebR6RD1mSpAzbL-16" style="edgeStyle=orthogonalEdgeStyle;rounded=0;orthogonalLoop=1;jettySize=auto;html=1;" edge="1" parent="1" source="KDu9IRebR6RD1mSpAzbL-15" target="KDu9IRebR6RD1mSpAzbL-11">
          <mxGeometry relative="1" as="geometry" />
        </mxCell>
        <mxCell id="KDu9IRebR6RD1mSpAzbL-15" value="EM+" style="rounded=0;whiteSpace=wrap;html=1;fontSize=10;" vertex="1" parent="1">
          <mxGeometry x="65" y="478.5" width="80" height="30" as="geometry" />
        </mxCell>
        <mxCell id="KDu9IRebR6RD1mSpAzbL-21" value="" style="verticalLabelPosition=bottom;html=1;verticalAlign=top;align=center;strokeColor=none;fillColor=#00BEF2;shape=mxgraph.azure.sql_database_sql_azure;" vertex="1" parent="1">
          <mxGeometry x="630" y="204" width="37.5" height="36" as="geometry" />
        </mxCell>
        <mxCell id="KDu9IRebR6RD1mSpAzbL-26" value="" style="verticalLabelPosition=bottom;html=1;verticalAlign=top;align=center;strokeColor=#0066CC;fillColor=#0000FF;shape=mxgraph.azure.computer;pointerEvents=1;" vertex="1" parent="1">
          <mxGeometry x="270" y="410" width="50" height="45" as="geometry" />
        </mxCell>
        <mxCell id="KDu9IRebR6RD1mSpAzbL-30" value="" style="verticalLabelPosition=bottom;html=1;verticalAlign=top;align=center;strokeColor=none;fillColor=#00BEF2;shape=mxgraph.azure.express_route;pointerEvents=1;fontSize=10;" vertex="1" parent="1">
          <mxGeometry x="400" y="417.5" width="50" height="30" as="geometry" />
        </mxCell>
        <mxCell id="KDu9IRebR6RD1mSpAzbL-35" value="SHIR" style="text;html=1;resizable=0;autosize=1;align=center;verticalAlign=middle;points=[];fillColor=none;strokeColor=none;rounded=0;shadow=1;fontSize=10;" vertex="1" parent="1">
          <mxGeometry x="275" y="417.5" width="40" height="20" as="geometry" />
        </mxCell>
        <mxCell id="KDu9IRebR6RD1mSpAzbL-36" value="Desktop" style="text;html=1;resizable=0;autosize=1;align=center;verticalAlign=middle;points=[];fillColor=none;strokeColor=none;rounded=0;shadow=1;fontSize=10;" vertex="1" parent="1">
          <mxGeometry x="270" y="483.5" width="50" height="20" as="geometry" />
        </mxCell>
        <mxCell id="KDu9IRebR6RD1mSpAzbL-37" value="API/C#" style="text;html=1;resizable=0;autosize=1;align=center;verticalAlign=middle;points=[];fillColor=none;strokeColor=none;rounded=0;shadow=1;fontSize=10;" vertex="1" parent="1">
          <mxGeometry x="180" y="471" width="50" height="20" as="geometry" />
        </mxCell>
        <mxCell id="KDu9IRebR6RD1mSpAzbL-38" value="Direct write to Azure SQL" style="text;html=1;resizable=0;autosize=1;align=center;verticalAlign=middle;points=[];fillColor=none;strokeColor=none;rounded=0;shadow=1;fontSize=10;" vertex="1" parent="1">
          <mxGeometry x="395" y="467.5" width="130" height="20" as="geometry" />
        </mxCell>
        <mxCell id="KDu9IRebR6RD1mSpAzbL-39" value="ADF Linked &lt;br&gt;Service" style="text;html=1;resizable=0;autosize=1;align=center;verticalAlign=middle;points=[];fillColor=none;strokeColor=none;rounded=0;shadow=1;fontSize=10;" vertex="1" parent="1">
          <mxGeometry x="410" y="375" width="70" height="30" as="geometry" />
        </mxCell>
        <mxCell id="KDu9IRebR6RD1mSpAzbL-40" value="ADF" style="text;html=1;resizable=0;autosize=1;align=center;verticalAlign=middle;points=[];fillColor=none;strokeColor=none;rounded=0;shadow=1;fontSize=10;" vertex="1" parent="1">
          <mxGeometry x="448" y="180" width="40" height="20" as="geometry" />
        </mxCell>
        <mxCell id="KDu9IRebR6RD1mSpAzbL-41" value="SQL Server &lt;br&gt;Staging Schema" style="text;html=1;resizable=0;autosize=1;align=center;verticalAlign=middle;points=[];fillColor=none;strokeColor=none;rounded=0;shadow=1;fontSize=10;" vertex="1" parent="1">
          <mxGeometry x="505" y="175" width="90" height="30" as="geometry" />
        </mxCell>
        <mxCell id="KDu9IRebR6RD1mSpAzbL-42" value="SQL Server &lt;br&gt;Reporting Schema" style="text;html=1;resizable=0;autosize=1;align=center;verticalAlign=middle;points=[];fillColor=none;strokeColor=none;rounded=0;shadow=1;fontSize=10;" vertex="1" parent="1">
          <mxGeometry x="598.75" y="175" width="100" height="30" as="geometry" />
        </mxCell>
        <mxCell id="KDu9IRebR6RD1mSpAzbL-43" value="" style="verticalLabelPosition=bottom;html=1;verticalAlign=top;align=center;strokeColor=none;fillColor=#00BEF2;shape=mxgraph.azure.cloud;shadow=1;fontSize=10;" vertex="1" parent="1">
          <mxGeometry x="660" y="253" width="50" height="32.5" as="geometry" />
        </mxCell>
        <mxCell id="KDu9IRebR6RD1mSpAzbL-45" value="Azure" style="text;html=1;resizable=0;autosize=1;align=center;verticalAlign=middle;points=[];fillColor=none;strokeColor=none;rounded=0;shadow=1;fontSize=10;" vertex="1" parent="1">
          <mxGeometry x="665" y="265.5" width="40" height="20" as="geometry" />
        </mxCell>
        <mxCell id="IUoWOUFTcClM7SWvOKoM-1" value="" style="html=1;verticalLabelPosition=bottom;align=center;labelBackgroundColor=#ffffff;verticalAlign=top;strokeWidth=2;strokeColor=#0080F0;shadow=0;dashed=0;shape=mxgraph.ios7.icons.home;fontSize=10;fillColor=#0000FF;" vertex="1" parent="1">
          <mxGeometry x="26" y="80" width="24" height="25.5" as="geometry" />
        </mxCell>
        <mxCell id="IUoWOUFTcClM7SWvOKoM-2" value="On-Prem" style="text;html=1;resizable=0;autosize=1;align=center;verticalAlign=middle;points=[];fillColor=none;strokeColor=none;rounded=0;shadow=1;fontSize=10;" vertex="1" parent="1">
          <mxGeometry x="30" y="105.5" width="60" height="20" as="geometry" />
        </mxCell>
      </root>
    </mxGraphModel>
  </diagram>
  <diagram id="zBwvI463iW6-5YtVLX2J" name="Page-2">
    <mxGraphModel dx="1298" dy="691" grid="1" gridSize="10" guides="1" tooltips="1" connect="1" arrows="1" fold="1" page="1" pageScale="1" pageWidth="827" pageHeight="1169" math="0" shadow="0">
      <root>
        <mxCell id="YmJHgxNVYnCJfz81V6hL-0" />
        <mxCell id="YmJHgxNVYnCJfz81V6hL-1" parent="YmJHgxNVYnCJfz81V6hL-0" />
        <mxCell id="YmJHgxNVYnCJfz81V6hL-2" value="" style="rounded=0;whiteSpace=wrap;html=1;" vertex="1" parent="YmJHgxNVYnCJfz81V6hL-1">
          <mxGeometry x="420" y="170" width="275.25" height="100" as="geometry" />
        </mxCell>
        <mxCell id="YmJHgxNVYnCJfz81V6hL-3" style="edgeStyle=orthogonalEdgeStyle;rounded=0;orthogonalLoop=1;jettySize=auto;html=1;fontSize=10;" edge="1" parent="YmJHgxNVYnCJfz81V6hL-1" source="YmJHgxNVYnCJfz81V6hL-4">
          <mxGeometry relative="1" as="geometry">
            <mxPoint x="620" y="222" as="targetPoint" />
            <Array as="points">
              <mxPoint x="580" y="222" />
              <mxPoint x="580" y="222" />
            </Array>
          </mxGeometry>
        </mxCell>
        <mxCell id="YmJHgxNVYnCJfz81V6hL-4" value="" style="verticalLabelPosition=bottom;html=1;verticalAlign=top;align=center;strokeColor=none;fillColor=#00BEF2;shape=mxgraph.azure.sql_database_sql_azure;" vertex="1" parent="YmJHgxNVYnCJfz81V6hL-1">
          <mxGeometry x="540" y="204" width="37.5" height="36" as="geometry" />
        </mxCell>
        <mxCell id="YmJHgxNVYnCJfz81V6hL-5" style="edgeStyle=orthogonalEdgeStyle;rounded=0;orthogonalLoop=1;jettySize=auto;html=1;fontSize=10;" edge="1" parent="YmJHgxNVYnCJfz81V6hL-1" source="YmJHgxNVYnCJfz81V6hL-6">
          <mxGeometry relative="1" as="geometry">
            <mxPoint x="530" y="218" as="targetPoint" />
          </mxGeometry>
        </mxCell>
        <mxCell id="YmJHgxNVYnCJfz81V6hL-6" value="" style="aspect=fixed;html=1;points=[];align=center;image;fontSize=12;image=img/lib/azure2/databases/Data_Factory.svg;" vertex="1" parent="YmJHgxNVYnCJfz81V6hL-1">
          <mxGeometry x="460" y="204" width="28" height="28" as="geometry" />
        </mxCell>
        <mxCell id="YmJHgxNVYnCJfz81V6hL-7" value="" style="shape=image;verticalLabelPosition=bottom;labelBackgroundColor=#ffffff;verticalAlign=top;aspect=fixed;imageAspect=0;image=data:image/png,iVBORw0KGgoAAAANSUhEUgAAAWgAAACMCAMAAABmmcPHAAABTVBMVEXyyBEjHyDyyQ8jHiH0yBHxyRIjHx0hHyIjHx8VDhMiHiT1zRagiishFQYQAA4jHiL2zSN4ZSXGqUSNdyrpxTSchjMfHx4aFBi2njQlHSPVty/YvDEaGBweGRhZTRkSCQ0aEwpmVhoNABTzzSu9o0HxyzMlGwWbhz3BoSwWExLIqTEAAAD3xhAmHh1xXSBlViseEAs4KQ4XGB/qzDUUAAjTtTkhIBojHScAAAvw0SozJQ5IOB4aFyASDA7ivTOAbiUqFw9UQBFFMg0WAA8ZER08KRNiTR4mEg6nkTB+cCkxGwtFPRUgCwDZtinmwiPXtSpWQwmLfTwgHS7JsTevlD16ZzCUdiaNcDgvIRV9ZhsPBh66pVc+KgdpXT45MQ2+pCmtix42MCNrYBzUvmF8dEIIDwjt0k6PfyfcwUdzYS9NQTEZCh8jExWkhyZWQB4u+AI5AAAVgklEQVR4nO1c/XvaRrZG0kgjaWxJGDEgwJaNjBMTQQGB+Chgg6lLEm/bLO222fXGu9u9m+zdbP//H++ZEXbs1M5HA/XT3nmfPEmQQIxenTnnvOfMkEoJCAgICAgICAgICAgICAgICAgICAgICAgICAgICAgICAgICAgICAgICAgICAgICPymIQPuewy/b6gyksPQiQqFccVB8JIRjuA/9z2w3xuQrBLn1dGg3T6eZDuRg+AAgzDxFQOlZCd//HqIddoy/ObRlhsgmRBVFd5kxVDVql/CJcsalUypVupt1ufgRAiSmeO+78H9joBkd2ri0el8KzvZHeWoBJw3drKdgAiaVwpE9n3deB6RlBMU5ns/nORKpl0yGpNM1U3IDiE0wr+qLOLjJ4FkctLgFUEhkpETuPl005rZdtebWV+k8+CwgWZwLzwTYf8V+KVw6sPtnYoMCZ0KpCLSj6qZqW+0KG21jM2djU6FEBkeQ0oWNv0pQMFeafs0YK5BZqbL2HYqnezpl1arhZXcrD35UzXqywShMBQW/cvBiC6dBikEDPP8mZl2SibBGJzISY6Cwx5azXR+HBAkXMcnQHbAoncCGV25BXkpV0jffZiZto0SpjjXfrI3LwQOt2qVEy4L8fhRuCL67WQO2CQqOJGN00avhcFjl19PslXXIcxTJ9FRGPhH4E6iOZNMJAbjef24PNuOY2q0p0d54Br8NZfq9zDe3yzuJFrlSYYsM1Ih63vcbBvDFsaH7Sf1ebHvQDYoBM3H4B0WzRwEOwx/I9WJOtnJl34O0+1hucHqT31y22cE7sDdRF/3wNyLOJWv53sHvVIMqYg/epqpcifynuuzXCZ1rR4os0tBUr7au/hoQOxfhn8+tqQwzIaXnEV83Gw6r+wb32XRb70T/pB+EbI+yERsXMq1B5mx8z7K2IB53piAOXaVP7dV3cAvw7URMbBEily/FZWlYSsNQh9BtAxGTiDDdquZnyyjpGmx8UXVec+nWL0bkStAcIVD8v0HUgjzfHIlM4wFomtRh51cTr2V4cOJZuDCMUQkerVxemaV8HBQeJ9Fqynyh+o1dKKAvN/jrBsIfXVxbVAFVkC7VoH/ih/9Wr4vorlYYepRlp1gvD8xaK7ef/dg4NGQTM8C9BJYT06zRee+UxZENh4lI0qGtvv0ZeeNG1S3HrGj9f4K592HEK2yPsxVJwCI5tFRJu5pCbeLBL2rQwCnSCanSLpt1zS7Zpqetz06eOny6HOPdk02DAVrWMGK4nldSaOjRsa9nGlky9IkWko7KzSHDyE6carkul9NiqdV3yznCStI3X19MP6MoUgK3JJEY6optqfj3qSgrjjYfBxkINrrAtG2BtBNRadK+5vxckCMaExz6fcFoI/6xvcTzXrjYcj5fnOMMS2PN7GfJei9ROcUMObDkxOjPJt1Me1iPDsv3msazohWvBpunPR835phLFFdmX0TEX72noiGEKw6QeBcpzMh2t3ERlZ959oETvShonV3n2UZ6s0RpopGW/UgvMckLyFaO3yQB3ybeTrSsKb98WRO+D3eE9EpWR1nJtN051psWBJ9gGdZ5wOIlrSuX+zDXRAn2h/ECqX0UfU+s2lONDatBQmZ7K18u4n1Gi1NAj6iX5XoJI3ksom8ahrbpnG2xVLPJam8UupuUuN9RKdUINrWFL9AWNIqy0HxiUdxLfddIIeQrfJlJAnhrCwoJ90FLiRU1tVJwKOxzASbzC/K/bvKJWZS3ZLZKZmPD6Uu38KUEk9JeeBVrz3WhGipXF0K1SBrmErNHLjJh4FoBed+nWDIckgW8eB4sJeDAG1600i+QSr6AKJTCdES9Qt8HZQaqv3siYQV70WUpIshYmtImJiR35g4/BuGiZCQE8ohQFwRzZlNGhXJ02FnOWNMgYT8CuGlFmGPCI4h9WdE21q5mrwk6FUD27XWwfgton8FCY4QSbRTioyPTVyjMNGqqRUQLcvFhqbZ3YarMsnI+pFO4BY7BVANDrmkKeUQx+EvuUEjxwn6fd5y4GkmnHOCVDIhgOMgKnY6BbcPKhQluYyM2McdNn6n4roswFwf5VtEq6HbNLW49cM9EC0HbqcTsYGTwmsae3aN+vmbjH4E0fqSaCYVUaWpg38cfa0iLn0qF0c//bC529gcTLKdfmLU6sPvHn//fbpIUonnCP70/ffP0nlnSfQ4/ezZs+/HLBuCfD56mH6xOdr98ou9byuXRKudNHziu6+J00l/8cPgufNOouFWDsCW/jit/OpEo3722LKac7hxUmzgGHc9OmI58zWV8UssGkwQVV5QU8eNr8FHIxRsPfVbpodN07SHo1G9yC9G8r3S7LCcdRKi5VePZoetP59WuBMBtQFnZ1N4BdcjnUmvBVfQlNpr67xKlkW5/V5rNutd9OejFja3d/o3k6O3iEbqYlQz7VnGWR/RwV4rdxrIy7YsL2YAl2Hw4FENU/tRHsJysUElBduSD0TfcHScaJZ6vms8jGhFx+1C4kFhokcHFPRLY8wKTtHjR9u6UtNAOsIxrTsbLBzmTt1BK9ZKewFiDhjJ8zKlmB64XCfJTj2n42GG8SD35w3P1Goe7trU7JYa+YAHV7LvayD3tvJ+l1IFiH4Tx6+IluhJFfEoiqLTnBYrZ50kvVsH0cjJ/Ln83EHLKJ4kGmB6xc2aYmMcn1cQ+FRq29i0/Tz42GuW/+FESxIQTZJUQJY7lokxHlTAXVf2RrSrS+bMaJ8YJbum49qTDmhQ1N9rxbbSjPiTRUF9qGGP+tVkeNG5Dr5oC54AceZtU4pxrj0YHLZMRTHPqsxp8wVYCh795dyGRE0p7UDedn3SJhYtnSwIVwnu89cmjq2Nfrg+i5bdbFJ5IJxnh7AgrZILSzEVSZfaf5DJioheZgFycGSwRPof/TDVz5Qx1aXD5tE8n8889T2Termpy4iaG7GptxcwKhhjNFBimFTgp3jtuNOm8KDGEEfV6pdmrMe7jxdjt5M58ySzNKmwVIUTLW3+9ZDCM2j6EzClnxHt6e2/QAzubGVfDCm1rUy0vLt1EM3WcDgqWhbmovzLjQJhM/LCwoqmKebJ1witgGjuOlCyFGqr4emUFUkQWbSpqeh+uuhAvuBED3ZNs4bBM4NhFc4UUzM2ePlaXbQlRVJ08HEw9UL2EOjsH/0UCqNJCcfds/0+gRTNmY/sGrb24eMqJ1rXdOynO67b+RvLA992HYpWO/vy7KzdBpUQN87zlUvvshbXkegznvuTztQ4bLVfQuhFF2Vb0nSbtgspRjQGopVPs+gim6UkiOab1PSk0rkLL3aGumIa6Yh11eGPszEyIY8cuPA1wcTr6sO9gPWcnOzM9v6uSfbADeFUPz2kWntOYBbme9hTTuZg6EypRP94XaP0tM/mJxAtSVQ52QggR2TtBlV9m2id4i7Gkilh8Bt//bFyVSZfC9EhW6PE1RVxpyDhqPToW4JSD8uSxEbKBF1xF4KXbpq/nGgb64ff5i/y+flR88SkmhQ/egi31fFtW9o+j1Su6uAylVPw09TaZ2I9M8N6a8BKl6gymdVe/zPnKX4VCEVRk0oQS8FIoqcQSbvfRNwlqcipWnYstV+xN+37YLF6Lh0k/b/UzdQo8dE2xbFpe56JJW23PWEmjfjUXoePZssX+SgRybepp0AAnIAUYEQD1dgvgMBgRGufQHTOlCTP8H3fsgy4qzi2/QcBfOOGQWuSMSdXhUFn/38kDx8+BqFBqj7VsMU1cnFTqTV/3FV047+s+t3xqQ2uWEVhse11sTVXExWJQrfhebhdJeGS6O3dV+qtY1tKcJozAIeHJTOOu8NefczasWq4DqLBXKr5KgiTUCZZI7Y909QOKqp8wYmWVkO0YYMRYxpDCAOByRx2FngGaV+isd4oXDWbIcE5AKZKOxW4eDSgwGwWQpicH4Fp/mtKaa4esDhpYTMHcRGFeUPStcaPlUolqjD864XXhScnL4nWS5B53zqoJdG7zzY2NrIPjiY+jEQzZ6d8We1aLJp0vmmXy0+roHWdB7NY0yWsH/TlpUWviOhD01Q0djVc08zudvnpRcBaB5WfqK5Jn7vhZT4AT31aqunKAO4X9dM5U2vtwc0G6Rlt54N0CdtfuKCt00PJPKmCW3ayBiTL3udvEJu4Nnt5adH6YfZG9vwW0bpnLVjH2On3O+k2lhSznA1YSWUNPhq50xJEutwTcMVAtA5x2rQPwFctLZquiGi4C2NmGUa5Zx3v5V2Qb+BH3S9ivTbciRIdw4kGI5d0pRGBtZL8CY3NY5eEUdOLN8do7pvgSuSwco4luxnBR5yjITZpF5eGpZJpDj27ZNIl0TIjGvf271hCsvTR1iLJOCHn/JNBtRjiMK8LrJZoUP9gExbWgMRyhsjOAwMIlSTlAAxqadFSEgyx4n0S0ZImNZ7NN+bz/Xwn4iKN1TzdQRybQ97evbyAszeUPMlyWT2r2MYaqxijxYlXAvE6bpj2KEvCwqEWD58zsUyODu1ubCq2AvmDYto2pDOKZiREWyBIrId3LHpNiGYhINlVCXLiBTY13cpDnqmug+h0DrQ1NkufBeA6wEfbkGsA0ZeuQ1kR0SyPJg5MU/XSIUOa4TZxbJf2+rzSzN+qOnslBczXZaqpcgqSHDQKOIgaK6kEk6G9De/O97QYCAEGyVFLU+LaJsPx5iXOXkKGjoBoT7cgt7mbaIXVo5MvTqnB46Gp08Msm2rrILoORNuS2fqsslaiEwmeSkr5yWFZrTRNrbb9OXcdyytWJqWuxnQ/kzZZg5q5z4Jgp6S1F3JIMv/RtwcR2IamnIH3gceSmVFJO/uxeIXxuFAYf0VYegcW/cFEs2JwFgKrdPjcWRfRQ5bF6a3PApms26J5yUq+3AmjqsFpTqvFx6wWurwAGT/RbS4AQ7h8B3yHvhnB12uQa6dIvqxp1iI6rym5PVYGU1Ms/zDbCyYGkio0WwqV9FmWRMsfRrSskgwQjXNHayM6F2ua9DOi0cot2i8g3iFBy9I+/B/ujUqxke9frvBgqXzNxEbGgQQNhMkU63Zvse+z9h1I7+hA6Robr3zNtjbAO8Dwqz54//KG82YA3N+zIvrHEa32mVbSIZ0kqyeaddOAaE2HlI4RDa5Dw7ayHtchsfRlmVok94Zk8tCnWMlNIItnHWDINII6yD/JXzAXA4M7Kumm8eBxTrMehmD1wTdDqfTvv4y0brvDuiIqcY8h/W095RKe973Ysjm+HedDiK7p1iIpkauov9WQ7DjuVdmH10L0UGeJBvhoxIgGaciIVldMNFwUiL6xU5E1V9wX27TrtTN9OeQL34P5CUi04SSS+eInOd+jePuznzy8OQ7ZZMjOtPjFP3cleAeELyAIHoyk241MRU2FfNl8Su7/AfF4dkn07Xv2GNF2F58sSLLoKli8ULxurHwesQbBr0G0vR6ipZ8RDTyFzrxNQRu2jyIHPCuJ5sc6xdTK85wE/ioOIPf8+w+8nMzqBAtLoZv/u41nGTbB2aGq35VwrZ35FyuJENUJOnvPnSuipXcSrUhaeyuKItcdL47OtiHbi9vgxljq+Xsims191tgAUaIY08zDztbGzokHrsRIB+GyxtSvDxXWFZ5tEO7go6aJtW0qtau8as7l439MrMezabYKOcdiftooH/WvWzR5B9GK2R28ePH5580D6xC+GGsn6T7vf6zHR/8aREuJ61CvW7TKKvHF6TbFOqWHZas8yym0azZOXdYh4P6czC3bwyZudxjtoATTLVOjsdd0uUtm3bfi9DU2QasYo80fznxjSFtvLNp8D9GepDMxub2NMdVqpt6uR8zJJ0TbKyRaZt23oaLFWre0Lh/Nyq8ZA+iB9O7mwiTGQCiPJz0M9ylB6oNtsG5rz5Uvd9Yh1Nk1ISUaTivJag513qN6jIfpPlvfwVoviBTODdOONbiE53VNjGegGVnDiwkWaXRx13ZIIFr3ajUFUKt5ilZTWmfZiP3CAFsiAkRrjOgV8YySNqcC3ObWZdFgxU6mN8y1LEb0LYtHopeb/hBEmWJ73rA82IiuraQMo6czOsyVjy7XZnWs4bA0e5Qnb3abqMW0n7NZE9LuekNjd6fKVyaR/UetYau3paJbxwZqCC41HLYYSq3/6bXPM8X+5UJ0das3bM3KKyQ65UCaDoIlbv07WBPRgL/Vv6vX61/duvWGkODVxumgUS6fnDX35q5zI14683oaPlpddpjC4Ahe/7tevFo7wEJkv5OZHrRPylZjsJNZREkBWq3C59L1zuWKnLfvnTzkg6rzd6Uz8wXbZbaUPSlSgKPf1f+7ot8s4fthLk66WJJMVjtYE9Ep2XH6juOotzg8buNhKnALi0VnzH5l6Hq/SUUhW8Ua9JMvBcmCnMCBPywVvLwab4FFxU6VLVUK2G9C8cwZqYHD3yrfSjRLDQM2qgS8w6Neba2Rlx9e0VYbmddSMn4Jv/bTMGPX4qO56SG+oij8ubtkkpz1VxLBwbXDDRuCI2EYLqcCC1TsNd+19Ibo5eLGq/CY7I9Ey7ZR6vZ4hpJFlClerk5iL8snL9sxKm+2r25zMFurX8mfTk/nEVus9mBEcezZGihDcnEr0UwmqHx5IY9YIMyA6PcsvlWTPUZcZt+yD1pe7vNDyZ606/4l+aEF+bLPxd/K+bv+eV6nWEpvXrTiZ3mdSlXv3JzHl6epyTJVvsY12QJ3gxk59e4lWB8HYADmEF+PS/4L8bvWNWkzuEuCE5lbFSeFbWI5xu8nWoCDm6bMFrmqpPOlibux1j5y7qx1sNhTYEvKCSN64bOOtSD6QyAn85E5LBRsWLSFT6bF1F0+GqZXUO819ubFioOIO8mZjVcIvctHCyyBrlb2s45d/pvB9KjImjmJj9bfdh2psOJTM+dv7szz8+lQN1hbWvyq1YcBvdluRQK3wha4ErBoXQMZQH3IWYsNLCkaxkA0eI66NTMpbRmj2R/N7WYRCYv+ZeAJkSovLGraUozbrowKDaxLGpZGQLSqRtWjZvk/NTipzM4Xt69PEfgA8E4piqavMVXs4V6QkoFoCYhWRnm+TlN2okXmvGE0mi8jdSXS6f8jkp0MkC0vNg9bLeMcPMelRTOiE0eBQDgXOsXIufcfKfjNIimrsHomKTz/aZIZM4F0adFMGTLXol7F0JT4odhPQrJzLNkty4mmmqdR07rgW1jQ8gdFks2A9z3W3xGQO23Rmqd3j4s3I5+gebWQSb431CjuZftvnxFErxTIyZ+3ywcb0dsnBM+rBUKq2+ncqMkLrAPJfgPxk4ICAgICAgICAgICAgICAgICAgICAgICAgICAgICAgICAgICAgICAgICAgICAgICAr8p/B8z46DoWKaQ+gAAAABJRU5ErkJggg==;" vertex="1" parent="YmJHgxNVYnCJfz81V6hL-1">
          <mxGeometry x="720" y="212.67000000000002" width="60" height="23.33" as="geometry" />
        </mxCell>
        <mxCell id="YmJHgxNVYnCJfz81V6hL-8" value="" style="rounded=0;whiteSpace=wrap;html=1;" vertex="1" parent="YmJHgxNVYnCJfz81V6hL-1">
          <mxGeometry x="30" y="100" width="350" height="450" as="geometry" />
        </mxCell>
        <mxCell id="YmJHgxNVYnCJfz81V6hL-9" style="edgeStyle=orthogonalEdgeStyle;rounded=0;orthogonalLoop=1;jettySize=auto;html=1;fontSize=10;strokeColor=#0000FF;" edge="1" parent="YmJHgxNVYnCJfz81V6hL-1" source="YmJHgxNVYnCJfz81V6hL-10" target="YmJHgxNVYnCJfz81V6hL-12">
          <mxGeometry relative="1" as="geometry" />
        </mxCell>
        <mxCell id="YmJHgxNVYnCJfz81V6hL-10" value="" style="shape=image;verticalLabelPosition=bottom;labelBackgroundColor=#ffffff;verticalAlign=top;aspect=fixed;imageAspect=0;image=data:image/png,iVBORw0KGgoAAAANSUhEUgAAAHEAAADfCAYAAADBaDxOAAAgAElEQVR4Ae19d3hVxfY23/M93z+/P27vv1vUq9LTi4WOiAV7Q1QEFYEUSDspdBS9ol5REQGVIh3pNSEhvZDe6TX0kt6TU97veWefOdk5OQSQI8k57Mkz2WVmT1nvXmvWWjNndg9oweEp0MPhe6B1ABqITvASWEBs1lfgXPUunC7fgjMVWuyONCir3IZzlXthMDa3e/UsIF6uScOeU49jfc4QrM8ZqsXuSIO8IdiQNwSNrZeuB2Iq1uUMRk3jMeiN9VrshjQ4VxmNNVmD0dAZiGuzB6Ox9Uo7lLWL7kOBSzWpNwdifcv57tNqrSXtKHCxOlEDsR1FHPBCA9EBQbNusgaiNUUc8FoD0QFBs26ynUA0AVBH62pu/VpvbERZ5S5UNpTe+sN32RO3DWJ14xEkHp2AuKOvYd+Rl5B1Jhx1zWc6JSM9C3VNpzt4GNQP1TWfx/rsocgv+1B9Wzu3QYHbBrGscjc2lwzD/qNv4MApHTYXDUfsoTHQG5vM1XXk0Ms1SViXMwRXqjOtmiTzQhiuWwpGovj8lyout8quXQoK2AVEeguu1uYKYscdGoutBSPRaqhDdeMxpJx8H9FHnsG+w6/iWm0OaptOY0fRM9hUPAy7jzyJ4nMECbhcnYG4I2Ow9/AonLi6Ds36cmwvfBqpJyYj7vCbiD70Ii7VJGuw2aDAbYN4tnKvMDSTjo9Hztlp2Jg7HIcuLhFVMS3nbCQKzn2EmMMvYkfRKAHigVMRWJ83BFlng3ChKh41jaewtfBx7D82GsWX5iH79AxUNx7H9sJR2Fz4GLLPzMSu0lHYVfycisNt9OYuvXXbIJZV7sXa7CHYUfwk9pS+gN0HRyH+6Ftoar2GxtYLyDk7HTuLR2Fr8QhszBkOvbEBFfUFWJszGBV1JYLs5Dy69irrD4lrg6kFdc3nBEfnnpkr7pWeX4R12UPRpLn/OryqdgBxj+BEznYwXK7JEqKyrGIPcs7Mxk/5w3GyfCNST/phQ84wtBpqcak6EevyhuBqbYF45tjV1aIMcqQSTKhvuSBALD6/QNw6dPFbAWJj62VzHu0gKWAHEHdhff4QZJ+ZhlPXNiLrTCg25A1DRX0RMk4GY3PhCJyt3IP9R97AuuwhaDHU4FpdHjYWDEX+hekiX2V9KX7KH4bUU5NwunI98svm4VpdPrYWPIGCs5+Itpac/0oAbT3dIjtyNx9vG8SrdTlCAdlSNAKbCoZj76Hncbp8m6Dptbpccc1xMvHYu9hb+go4yWw0tSL9RBhiTj+JgrOfirwnrm7AtqKR2FQ4HEXnvhCzJtEHX7WMr0cvr8C2wqfRpL92N+Nls++3DSJL5RhGk8JgaoLRqG9XkcHYarEHlZlnmhFKEPlNrfJS5GszTSCuTSalPKNJr1wLp4LlEe0EgF1A1CjZtRTQQOxa+tuldg1Eu5CxawvRQOxa+tuldg1Eu5CxawvRQOxa+tuldg1Eu5CxawvRQOxa+tuldg1Eu5CxawvRQOxa+tuldg1Eu5CxawvRQOxa+tuldg1Eu5CxawvRQOxa+tuldg1Eu5CxawvRQOxa+tuldg1Eu5CxawvRQOxa+tuldg1Eu5CxawvRQOxa+tuldg1Eu5CxawvRQOxa+tuldg1Eu5CxawvRQOxa+tuldg1Eu5CxawvRQOxa+tuldruBaFmcbzKaf9lr3T5LDusEx7w2mQCTASaYYLhOj+9Ux+wGIqHTQtdQwG4gWvMZQW3jyfZXN+oqy+IbfqO/G5XD9BuVcSvp7BHzszcW7qPkET/6MSgbiNxMo+ycx24gtvuxElFgT+VNBZVbaLosQIJv68g8NxNsPftz7lF06sH/fFrULvql3DdRvFoSbqZd9stjdxDb+sEe8mdrfGedJyivDsdDW33iz/BsJtjKbLd7dgORgoZBr7CguYHyjbdbe7ttQaL35MYuCHYD0WRqEc1vMAGrYgoQtjgF01cWYNrKPET9mIuoH7MQ+eMBRP2YKc6VYyYiV7ZFmTZtZRamrcyGcuS57cgy5TNt5+rymX7jaLt81t8Wo37MRsQqlnUAEavzELk6B9NW5SByZS6CF+1DUuGJrmBCQXO7gQjzL4QbTcD7C6LxwFvb4DY1A64BqXDxT4WriElwDUiAa2CCcpTngYlwDUyE2xSmJcI1gPmSO4+BSXCb0vYMz2W5LgHKuXJkeclwDTRHWS6v5bmto8wvjilwDUxVyhBtToHrlBT0D0hGr3e2YuI3cThdUdMFglRhe/uBaJYkLSYT/JckwCUwAT7TiuEbkQufiHz46IrgoyuEd3g+vMPzzMe2c5FHpBXAJ+JmY75SdngBfMJ5XqCUq2O5tiLz2YhW9Xkzj+WeLLcQ3mGF8A3Pga8uG95h+eg3MRaTFqfgUqPyk3Wjo4tTjn4MzTAiYGmyeEu9I4vhE54Dn4hceIcXwltXAB9dgTh6k9C6fIWoYUXwDiuGN4EOl+mF8NHlwluXBx/mC8sz5+dzSh6RN6xAEJTlirLD+BxfGuU5UY8ZUJYnylQBLPKGs30sX3kZeK68VCyzED68FpHt5Xk2XCbHYdLXqbhY06AYMgYThIZqpsOdPNiNE+WQThD9lyTDZXICfCLNHCKIVgSfCBLE/JaHKxxKjiGhfMNLIThAcAq5ljFHEMxXlwPfsFwzFxEcchyBJLgKeIK4BC6sCL7hefCNzFYBYW4HyyCQkazbDJQuV3CX4GJdsVI2pUckwSoU5Slcznx58I0ogcvkRIz9LBany2sEVkaToausC1G/3UCUA0IzTJj8XSJc/GLha+YO+fb6RigizjeC4JCQBYLYvpGZ8I3IBo8+ETnwjcoSR2/mYVpUthCPiogj8cnd2fAWACjijhwvRLfknMhcUBIIsAXQhfDSlSp1RmQJzhP1U1KwHvGiEew8IS4pPQR4Oor+QnhHFMM7shD9/ZPw+vx4nLpWLQhoMBrNANLsoIkhZdKd48VfAEQjJn+XBJeABPiGF8FXlwff8CwBkjcJrMuHZ0gmPIKz4RGcC8/QTHhxjBGAZSlcYgZRIWw2PMPS4RGSDY+gPHgGZcIrNFOIaT6jcFwOvMJYXhY8QjLhGZYGz9AMuAfnwD0oA54hWfCKKIF3xGGINggRnw+fyByL2FXqUsZYjnuKODZzcEQufKMKBIAvfhSDE1cVAI3EjSKI/0Sk90bKJEcE0cyK5MSAJUno758Mn8gS5c0mh4VnwzUwE/394vCwLh5PzE7BEzPTMSg8GZ5Tk9HfLw0uganwiqAYzBEvgI/uILxDMjFkejye/jAZT81JxqgPEjF8VjK8Qw4oIpFiMzwbA6JSMHJOMp6ck4An58bjqbkJeGp2Ip6YlYiHQ/ejv18i3IOYlxyWrYhVjrlUYCjSed8sYsl5PuEU/wXwDc8W0cU/Hi98sAellysFOmJ/HQEccbM44e4ccqqa7MeJZinSBCMCCaJfijIGRubDPTgT7n578M7CdHwVXYI9JVdQfKkJRReakXikBquTz2Dh7sOY+dNhjPwwEz66NPiG58MzuBAPTY3BmsyTOFLZgqKrDThS0Yy4Y5V4LCJOlEsOcfVLwvtL03GwvAmHrzSi9GojSq804eCVRpRcbsbeosv4dFshnpkdA1e/fYKLH9IRnByLFiu1Y46D3uFS7FLEZ8HVbz9enLsPpRerBOmEY8NIX6nijeK14lVVUfYOntodxEazYtN/chI4BnrpcuA1dT8+3VaAa83m3aMsIofXbWNIjdGE9xYXCnuMXOHin4bxC5JRp5dvOo8K4Wb8mAsXvyT4Rhai73uxCFsh90JleTIyb9sOV0cuVWLs57Fw8d8vlCaOzVRWvKQ2GkaliSAWwScyS4hqjoFPz4lFyblyAYtBetyEGKV9zzGxVZmQuvOSVLTJfiCKeUSgCSb4LUlBf0HgIgFI6PIs4UVljXoxkChkboARLSoQS86XY1BkLDzCOMYVwj0gHkvjjyvvtJgsMMGkVyiVcPgqHgmJhWdYHvpN3I+g5SmQn7syCMdDG3hypoIFna6qw8ufxAvjXWifVGh0+UKZof0nFBqOlZF5QrxTPGeXKRzIVov3zwwgXxVlNpG7LLfVpzT4zv23G4iSuQhKwOIUwSUcbzymxmJblnlPcKMJTXoTfko/iqg1aYhYk40Z6w7gs60HsLPoPOZsyYfn1Dj4ROXCPSgLj0/bh4PldWYQza+5mXEr9QaM+yIR7sHZ6Dd5P4JXpEJx/HGvOQOqGxtRVlGPc+W1aGhVtEa9UZEEO/POwz1gn5ASVGB8acTTjOH4GqVouS5+KRg2bT/ST1aI+hUzwuwhNjdFHMTLy5kMBnOC0uI79t9uIJppixaYELgkES7+ifAIycGQGRlIP11r6eDJy5V41H8t7n9jM/pPikP/SfvhOjkWD4Ul4KHwRHiHZsE7lNyVgmmr8kEPEF8Qg8GIqtZmNLS0wGTQC3KtSDghXG/9/GIRvCxVEbQmZXxan3ECwyKiMVi3B6E/pOByTT1MZmlx/FoDnpmXBo+QA/CNoPZsNlMiqe3mwS0gDY9FxSLnnNzHXMFDPG8uw4IQcZPRcvPOntgdRI4OAUsT4OKfBK+wEnhOScG2fOU7UwSjrrkFi3fk4Nk50XCfQvdcpuAmt+AD8IrMxUNRNCNy8FBQDGKK5afkDKhp0mP26hTknrwAmAl56FIdRs5KQu93dyBkRYpQLkg+0nRp4kn0nhCH/v5p6Dt+M6Lz2r4QUKE3YcL3uXAJjBcmDcduaXu6BaZg5IwkpB+vRsL+WHy5YAEWL16MY0ePKciYTKioqMCBzMw2vjOD2NDQiNWrV+PLL7/EwoULxXM8ZywqKrIge/jwYZw8edJyfbsndgNRmSoFWoXvlCZGklAQ3AJSMGdjoTJiCG1OUUzOVNZhw4HTmL2hEC99sBOPhMYIQKneuwWk4635cShvZV5l5Dl8sQ4PB2zD93GHLKMoaTdnbRbuf2sjglZmiAlbKj68/0PCCfSZsE+A6OG3CwkH2z5Ydq3FhPGLiuAakCI4kebFQ5H5cJuajqHT4hFTchWff/4pQoOm4qeffsLqNWvw5htvIC4uTtA7Ly8PEyZM6OBma25uxr59+8QzkZGRGDx4sDhnGSdOnLBg9d577yE6OtpyfbsndgNRao16k0mMif39U4RyQMN+QEg0NmSeMiseJLEUvgrJrzU0Iq70Mt5flAfv4DT0ez8B3+45LHIp/hBgWfxB9H13GyYvTkK9Sn4lH7uKfu//hIBl6UJHlO2IzT+H8Z8nY+LXWViecAw11HDFmGhC6cVaPDY9Ax5TFZcfnQZuUzIxQLcfew9W4ETZabz80gtobDKPxwASExOxe/duQW9yVVBQUAcQ1WBkZGQgPDxcfUucE8zRo0ejslKxNztk+Bk37Aiiop1R+wxYQgd4Enyj6NLKgfvUHDwcHIMZ67OQeOQyzjfqbepyNQYjPtlegqHBW5B9SlHpqVlWthgwYWkqer8XjWEzE5ErtEVFhl1uMuK5eXsweVGMWQM2gmZAg96EivoWNDSbXxiKYKOi+nyfcARuAXHwDi2ET0QR3IPS8XDQbmwyK2Anjh/D8OHDkJ2XY5OkhYWFNwSRXDt16tQOz2/duhX/+c9/Oty/nRt2A9Fott+oiPh9z7EuTvg8FYP6ENyC8hRXXGgcxixIxbQV6dicfhLXGprFIKbXK8S+XFWD1dHpqG1phdGgiN6Ss1fxaOB69B63Gw++uQ7rkw8rfabZAeDTjfGY8uUW84vRKuy2Nl7nWdtVysmrGD4jGu5TU4RG6h6cgYfD9mJV8lFljDOPt+s3rMOAQYMwNTgYsfv2obmxTcm5HRDnzZuHmJiY28Gsw7N2A1GKsWaCuJQOcI6JxeJN9wnNhk9IKvr7JaDfxHj0m8S4Hz3f3gD/L7ajuqlVAMClHUZDIxpb6mAwGWEiSxlpLjRjXUIhFm49gO93Z+PY5SoFFiIIoOjkWXy6Jga1wpTQA1YfSGaemuZW7MorwzMfxsM9KBU+4cVwnZIBd//tWJF81PwKsj5zoQDOnT2LZT8swxtvvIERI0bgwIEDSn03IU5tceKlS5fg7++Pa9fsu4+5HUFUOt9IY39pKlwmJsMnvBQeodl4dk4MtuSewZzVaRi3IA1Dp6VgYFQKnvkgDgs3JaOmkRNY3PPbQFtCeGU4FhrJaVRueF8VqLo0m4BWs/ukpq4e2YePK/YgOclkxMFz17AqqRRr045gedIRjP8qC57+0fAMTsFD04rhGVYCd78YfLM9S1GFaMpwRsJkQkurHq0tZu+Sud61a1bj+eefR319PQ4ePHhDcbp//36RR9VsocxMmTJFfcsu5/YD0fwC02PjT48NQYw4BJeAFESsPGAWaEZcbmxBwZkq5J2qQFkFIVdefgtOdGsZTTAYTaCEbeOL9mKRVy16ch3HVxP0JiP09OaYOWnF/iPoOXYz+k6MFv5S14AMeAbToZ0LT10W3ANi8OX2fOE0E5SkK9TsDTp2/ASCg0PQ2irdB0BFxVW8+uqrqKqqwqFDhxAaGtopALm5uR0Um//+979CW+30wZ+RaDcQpceGsxj+S+Ph4rcfXrpisV5mU95Zc9MEv6nGKAkR7wNNra1o1esFRxA+8h/HzbnrCrA+/SISjzVgZ1EVvtxRik/XpeFibb1iFRqItglGimDz67Iq9TzcpmbBU8cVA9RCOXdZCE9dHlwn7cT8jQfQaqAyZnaGkoMNinnS1NQEP38/fPDBHOTk5AibMDAwEB999JHQSIuLi/HCCy8gOztbpDMPzQ5yqQxZWVkICAiQl2hsbBSKzqlT8gMulqTbPrE7iDT2/b+jb3IfvCPoA83AB9sPo+RCLejgrjUZwJkO+jkpROthxIVGA3Zmnca6uCJUN9Pno6giV1pa8eqHe9FnQhy8g5IxMDwVj+rS4Oa3H56TNiHphNklZl7hqpSpPLsy4yI8gtIVR3cYvTKFcA/JgmvAbny8KQctBJ7uATEbQTryBVBm6HnV3NyEpUsXIzxch5kzZ2Lbtm0wUr6DXFmBWbNmCU6jGcE4ffp0nDt3TqTzH8937dpluY6Pj0dUVBQMZmXNkmCHE7uBKOWeMPaXJoHzb76RnOrhZG0iRs5NFr7OdxfEQrcsEx9vLMTMlamYsCAar8xPhU9ANF7/PAcfbzuMT37KxydbiqFbW4KBEYnwCjsAL5oqITnwDC2Ad2g2vIITMe6rHMzfVISPNhbjo02F+GhDLj5an4f5W4vx7qI8eIZkCA3UO7QAnmFFcJkcjbmbcsCZFhEMNEfuzCTSypUrhTfHDph1KMJuIErBSO7y40Ipv2T4hiljEDmSfkp6Ytz8U+AWmA63KWnwmJoKtwAuO0wTzmiP0Cxx7j41Fe5Tk+A2lcoRHdP0aXJ1AO1Oush4nQnPkDS4T+FSwnS4TU0TZbn7J8M9IBWewQfE+Mc1PR6huXDxj8Os9fmoE5ygiFAOnxxPzZB2II6j3LAbiGb/vhCRfks5FZUGXx2XZ3DGXFl24R1eAu8wLpMoEDMVPpGcPSgSi50UgJR1M16qpY2crKUyosywE0QutOLSCq6/4bKObHiFFSgxvBieulJRvuLYLoZXeAH6++1DxKoDqBdKLkWoIrKVH8fwv2MH+4FopoT0nYo1NlHZYm0NFzUpK8wKQeC8Izjhyhn8PPNSRS6RUGbauTTRJ0xZoihWtYmVbeQ+8+o0zjqYF1p5czETvUJctkjvS2QBvCO4sIlLMIrEwqh+E3chZEUGqpsVjxKXFRr5wxj+tpDzjvTnSq3MQbH8RUAMoInhnwzfaYroU1aikYuURcNiPQuXI3KNaBjXpirrTeU1Z9vFOhixEo0r2+S6T3KhuQyxRpQKi3kJI68j6MjOhS8nlUML0G9SIqb+kIHyJsXmMxoV0WlQjBJFCxbKimPzot1AlG9zCwwIXJqO/v6Z8I4oVdaUygXAFK/hnEVnzFVmEIS4pMjkYiWCLrlOEZvKEgquujbP+4l8XDXHxUwUq2bxSg4V62by4SWUmH3wW5yGyw1mAAUHcsJY0UKFDiuXWlhxoF6vx+zZszF58mThYZk4cSKWL19u0U5l9r179yIkJETk4axFbGysTBLHtWvXitkOemlo5NPlRvtRHVpaWrBs2TL4+fkJk2TJkiWoq2tzvKvzXu/cfiAKa90kxsRJi5LRe0IGPMLoscmHZ2gePEIL4S6uC+ARzJgHj5A8eOjy4RGWC08uOQzNUo5hVEaKxTMeoXnK8yEF4ugZmg3PkBylDOaj8R5GrTVX3Hefmic4cPzCVJyv5upsQG+gP5U2oPLXZhuqnQltJKqpqcHrr7+O/Px8YSpw/o/TR+vWrbNk4nzh22+/LWxFmhME58UXXxS2pMxE04OmCdPPnj2L9evX48knn2xXDm1POg5Onz6N8+fP44MPPkBERESHF0aWaetoPxBF6Sahvoct3Q+fSTswMGw/HtXtx4DweAwIj8WA8DhxPjA0HoNC4zEwLMGSNlAXg4G6fRioi8MAXSwGimdUz+kSRNogXTQGMW+Yku/R8H1Kft0+DAhLgG9ADN7/KgXHKhqV/gpuow5qUGb2Of7RxSb+mIWitL04JYjkwupqZX0pc23fvl1wC88JGI19em/U4cqVK3j88cdRUqJ8ZnfOnDmg0a8OnIoaNWqUmF+k3fnSSy+1myCmU4DOg1v5SYDdQKTiR3+nwaRH6ZlLSCw6jeTSM0goPYv40nNILi0T10mlZ5FSWobU0jIklZ5DYuk5yHsppWeRbIl8Rj6n5GVaUmkZEkUelleGxBI+r+RLKD2PhOKzuFSteE7MExKiXcIaJFbCniCEFLO2f91LEN9//33Qu0LRRg6hwb9p0yaBxxdffAG60GwFTjNRJDIQxPT09A7ZKKppNzLQE0Rxe/nyz//Mrt1AbHuf27/VHXpwx260tcPSNssJG2FOb8tmaRndbs8++yzGjh0LjocUrRzT5ETu559/LsSk5QHVCZdn0JvDMHfuXJsg/vDDD/jwww9FHnI75x3JkQSUM/4ck28l2A3EW6m0u+clJ06aNAmcOqKbjCKO4JD7KOY+++wzUGmxFb7//nt8/PHHIul6nPjNN9+IMtTPX716FQT3qaeeQnBwMPgi3WzQQLRBKQkiCSsD75EzyY1r1qy57iwGOXbz5s3iseuBSO6mX5Vj4pEjR9Da2jbtRW31ueeeQ1JSkqz6hkcNRBskoojjOKUmLtfVUKxyjKRC88orr1jW3MgiNm7ciJEjR1oUHopTqeQwD0H78ccf8dZbb4kZD16PGzcONFVkqK2txZgxY4TWK+/d6KiBaINCDQ0NYkzkuEXRRxuR5sSePXssubnkkGMYRSzTv/76azF+cq5RBtqFzPPVV1+JJYxUaMipZ860LZ/k6jhyOEU0y+DLM3/+/K7RTmXDneXIpRjkLNp2NOKtjXT2k/OHTJORSxbV4dixY0KjZRksKzMzU51sOSeozLNhwwZhm1oSbvJE48SbJFR3zuZQIJpa2mbOuzNR73TbHAZEY2sL9Odz0ZSz/E7TqNvX5xAgNuVEozF5M8iJNYtHoTH5q25P2DvZwG4PYlNJCire9UJzkWI3NcTPR2WYK5qylt1JOnXruro1iM0H03FtjBsq/AbA1Ko4tPUXClA1xxOV09zQlPlDtybunWpctwWxuTQN5e944toTD6Lmh8g2ehhaUbv8JVRGuKJqpgeaMr9vS7tLz7oliM2l6Sh/xwvlL/RE+Su90Zi+rR08jckLBCdWzXJH1Ux3NB74rl363XbR7UBsLk5BxTueKH+pF8pf642K97ygv3K6HS76S0WomueFqrnuEEDOuLuB7FYgNpekomK8J8pf7IXyN/uIY9W819qmjSSUhlbULHtF4cYPPdqAzFgqc9xVx24DouBAAkgOJIBv9EH5C71Qt+kLm4A0pn6lgPiBB6oYZ7uj6i7lyG4BYnNpqiJCJQcSwNd7o3xMXzQfyrAJov5CIao+9EbVHHcFRHKkBci7iyO7HMTm4iRUjPNoE6EEkJz4ci9UBg2FsV7ZybADkka9oqVOd1NAvIs5sktBFCJ0nHt7AAmiEKU9UbOo89/yNaZ83V6kEkg5Rs70QOOB2+NIzu0dPXoUpaWlIpaXKz9Bly8UF0bxt4pMZz7r2XiuAmAe6/vyec4nXrx4EdazHzL9Zo9dBqICoNUYKAEc01uMjQ0Jazrth/5SCarmqUSq5EYpWoX58fOB5KInTv5yuQQjfzHMlWgMnBzmuhiuF5XpXFzFJYoy8CVwc3ODTqeTt9od+XO4e++9t8N61XaZbuKiS0BURKh7eyVGAsgjTYt33KE/f7TzLhiaUbvcrKVKAOVRciSVnYxvOy/nOqmffPIJUlNTLamcwOXkMGf8uUyDyyzUP1XjHOTTTz9tWZ7Bn3U/88wzAmyuK7UOnFDmmhq5K4d1+s1e33EQm4sSlTFQrYWqAZSmxaznLT/zbm4xIa9Yj4qqjkvTLFrqXLOWKkGURzoECGTaopuliSUfZ9vT0tIs15y8JWdy5p9LOLiYynrtKSeP+Yticip/x8g8nKnnhkTqwBUAnOnnEg7uqHE74Y6C2FyYgIq3O+FACeYLPVG77iNLv66UG9FzSD3ue7QeE0MbsfqnZhw+rkdTiwnG+mJUf+GDKoJI7pPgqY9Sa02/NY7k6mwu0eCipp07dyIsLMzCNRwfbYHIhU7cqKigoAAUp1xDQ7HJvOqFV1wRxzK5JEMurLJ0+BZP7hiIN+RACSBNi9F9wPwynLtoxG99GtDjngb0uK8BPf7dgP9xbcCwlxsw87M6bI4MxLFIT1R94onqT73EseojK1B/BkdySf0777wjliCS6FwfKn9vQVFpC0S2metqEhISBDdyUZT8ZfGKFStEl6jM8GcB5FYuRHYIEJtyo1FBLfRllSEvQbM+vtwLFf6PwlDVtlzw6AkD/sejAT16NqBH38Gm9/MAAA75SURBVAb06N2AHg+aASWoPWvxvy4H8dzAtfj4lWDEBIzA4RneuKbmRssY6YbG1IUw6W+8rpPiVL0uhmDwd/gUhVxfYwtEaqLvvvuu0FjJiVSGKHr5+34qPgxcSyPXplJ56vYg6q+dw+WxHrj2bE9UvN23zRtjDZ68fqEXqhdMaOdqyy1qxf/pX6+A2KcBPRgJpgS0VwN6PKBwKLn0//a8iBEPb8fq8a+inEBKMcvjTHdURrmh5eg+QdDO/n366acWzpP5qIlSEaHYJIgESB2Sk5PFtl8EkyKXIMpFyPx9B5+luKVZwuAQIJr0Lbiy/iscHnE/zj77IK4SrLfMBr0ETh5pWrzYC/Ux7Sd8U7P0CmDkRHIhQZOxdwN+3/sEfD3jMG7EN/jsNX9snzQKeWEPo2yWJyrV3DhXAbB2axCMDe1tPjUQ8pzcIjfl4z3uJEWzQv5GgxxHkSgDAeQvo7iHDQPBoyIkN2Tg2NqrVy/xczj5DMdcroS7nXDHxsSLG5cif8A9KBl2H04+9wAuvWYWrWpAX+uN8rdd0HqquF2ftke3inGQ4vT/9bmIXv1y8ILHSswaoMPGkc8g63kvXAh0QfXnXqj+zAvV8z1R9bFnGwcSSAIY6Yr67WGAoW1/mnYVWV0sWLAAL7/8suA4ch21zh07dohc1FA53hFIpnG85I9uuDGfDBw3eZ9gMhDwxx57TOzEKPN8++237RYPy/u3crxjILJRlzYtQf7A+5A/8B4UjbgPR566H2df7IkrVGbGml1t058GDG3L2vncgcw6BD7yBRb7PofkZ3xQNqavkp/PML7RBxXv9G3zoaq5TwIY5Yb6HTrLJn03QyT+sIXjIL0ujGqu4/P0tFDjZBoBs/VzNNqRtu7L+um1YbydcEdBZEOvbPkeBYPuQ8Gge1Aw/F4UDLsXJY/fhxPPPoALTz+ImlXKr4XadcqkR+vpJFT/9zWUj1a8OeUUvXK2g+J4TB9URropHChB5BgoOXBHmHmrzHYlO8XFHQeRVLu8+TsBZOFghSMLh9+L/KH3onDIvbjy8eNoyl4KQ0XbUnc1pZtyYlA5/TnF20NtlwASzNG9URHQvz2IFgBvjQPV9TnCeZeASMJc2drGkRSt5MjSp+5HeZQbqma4ofqzR1C3ORAtR2JgamqvAZpamlAfswIVgQNR/nxPlL/aW0xdVYzvqxj989QcqLN8v8IRAPk5bewyEBUgf7CIVnLi8dd6tnHSLHfLOpqab59GQ+Ln0F8x73Nq7qmh6grqNv1XLGksf04Bk6vgaFLQjKjfqbtpJebnEK+7PNOlIAogOUYO/DfyH70H5/z6Kd4W6zFtupsC6Me+qF33HppLtsFY37ZnqP7SKdQsCUP56P5C0SGQdTvDnZ4D5UvU5SCyIRwjC4fchyshLqj6j6dt/yd9o7PN3Elx+/UINMTOA9ehytBypABVH49G3dbQW9JC5fOOeuwWIJJ4VfuWo3K6edGT9LBIjlQfzRonx02KzKoPvVD74xtoylsDY93Fdp4eRwXlVtvdbUBkw5vyVqNqluIas7jK1ADaOjdroJWhLnftbzS6FYgCyNxVqJrtKXycNwUkQZzmhvpd08QPbm71LXaG/N0ORAuQkiNtcR/vSUOeWuie6Zav1jgDKLfah24JogLk6utzZDsAZ5g/A3urXXee/N0WRAFk3hrbQFKECg6c4TxI3EZPujWIAshcK46cIwGcedfYgTfCt9uDKIA0c2Sl2eiv30MO7Lho6kadddZ0hwBRAEmtdYYn6ndHaRxo9TY6DIhsd2tZluUXw1b9uKsvHQrEuxqpTjqvgdgJcRwlSQPRUZDqpJ0aiJ0Qx1GSNBAdBalO2qmB2AlxHCVJA9FRkOqknRqInRDHUZI0EB0FqU7aqYHYCXEcJUkD0VGQ6qSdGoidEMdRkjQQHQWpTtqpgdgJcRwlSQPRUZDqpJ0aiJ0Qx1GSNBAdBalO2qmB2AlxHCXJriDyt+ncOovfAIyJiekQ+a0lfo2MP5PmJ3i4EYGtfPIey+FmBtxpgp+/Uwf+xNpWXXyG95luK5SVlYnfyFu3kR/d4iYL/Hm3owW7gkiQ/vnPf+Ivf/kL/vrXv3aIf/rTn/DQQw8JAnPftD/+8Y8d8lg/9/e//x19+/YV+6gVF7dtyMDNfu65554OdbHuv/3tb+B3DG0FbsX15z//uUO9vMedLdSfj+Vv6bnnTFBQkNhAgWVywwUGboHCLb24rw0/4sXIbwHz28EycD837sDBNH43WO6qIdPtdbQriPzGID+i3Fk8fvy4+FInNyzoLJ86jZ+v49ZachcKdp6bIPDbg+p88pzbV17v864kssxnfWR5EiTWQdAIEu/zK23croQ7JnIjBe7pxs34+DIxjZGgyW0v+VHpN998U+y2wTTuEcfN+rgjh72DXUHk9h/cMoQfTebROrIT3JmQOxTyDeeXrrkvjHU+W9fMx28TMo1AEChuSfL88893eF7eIyHVgfvFcFdD7jVjXQefIdHlJkFyjzb1p/Qo0vmNYILIPnALlAsXLqirEOfcdYMbDnHvNnXgi0gJdKufm1WXYevcriByh0Hu6cJ9y6QIoRhh5HcBx48fj6ioKPEWcz8YbjtJUCmuZD7u2MQ9RHlfRu4Fw3SmkRPIzRxTmc9WXczH/Nafy+NepNx3LSQkxFIf85HbWA7rIdcxcOuSadOmiTRb4yTvcbcoblZLwBnlRzNZL/uq3kZTTfzOtkRR57vZc7uCqK6UbyqJzU+SU5xYKybqvBR9Mi+5zLqT3COG6SyHR/VuhSyH22/JdOZhJMjc+UkSknuxESDZHpmPR7UIVbeLW34R9Ndee02AHh8fbymP+7aNGDFCfHVUvmzTp08XOytyj1SOlzJQ9FJpYmQ77R1+MRD5hetf//rX+O1vf4vf/e53193Tk8rD6NGjRd7f/OY38PDw6NBR7onGslgOo7XSQq7/1a9+hT/84Q+WyLKoqEiRys/AMp3Py3w8//3vf3/djzxLYvMl4mfXKf7JxeQ6jv/kRI6r3MeNkeMhX0COk1RyZOCLSTHKZ9lXybEy/XaPvxiIfOP5Rsp4PUWDIFJxSUlJEdFaBLKD5Bam09ygacDv3qsDRRrTqTywvsTEREu9cgM97q/G55mPZo5sF4/cutI6cNyiOaImOMHjeM/nec4xVP1pWVkG20PulXXL+wSenH09zpf5bvX4i4FIgvLt/e6770Rkx2wFijvuPLh48WLBYUuXLhW79HIfUBm5/5ksh2+1deCbz+eZh3uKbtq0CcuWLRP3+Gl1vhj8/DnL5n0qVbyWZVJJsg4Ej5vUqj/aTGA5jlOBkyBSZFsHvpiUHjNmtP/pHdvOveA6G1qsy7qZ618MRO5v/cgjj+DRRx8VUU0MdcNILCoWzDtgwIDrRqbzzbe1lzY/hS7rogZL8Tp06FBR77PPPguOVcOHDxd5nnjiCUHgwYMHi3TWuWXLFnWTLOfkaGqg/Dg0XwAqYKyLLx7HOWq5lDi2As0hbnjLZ/gycwigEsUXo1trp+rOsJMURxRjjJ2JEI45zEsxeb1IscVxx1agEsXn+aZTNLIuElGWyftsA6+pBFHJkfd4n9fXCxTlq1atEp9Wp3khAzmRJkNn/WJeeo8oHVgGz9lWe4dfjBP5efLevXujX79+wuNibTPJjpAY3JGXSkj//v2vG1kW9w4lENaBZkvPnj1FXfyEAce5RYsWiXssk21g7NOnj3DzkfPUbeOXtR05/GIgcpzj/p/UUhm54autQNFCzZHjB0UV81LsUAwx0uajvSbTqARZB4LC5+lSYz6q8fx+BZ/jPUaWS7FKzuIYKfOzjWpXm3XZjnD9i4FIPyf3tubnAhgptmwFKgEUU1RGmJ8bpZM71YFmAtMYqZRYcyPFGp8nmNu3b7e43Lh/N+/TyOdRGvIcx1gW87NttsZZdf3d/fwXA5HG7n333Yd///vfIpK4tgKVBCoP/FIL89NBTkNdHejtUZe1fHn7L3yTc/k863rwwQctjmYqEbx///33izSOSwzUTGV5TFu7dq26Ooc7/8VApI3EN5wKCaN0DNuiEBUbqurMZ20DMj+VEVkW81l7bKgsyOdZhlQ2eJ9cx2cpRqVqT3tNnV/et9U2R7hnVxA5ttDxSz8kuYe+SBlpN9FGCg8PF3N2FGNUwZmfJobMR/OAbizel1GmM41jJAGh3cl8rEudznFUjr80XxYuXCh8rKxPBk4J0ehmeayXbZPl0APjaMGuIHIMoi1H19Lrr7/eIdKLQcKRQzi2cRbCVj7re2PGjBE+StpldHVxfOX4Nnbs2A51UTTLj3JRVNNe5XNyA3YCRKXLuo285kumnrVwFDDtCiLBoeZHIvJoHcmpRUVFwpXFKRyCbp3H1jXz0WxQj5W0Q5mXHw2Rz/CcdbMdMtC2JNdSgZKBLkDruvksFSg6th0t2BVEemWoWEhlgkqDOv7rX//CoEGDxMw+XWr/+Mc/hMKhzqM+l0oRbT+KZykmSWS62mgbcnZfPsPzBx54QNiCEgga/ytXrmy3kz69J1yBQOVG/ayrq6tDmht2BZEEo1eCa2R4tI5yzQy5g7YcQbfOo75mOTQ5KOKsvTVyjY26LnmudrZLF5maE6nUyLU4sj4+y7GSSpSjBbuC6Gidd5b2aiA6AZIaiBqITkABJ+iCxokaiE5AASfogsaJGohOQAEn6ILGiRqITkABJ+iCxokaiE5AASfogsaJGohOQAEn6ILGiRqITkABJ+iCxokaiE5AASfogsaJGohOQAEn6ILGiRqITkABJ+iCxokaiE5AASfogsaJGohOQAEn6ILGiRqITkABJ+iCxokaiE5AASfogsaJGohOQAEn6ILGiRqITkABJ+iCxokaiE5AASfogsaJGohOQAEn6ILGiRqITkABJ+iCxokaiE5AASfogsaJGohOQAEn6ILGiRqITkABJ+iCxokaiE5AASfows1xYtZgtBqu/ykeJ6CDQ3fham0u1mQPRkPrpXb96CGvLtekYM+px5FwdBySj03SYjekQeyRV7GpeBgaWtt/QtACYk3jMWSU+SP+6FjEHX5Ti92QBknHxyHjZDBaDdWS98TRAmK7u9qFQ1Hg/wNLDyuP2/ateQAAAABJRU5ErkJggg==;" vertex="1" parent="YmJHgxNVYnCJfz81V6hL-1">
          <mxGeometry x="50" y="131.5" width="113" height="223" as="geometry" />
        </mxCell>
        <mxCell id="YmJHgxNVYnCJfz81V6hL-11" style="edgeStyle=orthogonalEdgeStyle;rounded=0;orthogonalLoop=1;jettySize=auto;html=1;entryX=0.5;entryY=0;entryDx=0;entryDy=0;entryPerimeter=0;fontSize=10;strokeColor=#0000FF;" edge="1" parent="YmJHgxNVYnCJfz81V6hL-1" source="YmJHgxNVYnCJfz81V6hL-12" target="YmJHgxNVYnCJfz81V6hL-25">
          <mxGeometry relative="1" as="geometry" />
        </mxCell>
        <mxCell id="YmJHgxNVYnCJfz81V6hL-12" value="" style="shape=image;verticalLabelPosition=bottom;labelBackgroundColor=#ffffff;verticalAlign=top;aspect=fixed;imageAspect=0;image=data:image/jpeg,/9j/4AAQSkZJRgABAQAAAQABAAD/2wCEAAkGBxEHBhUSBxQTExMVGBoXGRgYFxceGBkeGBgWGxoYFxUgHSggGBolGxcbIzEhJSkrLi8uGB8zODMsNygtLisBCgoKDg0OGxAQGzclHyUvLS8tLS0tLS0tLS0tLSstLS0tLS0vLS0tLS0tLS0tLS0tLS0tLS0tLS0tLS0tLS0tLf/AABEIAOAA4AMBEQACEQEDEQH/xAAbAAEAAwEBAQEAAAAAAAAAAAAABAUGBwMCAf/EAEIQAAIBAgQCBAkHCwUAAAAAAAABAgMRBAUSIQYxQVFhcQcTFSKBkaGx0RQyNVJzwcIWMzZTcpKTssPh8CQ0QoKi/8QAGgEBAAIDAQAAAAAAAAAAAAAAAAQFAQIDBv/EAC4RAQACAgEDAwIFAwUAAAAAAAABAgMEEQUSIRQxQRMiMjNRYXEVgfAjNELB4f/aAAwDAQACEQMRAD8A+zyz2wAAAAAAAAAAAAAAAAAAAAAAAAAAAAAAAAAAAAAAAAAAAAAAAAAAAAAAAAAAAAAAAAAAAAAAAAAAAAAAAAAAAAAAAAAAAAAAAAAAAAAAAAAAAAAAAAAAAAAAAAAAAAAAAAAAAAAAAAAAAAAAAAAAAAAAAAAAAAAAAAAAAAAAAAAAAAAAAAAAAAAAAAAAAAAAAAAAAAAAAAAAAAAAAAAAAAAAAAAAAAAAAAAAAAAAAAAAAAAAAAAAAAAAAAAAAAAAAAAAAAAAAAAAAAAAAAAAAAAAAAAAAAAAAAAAAAAAAAAAAAAAAAAAAAAAAAAAAAAAAAAAAAAAAAAAAAAAAAAAAAAAAAAAAAAAAAAAAAAAAGYAxP7n8Ajz7HEx7gkAyGeOQMcwx7A5n9CeYByeQAJZ4DM+GPcMRP6s8foBgBwDhn3DJ4gBwGvJx8hlgMzHhnxwDmGOAcE+Ax7HPIOWeOQH7AYAys8hySedYlxpPTGPzpNXtflt0skYNa2afHhD29yuvH6y13kDL8tiljpR1P689/VtYsY18OOPvlTeq2cs80jwrOJMgwuFwHjsDUUV0K+pS7Ivmmcc+DFFe6spWpt5rZOy0K7hDK6ebY+UMYm0oalZtb6kujvI2jhi9piyT1PYviiJqi8SYKGXZvKnh01FW5u/NXe5rtUiluIdtHLbJj7rKwjTCX+7U8NcKeUKKq49tQfzYrnLtb6EWWrpcxzZTbnU5pPbRoXkuXQn4tqlq6nPzveTJxYfaVf6jZ/F54UfEfCPySi6uWtuK3cHu0utPp7mRc+lERzVO1eozae3JKi4cwkMdm8KddXjK9/UyHrU7r9srDeyzjxd1VpxrlNLKp0vkacdeu+7fLRb3skbuGuOI4ROmbN8tpi6r4dwkMdnEKeIV4ybuvQyPrU77xEpe5knHjtaq041yijlUqPyJW1a77t8tFveyTvYK0iOEPpmzfLae578H5DQzbAznjVJuM9KtJrbTF+9m2pr1yU5lr1Hby4ckRSfHCzXD+WSlaFSN/tlf1XO/psH6onrdr/IVOe8HywVF1MBJ1Irdxfzkux9P+cyPm0e2Oa+UzW6p3W7b+FLkviJY1RzNNwltqUmtLfJvrRFwVrNu26dtzkindj92w8g5X+sj/GXxLKMGtKlnd3P8g8g5Zb85H+MviIwa8c+WJ29nn/xiI0oyzHQt4upp9Gq3PuKuKR9Tj4X/fb6XdHu3WK4Zy/BxTxbcE9leo9y1nVxVj7pUOPc2r2+2eXlDhnAY+LWAqO66Yzu/UzX0uG/4ZZtu7OOeckMjnWVzyjG+LrO+14yta6+7qK/YwfTldaezGevLwy7Byx+OhSpc5O1+pdL9Rphp3zw32M30sU2bDP+E6OGyuVTL1LVHzt23suZZZdSsU5hS62/knJ23lhyon38PQ2+OAHPIPhiXSOEoLCcMa4LdqU32tX+Bd61OMXMPM795ts8S51WryxFZzrtylJ3bZT5MlrX8vQ48NKUjh8dGxrbu4bxWlbcw1Xg6+l6n2f4olj078dlV1fzSsoPGv6R1O6P8qOG5+N36b/t1LSp+OrKPK7Sv3tL/O4j44ibREp2WeKTLp/FeJeW8PyeG817QVui7S29Bd7Fpx4vDy+nSMueIs5ba5RTN4nl6i1KzxWI8Ol8EYyWNyW1e7cJaLvpVk17GXutf6lPLzXUcf0s3EMpw5SVDi9RhyjUnFejUivwxxnhZ7VpvqcrXwlfPw/dU/pnfqX/ABRuj+9v7KTg/wDSKl3v3Miaf50LDqP5Ervwk/Pod1T+mS+o+0K/o3vb+yX4Ofoqp9p+CBvoRP0pc+q/mx/H/bBVleq+9+8qr2tEyvscR2RzHw3ng+xksTg6lOs21TcdN+qWra/fF+sttHJOTH5UHU8NceSJj5Y7O8OsJm9WFPkpO1up729tvQVmen+pxyudS1r68WlpsHwPHE4WM/HSWqKlbQtrq9ufaTqaFZrz3Ky3VZrM17ETPeEo5Vl0qsarla22lLm7c7mmbU7K8xLprdStkv2zRncD/vaf7cf5kQcXMXjlZ5+Ppy6DxvltXMsLTWDjqak21ddXaXG5jtescPPdPzY8VrTZS8M8OYnDZxCpiY+LjC7but7q1tiPq62Sl+ZTN7dw5MfbSPL88IleNTMKcYPeMXq7LtW93tNeo2ifEM9JpbiXt4PMB5869TkvMj75P1WXpZv07FxzazTquXmIxx/MpvDGe+U81rwq/Nn50F2LzWvStLt3nXXzzltaso23qxhx0vE+fljc6wHkzM50uaT83ufL2begrM+PssvNXN9XFE/KEcUkEsx78S3XAeZxqYR4ata8d49qfNej7y31M0TXsl5/qeGa5PqQrMz4LrUK/wDoLVIN7b2a7Gccmjbn7UjW6nTt4yPLG8I1sHljq1JR1R3lBdC69XS+z2mltG1KczLpi6nTJmilYSPB19LVPs/xRN+nfimXLq/jHXn9UniXhrE5hnEqmGjFxaVryS5LqN9nUve3NXLT3seLH2WUWZcO4nLMN4zEqKimldST3b29pFvq3xffKdj3sWeeyPlu6FWnxPkLV7alaSXOMl/ctKzXYx8Qo7xbVzcsm+CcUq9k6bj9a/4eZB9Bk9lrHVsfb+7W0Y0uF8jtJ3UbvtlJ9C72WFYjBiVNpvs5eXO8szB4XN4V6m9p6pf9r3f3lPiycZeZehz4ZnW7Ib/ijJvL2DhLCyWqN3Fvk1K11fo5ItdnD9asTVQ6mx6a8xMKvhbhergsf47MGlpvpinfd7Xb+446uralu6yTu79clOykK3j7HxxWZRp09/Fp3fbK116LL1nDfyRaeErpWGa1m0/K48HX0VU+1/BAk6H5U8fqidWn/Wj+FH+R2LqVd1BJt76/giLbRyTKXXqmKteGpwGFpcJ5RJ15Xb3b5OTttGKJ1KVwY1bkvk28scQ529eZZg9CvOpJ2Xa23z6l9xUTE5beHoYtXXxRWy9jwzmCWzf8V/El+lzceJQPX63zV+VOFsfUjao7rqdS/suazq5uPMleo68T9sKPCwdPMYRnzVSKfokrkXHWYyREp+W8WxTZ0LjLNauU4WnLBtJyk07q/RcuNvPOKsTDz+jrUz3mtnpluaflDlMvks3SqpWdt3F9D7UbY831qfb7tM2H0+X7o5hznG4arRx0qeJT8ZezTd22+W/TfYpr47xk4+XosWbHGLvj2dGqV6PDOTU4Yq7XzdlfU2ryduouZtXDXiXnYx5NrLNqqylxPgKFTVRouMl0qnFP1o4028NUi+hscfc+ePsF8owlPE0d1HZ9sZWafof8xpuYu6vfDbpmf6V5pPywxURPL0PHHsGfdifPkT0u8drGYm1Z8MWilo4svcNxbi6Eba1L9pK/rJXrckeIQL9MwzKDmWcV80VsZO6W+lK0b9dulnPLsZcniXbDp48PmkPPLcxq5ZWcsG7Nqz2vtz+40x5LYm+fWx5eO5Y/lbjPrr91fAketyo/9Mwo2YZ/iMxw+jFyTjdPkly7TnfZyXjts6YtLDjv3VRMDjqmArasHJwfZyfeuk54stsc/a7ZsGPL+Nd/lrilGz8X36f7kv19+ED+lYp8wpswzGrmVXVjJuTXLqXciLkzZLz5TcOtjxR9qKc+EjmZ8LTKs/xGVw04aXm/Vkrr0dR3w7WTGhZ9HFl8zHlKxfF+LxNLTqjBPpirP1m9t29olxx9MxVnlQkW0zbysa1iscQsMtzqvllJxwctKbu9k97JfcdsWe2OOIR82pjzTzZMfFmMa/Of+V8DpO7ln2co6Zgj3VOKxdTGVNWKnKb7Xy7l0eg4Xy5L+JSsWDHi80h95fjp5dW14Wyla12r27hjyTjnwxnw1zR9yzXFuMXKov3V8DtbdyxPhEr03BPuPi3GfrF+6vgZ9bkn3P6bgj2U3jX4/X/y1avTe/vI0Xmbcp306xXt+E3M85r5nBLGS1KLutkjpbYnJ9tnHX1KYbd1UfAY6pl+I14SWmVrdm/WjWmW2LzRtmw0zR22SMRnNbE4uNWs05w5PSvabzntM9/y501KUrNPh85nm1bNHH5ZLVpvbZLnb4GuTNOX3bYtTHi/LQTlHbCTxPCy8u1/kHiXJOnbTZpcu8kTs3mvb8IcaeKL93yrSOlgAAAAAAAAAAAAAAAAAAAAAAAAAAAAAAAAAAAAAAAAAAAAAAAAAAAAAAAAAAAAAAAAAAAAAAAAAAAAAAAAAAAAAAAAAAAAAAAAAAAAAAAAAAAAAAAAAAAAAAAAAAAAAAAAAAAAAAAAAAAAAAAAAAAAAAAAAAAAAAAAAAAAAAAAAAAAAAAAAAAAAAAAAAAAAAAAAAAAAAAAAAAAAAAAAAAAAAAAAAAAAAAAAAAAAAAAAAAAAAAAAAAAAAAAAAAAAAAAAAAAAAAAAAAAAAAAAAAAAAAAAAAAAAAAAAAAAAAAAAAAAAAAAAAAAAAAAAAAAAAAAAAAAAAAAAAAAAAAAAAAAAAAAAAAAAAAAAAAAAAAAAAAAAAAAAAAAAAAAAAAAAAAAAAAAAAP/9k=;" vertex="1" parent="YmJHgxNVYnCJfz81V6hL-1">
          <mxGeometry x="240" y="216" width="54" height="54" as="geometry" />
        </mxCell>
        <mxCell id="YmJHgxNVYnCJfz81V6hL-13" value="" style="shape=image;verticalLabelPosition=bottom;labelBackgroundColor=#ffffff;verticalAlign=top;aspect=fixed;imageAspect=0;image=data:image/png,iVBORw0KGgoAAAANSUhEUgAAAQsAAAC9CAMAAACTb6i8AAAAsVBMVEX///8sZ5H7+/v5+fnZ2dn29vbh4eHc3Nzu7u7Y2Njz8/MpZZDt7e3f39/m5ubq6uors8/H1uEbYY2dtcnO2+U2b5fi9Pjn7vPx9fjS0tKi3Omt4Ovs+Pv2/P2WsMVVhKaHpbyT1eQIWolgw9lLfKBuydza5Ouzx9bg6O7Jycl8nri+0N1Adpyovs9kjaxfi6tzmLPQ7fSA0OG8vLzV7/XA5/BCutO4yNZhxdp4y96rq6tBU77ZAAAbkElEQVR4nO1dCXfawK72vmI7OBDstixtCRC20DYhzfv/P+xJs8oLhN7SewOtTk8DnrHxfNZomZFkw/hH/+gf/aN/9I/+IFmWZdu2ZR1sZfTfvaf/CVm2G0VBp9MJItduDhibA6CotfWqCIYaZGniAyVeFrlWvTkKMi9B8rJOo/mqyAIkEj8svSzL/ND3gtpo7SjznDBMs6QM/SStN18TwVATx8+iyOJfPC+wq+1p4sHcAdCiKEp96HqtE8WKMt9PXX0g8tOIjtXNvI7+bnUcJ40qYF0NMSiiyqE0oYxhRV5SGXoA0F0lGJbbgMJIw4yIBCvwHbfS7npOFl3fLAGxmTg1KIwsTAkWduantYF3Qj+7PgFqB16Z6q+Lgh30PPLY3cwJ8K+10PMicPzOtYFhRanj6QkwW/GjFAvLTTkWxuJFn9hxasrm4slyOw6Ri4tJwQ+3Y2HMN/pML0yvS2TADAkz9W2w7fEPgUPniJ05Hf7J2s3VUde/LpEBMyTUYrHYTcSntKzIzo6fiG/d9UwdjvzkimYJqFMn1MJiuR6IT6BTqX0RJKrXiICRXdMswRnSUd/m+a38mPqdqq3ly68Lc1fI425Y6XbRhDPEUw+22x9LtnDDpGaD+4H8PPkyUsez0LsW8xPlgJohg/EXpSSiGvNDR4XZYh2vVAOYn9chPpEttA4Z5X3J/JbnZ3a1pxdKxrAmueIfIwi965AYFdPixcwV7zdGiDJWahKj1893qqHquFwsVdhiMM7XPdngNQaIjCF9luEuz9Usia6DMcDj0mwxyePlUHxuY3zKGC95rGdJE7cLJGQLpU9nZhxLi7KFLThjyN7FOo4r8+niVYkdaLYYLvNY2VnA9kHjSYPECJU3i70XsgFVyR++1T9NlcG9mGa+lA3IFs3+dpAo6Lp93d2InIuXGBU1+RibuXTH7cRv8zLoJFmMY7OvJW1NAV8egTBU5tMqN/UUOeRkgLMqDXFrEpta1HYqa2AXSCg5lZLcAhY7MTTbd9ofsxV4ailwDicoxoic5LInCXU9YfqbsXTLovLAyKxIC5iFCQJmIltg8lyy9ERDUg7MWsam2e+Kb+lBjrcDbWJM4RTzrVl1IURtTnC2zHgqdKTtOIfccCtKlLRd5sAY0pVz/aSphC+HwLjwJV/fwrjirRIXB8dluWkp8duwc4Qvd+EmBrhlnvhogYLUk79zhN9tPa96MEX0vAoueZLAI1aLMzMcVi4NcK88/IiBmRwxf3BemcoQdy/ZQaOLdrcoBnOpID3n8HIuCIxSaNVii1iM5YJHesFrfVbgS41a7BALqROi0D/8hHFbSZw1XLKzJILVpeLLIrvjS76YMW5fi2+d8hi3gyKWwnPEuElOkuoWwmWRqzZ/jHnMuF18AyyODArcOV+0bthpW9EQXK5/BqKzYimQQR31LeyO44jWF5Oxk5halnexZjiIzlJgYTELUnngwVFLAa0SuX/WR3lhirU+q923vQQChSAtrQEbkpr42VH/m2DRY1jEwvS0/PBSFQmMSRpN3ZxhITwz2zmqHAFD6ZEwkQv8xHsfWP+5BAIvS2Kx4ViI5+uG/jHPgsRtMWNLm+GRf6mKxO2E0gKf5JTX3fCol0U8OoGFdOnci1UkblYKLJj9CGMSJvgbxjR6Z+LEAZO5aqXvYq1wS2MxGFexOP546YkMi1gqkvpm9MUQeiPCr+Ai8HQs6nyhBE15VNC8X0IRWDUTiLw4igU4JMJe5fJCKWPLu1DvDM0LceMr06zqkTdkpwJRYiGNtM6BFeP3TlagsHiJOV8I++KNQBtqX/Q5FnLHvfPmtupvJ+H8kTlIscgrdqeV/prdacaPounoJgnLV3JdTFn6zwbE8p1+4/wjV9ZYzAUWxB85DQspaJSDexALy3KjqJMxOpCz9MbtYkZTh5x/TjwIFtzsPNlP1VgwP/UULAAJlq/khKHj+0nazFl6625dzGjyfTjf8RMvPW9WUwsWJ65fdELps7P1CzQ85YkHsLDcjgfjSDhfeKHve53oV56sHcEFnNBDxuh4IVwgPWccegsWa7El0Cn9w9EUJDDWGgmh+wYWYJ15iWYFZJIEU09OHowFJ3iZKy5guW6U+skZo1+a8kKtd7rhEX1gB2rt117Gb8sLkHRu4CW1fIwocTBD6zTeALZKvNrDCRIPOOPN7FDLOCWBtAULtQ4ORvahVRk7SstQtBWP8RE9IvRGFEUZjTYX5HpOGkBbhJpFkRgc+2PLVFjMbSHBuIICmHLNC1SJ/brocgySpn2h90fs9NC+D+4tq5VBYYJroUuwEImuWZp6nlOGzXWNqCx9z/PSNMsCTXjfSFHEvkTsU+aVfuPRWH7pePwCneAAZezneZdjKbUVuzOuLmyxWdIGBmZiOSr4tyemlra1pDIGkRBkqeeD1gDVUT6kLZfyH8owZB0cX1ICN47iFUaQ8G8pXuWhDJoXyB4eQnEBv50c/vPwP/yDCweHRFTTH4Exqa5Z2JZKBhPXJ5lYam5NRLPwR1A4epjgihISH3Jaz95CstOMsUCGGEjy/BIQQpZhX+FTmCSO0wIFMHYaMBZKHXIBQj6mc3Au8wBXJzyYUot+quDc3lrKQBWkaGVtqWQgBOltTSQW2nhHRwbmd+rjDzfElr1YDJo3Y1GKUuAFD2YoExkZcIZLrlIsFsXx86tEuwRp4njtuYLoegvWXYh5r/eJDZZXV1PhFial6Sh6YyjFRfwisUCnDqW+0xIEaPB11fXmN1QhoN9/7L3dr53QSjw09WvrWqgQFrpDhqlkldh4sCx8LQSHwrqorWvBdROn0z5exCI2u61tJxFyYr4dvN3xAAVOOxhkvXMpDYz4kfxOLRcCVIiTEH0wMuVJdL3TxuTOhgIUxNbb482B1hMIsYhJHs8vU+AnnRYBanfUOvitxAJA15xhO1SzogohqYrWSJ1D18EjlFOHoBBY3B5qfpuYhOr/x5PEQCOvbdGO7I+s1LjMWOsSTNLuaMM58Klmu1VngBoRtnsKijjKfO+gQHgHWBhp2+YersmIowMz1iNbakkdhSqvDhOxSNryiKBH9s2yiMQ8IhWLXm82kFesYmEVi1mvpxWDNSTcaw2HVuUyM+zIsZACZziY4dXV0NQpaLTyu2Y9FsVQXyprS/wh+6lKO7KhjfS8UNmnuMhJoJhT8KQmZlhU2KI3elz3zf50u1k0sRCN6+2tOP92uZzM5clz+PIit6Rut+s+dNwMKBbFy3IKhlF/vFxxOBdwymZmDFab0WSJfew577EeL+dKDrptk4TusxcEDNPUws32HTZL0MgidnR3raHQugexCEjawXDUj5lTD/+vNzUsCtI45bb/Yw4kf3uZQ+utJX6NxTbE5pg5QHyOzLZmLs43t0ya9vI4j6e7KRzKMVNstotzvqaAp6pobb9tsb6SrD8hoyNmBugSVKwwQ4hyWBAo8p22z5wyBWdcTpFimatucHc4Lo1FscvJD3JjDXdp4kcxZZjGYFpt3o/VVfTWVHdNnl7OVEsvj1UfwHQxJT1ilSSEj7dFYID2U0cpZ8RjpUwsVusAPTLN+jCO5gRhiJdeqnSTlK7y2fRXFAshb1RjV2Ihr4dqPp4OFPBxnlNzpphWjsZoc/QoOhsx7/P8S853SGUWadYWUQEyQCdZUiVp5o9q4LbjB+gz6AWIIUVtR+2eCHwQab8ZMz4D+rvllgmXeF1oLHp93riVjQgBw2Jax4KHyZjT3VJZxz2F5XS5HKstGo0FsOFmgXMw7i/n3fmOD0quzjhtC06gValJvYwV2+ZaZID7HgQ6s8IwNgT9x6oJmJXlQyI+s7uNp6uhUWzYbX2ZayxGfE+6W7BGk+czcSwWVSzE9vVuZlmLiSnnCN/1jCcLeTTuFwqL3FxP1/PVGmjKZHExwcNfVGReGxbVPHbK+/FaiYzI99M01Dlps76WAuNF9YJB+SDdc77OE/PLbPC++ktLYjHgi0CiEceCbn8rFkxjiZljc/sYsFj1TWUKFWx17ctKYBH3b2dFUdh2UQwKMS2YI66xaLO2MDb+gXCGXKcyiQzD8DxwotW6lPJd8A7rxrDl/yil79unYW0DRoovZmQo/BnjDGrFgk1Iucg0y4UeYXzV74JFYttWj4E5Elj0V9VbAtNktDZPwKLjP5REqPa0gtBZ7S48bC1jb9VEiuOm/ef8KNX6UOUinCQWL0xHavWJfRdVecH0yHgwZIGnfQGQteZYsKQGkDa73XK53DFxAIzV4wF4xKkvurfL7bTPb/kNLGCOlAk9vtL6S1u63o8fOlVRQ9En5VFWC9lVYoHbBXFcc0klFrcVU5otw0PXJhbTAWPVeCwfxY6fKCYgEOgRsS+xHXIsdJ49SJIc28UNH8UC2aJudxCPS6VPRQ+l7DRUIoUbDBKhqfTaHx4UFnjXtUkksRgxd1NiwbyheNWOBTu4lT8l/JFirI0TyceSLxQWvanQt8LmOI5Fc6meigw98SLV64X8trbxB1v5jO2zY/FYwWJUwQLYgvEGsoe5qmExGOecd8BK3yK7H8PCskkNB0VaZOTjRqN+HlSFWMu838IXcXPZRmKxqcyR+bE5wsLvH+UcWfL1C47QeqJp1DVqWPB1iHi63PSGvbf0CPVHCOlZkjdk41xbILpiDi6jN7HgsnNePV/LTmRdKW8Yl5gz47HF1mKyE5UMJ6FqbHZ0XFQXNitYiGj/zQDZ920soiRsWZ8upooxdsXBJi2hWIQTwYLqVF0KoWjRqcuaTt2xhy74bSvMCuYnybRZplNRU4yIfYJ6Ey5eVLFgezfyNt+0L/RaTnW1eiMfvp7Rgla6RdubaOqonu7DD3FNbhlKgbHZjqfTiba12PBF45yBu5WCkUupwVqMmkftbzm3MZ7FAb4Iccn7TuDi05q8YOvZUm3fVmVncx9Mx7rOltR+1NaUTrhUoxZEliw37KmKMdvlD18cn3Btjw2LJbPBN4ovLNGId9fjsegbKTeYAVdwL2RkidwlcwQsas0ZO+Vd8dRjc4NHV2OmV+t8wb1e/AVrvqZYuC02uB3ITNPFek2NNaUs4mllksykWKX2zMyk1qJb/khUA+egye2Iuddtvhk0LvvKNxOuR395OxGTcWWoONzx6Ja7cTnbvOVSLX68vd0xZlW+mcSC73vHU/j5rWBnyRdO2vBTbbUOXjzmdG1ZaQv2CKocYNZEIvdhlKedPjz42hYQBpH4O6c+u2oUyhGvaOmD3Pdk2VsLvlDBVCf+5VJiwCEUB6Hroq5H5uLKqstORq23+OwkHnyZ51MyTTZSlVQniTQ94nF93VMxiv+gtz4LtdPAhoDTqkfWcoi1FItlP7owgs+UP59eZU1GWrvdqb5AnE9nRh0Lg/482VWxnZZkOrIODoOPl6QeX1/+yJicVcijxKHvci9aRXp5ZUncuIkp19jyPrNSB2u0i9jAB5NcNaqttMFSnIGLNLISHoKhuk7VZO6NxQOHrnwrrYdyQ2u4wVKyBPLGTj5ru61OHOhU6aNiZjqRh5Z8PrrYh6GXSogSkZuPCh2v9EMdHmD1JmzttT8eiSm4egTnXXTuLqd9tnY7IktjPXFwupvrGy7m2zVbw33ckPUSdXT7wrmyhysDa+0O2r3luC/WfrvKSrZa137JOvguroxbL3MTgSFnTjyRlxpIzHKdiuhVi78Ws+6qS/aDbWYJ0MZZ3YjBg736NuGg1131FsPa0UVvtdJdLbYwULlcMet1u73KfnTQVkuR2p2ryhj1xjs1L+USpT42UWaoyuP2s9RP33Xsb3ucNlkH56JMOeF6s5kYEkIWKVvC0iJWxaKUXhC0BCS9H7LS9rwOS2djsxAbLSktKYPjphBR+lOt1eviS5gHH9GSdu+OogPx3bgXposNgqjWCuL2CBbCHibLPmpfIAXVbeMe9O+nCwyHQ/FnOCTHhuoDOV7vVb8QOeKVBwLR3ExFHbBpocxHudmssmSQxFaAmBBk60wBxuJycDPFD48Fy7aSZVdCAe7u779/MoxP90CvYigf4PPPZ/jw/Pp6f//15+vnZ97yDXvdf+C9Pt7fP5MLPbG2z/JX/PJAtCatEIXyMjalQhL6M6aLMRuKRU+bOsrNlkk4wBmeD1q84gRj2X31ROBLrTp/kIRhEui59XRz8xWwuLtBemKHhl/xM474442g/f0nBhL78pMD85n3kcT77gWcVnKokg2WM9ZyDnwENfaF2onTNBMGD8yIYkX2ljXvdHxu3YrYtdDLUkkZWmGlOJD5ZemkhJwyDDHer0xkhMcdxYKP7dueYLFHgq/3OMif8B3+3bVgMfzO2gScLIX2gDDD7H7d9NJXVptI3p3Qp2fJWbETDhXnilwZrLomF2YFdFIvYRGFPPDQ55F1PMRQRByqxsRLs04n85yHh6AFCz5JPrJRCSzun56evuE4YT4M9zf7D8A0zy1YfPp6s/+o2pAvDqXQVvdJcb9WrL4XTD2MqmaQNDDimDAFCdeg1YMskuMg8hyiSCc9AHU6ui1gkbnATWETi/1P/sSHrzdffyosvmOnIXwHSfAN+35mHxtYPO1pGwZsHSzeUi31izY+D74ozNzcvtQ6z8j2uuQKU0NhYRQPBZrHQDMS0c38AIt15iHKrvyKv2rZ2hLWWHz9wJ/q3f7m8/cqFoxBhiguvhvPIDBasPgo2rhgQZF2pBJQJa7CWGy5xCgeZYAHoeGkjgU4mLpXa3XXxtuNqp9rba1YgJzApwoDev5cw+KZSUxA6CPjoE9NLBh6AKMQJiw//WAktFuJtzGs0ehAT6OylSoMC+KugLT4XauCeAUEi08wOYY4qv1dHYvPKEtQJIBo3AuhUMECdc83Y3ivBAaGaR8pBeRVwegdGdCkuiTwSLc/ssMz8VRqx2L4gamB/c29UcPi0x4FAYgE5Ih7gUEFC96GykQJjGM5U241KO0o0YAcGjGNMSvO71czPYDFE+Nz/E9jcX/39PQMw99/w2+oaD4IfVPBAibRV37CT3EkOFb/BvOfTgZjYxITi3CFlYXJ7yc9HcCCscRHZI7PNVuLPW4hUL/xM6pYCA3ybS+ECROeR9iXg3GaOzXQG2cx3QfKwOX5/VT2A/LCeAVR8R1txwYW34dMJHz/+PH5wx6ZpIrFJ+Cc78+s7eabONYa30luAaZJeFC8VmjV8NONc3HFYSyeb/afv+ID1ljsX19fv394MqQ5dqMMVIrF3b7ahpQeqR1msASA1Akb+8ytXcctK14AxVkS4Q5hgTpxj5qAyk7pfT4TLF6NKhb1NiTvjUI2YOWAj9C2o9ggsTFAt07S8kw19A9hASYndzfqOhUJjv38jASd9vz7B+nSqzaQKV+FhfEWFjwJ4ME73oeRrA+hKs8ZbnloTeBX6RAWzBF9HbZiMVTOBujPG47Xnvnpr3fotH1kbZ+EMDFOwYKlWp6ChQg70446YnGmVFHEQvAm8Uc+MR1BZQHF4o4jYChUPiuH/ml4w6wwJIXKKViQlKujpDZ59L5z5mRnehegfFUWDPHr/hWx2O/RKx8+P39Enfhhv8cRPe/30nQyvn3d34uP0PoB///K6efd034v14E+win840lYJIdzHQhJLEjUQdAaPPqfkK3KUg/v7phBcHd3R9o/8aOy0ah+5q3wv6AhadMf01PmiHobkVHMVqv6toUkZWH0ZXj/G6UAfoVI5cg/Rm/oVCRdvWAw35p5bu7aM5lk/iZwxnTO8TojFqSi6J+i9O2yxAoLe8d3L/NGJCsjFYOBO568xzmxSOvvZDw3nVLsX/NF0RuxZ98Su0biz2NzIqXn+bAw3I7fkuJ8TjpFuFF5YXD5mK8avUh8pw48OCMWwBh/tLI2aO0T3llY0SNz4XI05OdcL17o/ezgjK9VAG/A97IaHGAIZq3Hsl/74agDFz/BcQKxpUtMiDjReuwadVNJund6xhffYf534rACBoScsizDlmNl6bVRkrqRlzQOp5hif4oPiemnehW4a6IAbWRP6jxWsgEf+eeswgeuUQcr4ziafD6sxrGUV0Nw6hSGYZLgXkOVfqHMDm6iad2+mG8mfeJ08INqvTPX8QlRbfn7t4lXzqCEdTCilmNuvSMnsfHQrIpxcvkm1GdeJYxkm5tVtaoS2FUSg8Hyjs5dkNDiWwbVaintx6oHVTkUsddQo9OrFVnV1H1ct6nsIRqzqZYW6qRO+A5fJvvb1chYSQcaRmJN6eIVlRaqQM6VvnFZ5JNQs+82pwLDIlvrEiPLP9faxXsj9l5ykjqwmNKYA5L+qavVlRdbBvst4u+r17mpS/IyTB0BS2Jgs0t/Y9MRwgJnIAHk8FY06JPE0erq2RdasPMkws2SslQp6VNtRwxIjld8WvXsSyfcLNEFgiY6q4xEHKiUoDcqwF48YQEUFQM709kRehFHV+O43ILgJxLYXLLYlFFMlAu20lCocNerx6LyXuWuwmJOt5Vl6sxZ3bL3SPSFkdqZ2egoLeWwY+Gk68ai8sZIRaTUgyqrkV7siyVOJsoYiihfCE17JFryaggdkwZjUHkhTC2Mor1eU0sQLsHWJQHVI2JRy/Ku1hshZEep73sJlr8krxRWppZ6J9yR96BdDWFAhhc+lOXDD1nct6cDGvsy67W1tt3VEQMDkPjxfzJBfaFXtabCMM+OvhPuegjd99LxfBXiR/YDZBWcS37R3S8QFmetxvGqRE3y7q83XytxFVStQ8ZIBf2qvcVLfjHmLxD4JPX4V7Wu1Vee2VWvXihys8bmf1fm48nSW9HfITpxitSt64VMwZRrXe7vR8NfAoFHIlOxda6MiGZUW6mtBQ+vj9A74+MsdlJSdqW4EFan1VoI8/qIYJGLtXC5g6g2nK224glXSBoLY5vHWJ5iIU0ttTdyJI3tqohg0Vvn/TmpYyLrO7EXl/9lWBiLZT+eaGekL4Wp93eIC6pH4Ev38UtzW/l4gs4VUc2+WJBSzFKjHk3cuioiL2FHUkX6dCmE4ExJI++fyEvYkVQsoyyid7nvxPx1sgOHYqFqg6hKrde/ZaaoEgasCzSqJa1KIv+Vk6VKh2+Wsh65SQtigEb9G5wRJAwDFqHym0dZDI28tua8Aa7vm9DYkmHARW8jXtStq06lVxycVCd8sxPJXuCFWHVVJQzI+Uu0iMFSvwgWuCEgXweC1FYb9XrJChKSojnrx/F6pUaPxsXfIjkNXohMr3je5tNbUuGh8/cYF4zoO0uHu1taEdgNnXO+1fb9E2Z160jPSssfSA1454Sv/CtbsgIt9nLA//79/C+JvwqyeTwNvQOv3rxmcitOCSc7C0/K2bo2whWdal1SfPXVXwkFLzjVEfXA2Ktd/RBf//g3QsGCw5PUAz8MM/M8z8F3zJ+pvsPFkaw+6Sd+6LCcxr8VCYNXn2RvFmelFk/NabxWUtUWfyWn8R/9o3/0j/7R1dL/A4XTTGFDEzpNAAAAAElFTkSuQmCC;" vertex="1" parent="YmJHgxNVYnCJfz81V6hL-1">
          <mxGeometry x="270" y="252.57000000000005" width="67" height="47.43" as="geometry" />
        </mxCell>
        <mxCell id="YmJHgxNVYnCJfz81V6hL-14" style="edgeStyle=orthogonalEdgeStyle;rounded=0;orthogonalLoop=1;jettySize=auto;html=1;entryX=0.5;entryY=1;entryDx=0;entryDy=0;entryPerimeter=0;" edge="1" parent="YmJHgxNVYnCJfz81V6hL-1" source="YmJHgxNVYnCJfz81V6hL-15" target="YmJHgxNVYnCJfz81V6hL-4">
          <mxGeometry relative="1" as="geometry">
            <mxPoint x="627" y="230" as="targetPoint" />
          </mxGeometry>
        </mxCell>
        <mxCell id="YmJHgxNVYnCJfz81V6hL-15" value="" style="verticalLabelPosition=bottom;html=1;verticalAlign=top;align=center;strokeColor=#0066CC;fillColor=#00BEF2;shape=mxgraph.azure.computer;pointerEvents=1;" vertex="1" parent="YmJHgxNVYnCJfz81V6hL-1">
          <mxGeometry x="270" y="471" width="50" height="45" as="geometry" />
        </mxCell>
        <mxCell id="YmJHgxNVYnCJfz81V6hL-16" value="" style="rounded=0;whiteSpace=wrap;html=1;strokeColor=#00FF00;" vertex="1" parent="YmJHgxNVYnCJfz81V6hL-1">
          <mxGeometry x="50" y="380" width="110" height="150" as="geometry" />
        </mxCell>
        <mxCell id="YmJHgxNVYnCJfz81V6hL-17" style="edgeStyle=orthogonalEdgeStyle;rounded=0;orthogonalLoop=1;jettySize=auto;html=1;fontSize=10;startArrow=none;" edge="1" parent="YmJHgxNVYnCJfz81V6hL-1" source="YmJHgxNVYnCJfz81V6hL-25" target="YmJHgxNVYnCJfz81V6hL-6">
          <mxGeometry relative="1" as="geometry" />
        </mxCell>
        <mxCell id="YmJHgxNVYnCJfz81V6hL-18" style="edgeStyle=orthogonalEdgeStyle;rounded=0;orthogonalLoop=1;jettySize=auto;html=1;entryX=-0.02;entryY=0.311;entryDx=0;entryDy=0;entryPerimeter=0;fontSize=10;strokeColor=#0000FF;" edge="1" parent="YmJHgxNVYnCJfz81V6hL-1" source="YmJHgxNVYnCJfz81V6hL-19" target="YmJHgxNVYnCJfz81V6hL-25">
          <mxGeometry relative="1" as="geometry" />
        </mxCell>
        <mxCell id="YmJHgxNVYnCJfz81V6hL-19" value="Nostradamus" style="rounded=0;whiteSpace=wrap;html=1;fontSize=10;" vertex="1" parent="YmJHgxNVYnCJfz81V6hL-1">
          <mxGeometry x="65" y="400" width="80" height="30" as="geometry" />
        </mxCell>
        <mxCell id="YmJHgxNVYnCJfz81V6hL-20" style="edgeStyle=orthogonalEdgeStyle;rounded=0;orthogonalLoop=1;jettySize=auto;html=1;entryX=0;entryY=0.5;entryDx=0;entryDy=0;entryPerimeter=0;fontSize=10;strokeColor=#0000FF;" edge="1" parent="YmJHgxNVYnCJfz81V6hL-1" source="YmJHgxNVYnCJfz81V6hL-21" target="YmJHgxNVYnCJfz81V6hL-25">
          <mxGeometry relative="1" as="geometry" />
        </mxCell>
        <mxCell id="YmJHgxNVYnCJfz81V6hL-21" value="&lt;font style=&quot;font-size: 10px&quot;&gt;Manual Extractions&lt;/font&gt;" style="rounded=0;whiteSpace=wrap;html=1;" vertex="1" parent="YmJHgxNVYnCJfz81V6hL-1">
          <mxGeometry x="65" y="437.5" width="80" height="30" as="geometry" />
        </mxCell>
        <mxCell id="YmJHgxNVYnCJfz81V6hL-22" style="edgeStyle=orthogonalEdgeStyle;rounded=0;orthogonalLoop=1;jettySize=auto;html=1;" edge="1" parent="YmJHgxNVYnCJfz81V6hL-1" source="YmJHgxNVYnCJfz81V6hL-23" target="YmJHgxNVYnCJfz81V6hL-15">
          <mxGeometry relative="1" as="geometry" />
        </mxCell>
        <mxCell id="YmJHgxNVYnCJfz81V6hL-23" value="EM+" style="rounded=0;whiteSpace=wrap;html=1;fontSize=10;" vertex="1" parent="YmJHgxNVYnCJfz81V6hL-1">
          <mxGeometry x="65" y="478.5" width="80" height="30" as="geometry" />
        </mxCell>
        <mxCell id="YmJHgxNVYnCJfz81V6hL-24" value="" style="verticalLabelPosition=bottom;html=1;verticalAlign=top;align=center;strokeColor=none;fillColor=#00BEF2;shape=mxgraph.azure.sql_database_sql_azure;" vertex="1" parent="YmJHgxNVYnCJfz81V6hL-1">
          <mxGeometry x="630" y="204" width="37.5" height="36" as="geometry" />
        </mxCell>
        <mxCell id="YmJHgxNVYnCJfz81V6hL-25" value="" style="verticalLabelPosition=bottom;html=1;verticalAlign=top;align=center;strokeColor=#0066CC;fillColor=#0000FF;shape=mxgraph.azure.computer;pointerEvents=1;" vertex="1" parent="YmJHgxNVYnCJfz81V6hL-1">
          <mxGeometry x="270" y="410" width="50" height="45" as="geometry" />
        </mxCell>
        <mxCell id="YmJHgxNVYnCJfz81V6hL-26" value="" style="verticalLabelPosition=bottom;html=1;verticalAlign=top;align=center;strokeColor=none;fillColor=#00BEF2;shape=mxgraph.azure.express_route;pointerEvents=1;fontSize=10;" vertex="1" parent="YmJHgxNVYnCJfz81V6hL-1">
          <mxGeometry x="400" y="417.5" width="50" height="30" as="geometry" />
        </mxCell>
        <mxCell id="YmJHgxNVYnCJfz81V6hL-27" value="SHIR" style="text;html=1;resizable=0;autosize=1;align=center;verticalAlign=middle;points=[];fillColor=none;strokeColor=none;rounded=0;shadow=1;fontSize=10;" vertex="1" parent="YmJHgxNVYnCJfz81V6hL-1">
          <mxGeometry x="275" y="417.5" width="40" height="20" as="geometry" />
        </mxCell>
        <mxCell id="YmJHgxNVYnCJfz81V6hL-28" value="Desktop" style="text;html=1;resizable=0;autosize=1;align=center;verticalAlign=middle;points=[];fillColor=none;strokeColor=none;rounded=0;shadow=1;fontSize=10;" vertex="1" parent="YmJHgxNVYnCJfz81V6hL-1">
          <mxGeometry x="270" y="483.5" width="50" height="20" as="geometry" />
        </mxCell>
        <mxCell id="YmJHgxNVYnCJfz81V6hL-29" value="API/C#" style="text;html=1;resizable=0;autosize=1;align=center;verticalAlign=middle;points=[];fillColor=none;strokeColor=none;rounded=0;shadow=1;fontSize=10;" vertex="1" parent="YmJHgxNVYnCJfz81V6hL-1">
          <mxGeometry x="180" y="471" width="50" height="20" as="geometry" />
        </mxCell>
        <mxCell id="YmJHgxNVYnCJfz81V6hL-30" value="Direct write to Azure SQL" style="text;html=1;resizable=0;autosize=1;align=center;verticalAlign=middle;points=[];fillColor=none;strokeColor=none;rounded=0;shadow=1;fontSize=10;" vertex="1" parent="YmJHgxNVYnCJfz81V6hL-1">
          <mxGeometry x="395" y="467.5" width="130" height="20" as="geometry" />
        </mxCell>
        <mxCell id="YmJHgxNVYnCJfz81V6hL-31" value="ADF Linked &lt;br&gt;Service" style="text;html=1;resizable=0;autosize=1;align=center;verticalAlign=middle;points=[];fillColor=none;strokeColor=none;rounded=0;shadow=1;fontSize=10;" vertex="1" parent="YmJHgxNVYnCJfz81V6hL-1">
          <mxGeometry x="410" y="375" width="70" height="30" as="geometry" />
        </mxCell>
        <mxCell id="YmJHgxNVYnCJfz81V6hL-32" value="ADF" style="text;html=1;resizable=0;autosize=1;align=center;verticalAlign=middle;points=[];fillColor=none;strokeColor=none;rounded=0;shadow=1;fontSize=10;" vertex="1" parent="YmJHgxNVYnCJfz81V6hL-1">
          <mxGeometry x="448" y="180" width="40" height="20" as="geometry" />
        </mxCell>
        <mxCell id="YmJHgxNVYnCJfz81V6hL-33" value="SQL Server &lt;br&gt;Staging Schema" style="text;html=1;resizable=0;autosize=1;align=center;verticalAlign=middle;points=[];fillColor=none;strokeColor=none;rounded=0;shadow=1;fontSize=10;" vertex="1" parent="YmJHgxNVYnCJfz81V6hL-1">
          <mxGeometry x="505" y="175" width="90" height="30" as="geometry" />
        </mxCell>
        <mxCell id="YmJHgxNVYnCJfz81V6hL-34" value="SQL Server &lt;br&gt;Reporting Schema" style="text;html=1;resizable=0;autosize=1;align=center;verticalAlign=middle;points=[];fillColor=none;strokeColor=none;rounded=0;shadow=1;fontSize=10;" vertex="1" parent="YmJHgxNVYnCJfz81V6hL-1">
          <mxGeometry x="598.75" y="175" width="100" height="30" as="geometry" />
        </mxCell>
        <mxCell id="YmJHgxNVYnCJfz81V6hL-35" value="" style="verticalLabelPosition=bottom;html=1;verticalAlign=top;align=center;strokeColor=none;fillColor=#00BEF2;shape=mxgraph.azure.cloud;shadow=1;fontSize=10;" vertex="1" parent="YmJHgxNVYnCJfz81V6hL-1">
          <mxGeometry x="660" y="253" width="50" height="32.5" as="geometry" />
        </mxCell>
        <mxCell id="YmJHgxNVYnCJfz81V6hL-36" value="Azure" style="text;html=1;resizable=0;autosize=1;align=center;verticalAlign=middle;points=[];fillColor=none;strokeColor=none;rounded=0;shadow=1;fontSize=10;" vertex="1" parent="YmJHgxNVYnCJfz81V6hL-1">
          <mxGeometry x="665" y="265.5" width="40" height="20" as="geometry" />
        </mxCell>
      </root>
    </mxGraphModel>
  </diagram>
</mxfile>
